<svg width="515" height="109" viewBox="0 0 515 109" fill="none" xmlns="http://www.w3.org/2000/svg">
<path d="M1.34813 92.2188L1.34813 80.5781H5.62157C6.44448 80.5781 7.12678 80.7135 7.66844 80.9844C8.21011 81.2552 8.61375 81.6224 8.87938 82.0859C9.15021 82.5443 9.28563 83.0599 9.28563 83.6328C9.28563 84.1172 9.19448 84.526 9.01219 84.8594C8.83511 85.1927 8.59813 85.4583 8.30125 85.6562C8.00438 85.8542 7.67625 86 7.31688 86.0938V86.2031C7.7075 86.224 8.08771 86.349 8.4575 86.5781C8.8273 86.8073 9.13198 87.1328 9.37157 87.5547C9.61636 87.9714 9.73875 88.4818 9.73875 89.0859C9.73875 89.6797 9.59813 90.2135 9.31688 90.6875C9.04084 91.1562 8.61375 91.5286 8.03563 91.8047C7.4575 92.0807 6.71532 92.2188 5.80907 92.2188H1.34813ZM3.10594 90.7188H5.63719C6.48094 90.7188 7.08511 90.5547 7.44969 90.2266C7.81428 89.8984 7.99657 89.4896 7.99657 89C7.99657 88.6302 7.90282 88.2943 7.71532 87.9922C7.53303 87.6849 7.27 87.4401 6.92625 87.2578C6.5825 87.0755 6.17625 86.9844 5.7075 86.9844H3.10594V90.7188ZM3.10594 85.6172H5.46532C5.85594 85.6172 6.21011 85.5417 6.52782 85.3906C6.84553 85.2396 7.09553 85.026 7.27782 84.75C7.46532 84.4688 7.55907 84.1432 7.55907 83.7734C7.55907 83.2943 7.3898 82.8932 7.05125 82.5703C6.71792 82.2422 6.2049 82.0781 5.51219 82.0781H3.10594V85.6172ZM14.9378 92.3984C14.0836 92.3984 13.3441 92.2135 12.7191 91.8438C12.0941 91.474 11.6123 90.9531 11.2738 90.2812C10.9404 89.6042 10.7738 88.8151 10.7738 87.9141C10.7738 87.0182 10.9378 86.2292 11.2659 85.5469C11.5993 84.8646 12.0654 84.3333 12.6644 83.9531C13.2685 83.5677 13.9769 83.375 14.7894 83.375C15.2842 83.375 15.7633 83.4557 16.2269 83.6172C16.6904 83.7786 17.1071 84.0339 17.4769 84.3828C17.8467 84.7318 18.1383 85.1849 18.3519 85.7422C18.5706 86.2995 18.68 86.9714 18.68 87.7578V88.3672H11.7347V87.0938H17.805L17.0159 87.5156C17.0159 86.9792 16.9326 86.5052 16.7659 86.0938C16.5993 85.6823 16.3493 85.362 16.0159 85.1328C15.6878 84.8984 15.279 84.7812 14.7894 84.7812C14.2998 84.7812 13.8805 84.8984 13.5316 85.1328C13.1878 85.3672 12.9248 85.6771 12.7425 86.0625C12.5602 86.4479 12.4691 86.8698 12.4691 87.3281V88.1953C12.4691 88.7943 12.5732 89.3021 12.7816 89.7188C12.9899 90.1354 13.279 90.4531 13.6488 90.6719C14.0238 90.8906 14.4586 91 14.9534 91C15.2764 91 15.568 90.9531 15.8284 90.8594C16.0941 90.7656 16.3232 90.625 16.5159 90.4375C16.7086 90.25 16.8545 90.0182 16.9534 89.7422L18.5628 90.0469C18.4326 90.5156 18.2034 90.9271 17.8753 91.2812C17.5472 91.6354 17.1331 91.9115 16.6331 92.1094C16.1383 92.3021 15.5732 92.3984 14.9378 92.3984ZM26.7463 80.2422L27.4494 81.3125C27.1942 81.5521 26.8999 81.7214 26.5666 81.8203C26.2332 81.9193 25.8504 81.9818 25.4181 82.0078C24.9858 82.0339 24.491 82.0573 23.9338 82.0781C23.3035 82.0938 22.7853 82.2292 22.3791 82.4844C21.978 82.7344 21.6681 83.1042 21.4494 83.5938C21.2306 84.0833 21.09 84.7005 21.0275 85.4453H21.1369C21.4129 84.9036 21.8035 84.5 22.3088 84.2344C22.8192 83.9635 23.3921 83.8281 24.0275 83.8281C24.7306 83.8281 25.3556 83.9896 25.9025 84.3125C26.4494 84.6302 26.8817 85.099 27.1994 85.7188C27.5171 86.3385 27.6733 87.0938 27.6681 87.9844C27.6733 88.8906 27.5119 89.6745 27.1838 90.3359C26.8556 90.9974 26.3895 91.5052 25.7853 91.8594C25.1864 92.2135 24.4806 92.3932 23.6681 92.3984C22.4442 92.3932 21.465 91.9766 20.7306 91.1484C19.9963 90.3151 19.6265 89.0964 19.6213 87.4922V86.6406C19.6265 84.6406 19.9858 83.138 20.6994 82.1328C21.4129 81.1276 22.478 80.6094 23.8947 80.5781C24.353 80.5677 24.7619 80.5651 25.1213 80.5703C25.4806 80.5755 25.7957 80.5599 26.0666 80.5234C26.3374 80.4818 26.564 80.388 26.7463 80.2422ZM23.6681 90.9766C24.1473 90.9714 24.5561 90.849 24.8947 90.6094C25.2332 90.3698 25.4963 90.0286 25.6838 89.5859C25.8713 89.1432 25.9624 88.6198 25.9572 88.0156C25.9624 87.4271 25.8713 86.9271 25.6838 86.5156C25.4963 86.099 25.2306 85.7812 24.8869 85.5625C24.5431 85.3438 24.1291 85.2344 23.6447 85.2344C23.2905 85.2344 22.9728 85.2969 22.6916 85.4219C22.4103 85.5469 22.1707 85.7292 21.9728 85.9688C21.7749 86.2031 21.6213 86.4922 21.5119 86.8359C21.4077 87.1797 21.3504 87.5729 21.34 88.0156C21.34 88.9115 21.5457 89.6276 21.9572 90.1641C22.3739 90.7005 22.9442 90.9714 23.6681 90.9766ZM34.1953 86.5703V88.0391H29.0234V86.5703H34.1953ZM35.0819 94.7344V90.75H35.785C35.9673 90.5833 36.1235 90.3854 36.2538 90.1562C36.384 89.9219 36.4907 89.6458 36.5741 89.3281C36.6626 89.0052 36.7381 88.6328 36.8006 88.2109C36.8631 87.7891 36.9178 87.3021 36.9647 86.75L37.2381 83.4844H43.1678V90.75H44.5116V94.7344H42.8475V92.2188H36.7694V94.7344H35.0819ZM37.6131 90.75H41.5116V84.9375H38.7538L38.5663 86.75C38.4881 87.6719 38.3814 88.4688 38.2459 89.1406C38.1157 89.8073 37.9048 90.3438 37.6131 90.75ZM47.3122 89.8281L51.1638 83.4844H52.9919V92.2188H51.3356V85.8672L47.4997 92.2188H45.6638V83.4844H47.3122V89.8281ZM54.5972 89.9062H56.3238C56.355 90.2656 56.5191 90.5417 56.8159 90.7344C57.118 90.9271 57.5113 91.026 57.9956 91.0312C58.48 91.026 58.8941 90.9193 59.2378 90.7109C59.5816 90.5026 59.756 90.1719 59.7613 89.7188C59.7613 89.4583 59.6935 89.2292 59.5581 89.0312C59.4279 88.8333 59.243 88.6797 59.0034 88.5703C58.7691 88.4557 58.493 88.401 58.1753 88.4062H56.7534V87.0703H58.1753C58.6493 87.0703 59.006 86.9635 59.2456 86.75C59.4852 86.5312 59.605 86.2552 59.605 85.9219C59.605 85.5625 59.4774 85.2734 59.2222 85.0547C58.967 84.8359 58.6102 84.7292 58.1519 84.7344C57.6988 84.7292 57.3185 84.8307 57.0113 85.0391C56.704 85.2422 56.5425 85.5052 56.5269 85.8281H54.8081C54.8185 85.3438 54.9644 84.9167 55.2456 84.5469C55.5321 84.1771 55.9201 83.8906 56.4097 83.6875C56.8993 83.4792 57.454 83.375 58.0738 83.375C58.7196 83.375 59.2795 83.4792 59.7534 83.6875C60.2274 83.8958 60.5946 84.1849 60.855 84.5547C61.1154 84.9193 61.243 85.3411 61.2378 85.8203C61.243 86.2995 61.0998 86.6927 60.8081 87C60.5217 87.3073 60.1493 87.526 59.6909 87.6562V87.7422C60.0295 87.7682 60.329 87.8724 60.5894 88.0547C60.855 88.2318 61.0607 88.4714 61.2066 88.7734C61.3576 89.0703 61.4331 89.4089 61.4331 89.7891C61.4331 90.3203 61.2847 90.7812 60.9878 91.1719C60.6961 91.5625 60.2925 91.8646 59.7769 92.0781C59.2613 92.2865 58.6701 92.3932 58.0034 92.3984C57.3576 92.3932 56.7795 92.2891 56.2691 92.0859C55.7639 91.8828 55.3628 91.5964 55.0659 91.2266C54.7691 90.8516 54.6128 90.4115 54.5972 89.9062ZM64.8744 92.4062C64.3223 92.4062 63.8223 92.3047 63.3744 92.1016C62.9265 91.8932 62.5723 91.5911 62.3119 91.1953C62.0515 90.7995 61.9213 90.3177 61.9213 89.75C61.9213 89.2552 62.015 88.8516 62.2025 88.5391C62.3952 88.2214 62.653 87.9688 62.9759 87.7812C63.2989 87.5938 63.6582 87.4531 64.0541 87.3594C64.4499 87.2656 64.8561 87.1927 65.2728 87.1406C65.7989 87.0833 66.2233 87.0339 66.5463 86.9922C66.8692 86.9505 67.1035 86.8854 67.2494 86.7969C67.4004 86.7031 67.4759 86.5547 67.4759 86.3516V86.3125C67.4759 85.8177 67.3353 85.4349 67.0541 85.1641C66.778 84.8932 66.3666 84.7578 65.8197 84.7578C65.252 84.7578 64.8015 84.8828 64.4681 85.1328C64.14 85.3776 63.9134 85.6562 63.7884 85.9688L62.1869 85.6016C62.3796 85.0703 62.6582 84.6432 63.0228 84.3203C63.3926 83.9922 63.8145 83.7526 64.2884 83.6016C64.7676 83.4505 65.2676 83.375 65.7884 83.375C66.1374 83.375 66.5072 83.4167 66.8978 83.5C67.2884 83.5781 67.6556 83.7266 67.9994 83.9453C68.3483 84.1589 68.6322 84.4661 68.8509 84.8672C69.0697 85.2682 69.1791 85.7865 69.1791 86.4219V92.2188H67.515V91.0234H67.4525C67.3483 91.237 67.1843 91.4505 66.9603 91.6641C66.7416 91.8776 66.4603 92.0547 66.1166 92.1953C65.7728 92.3359 65.3588 92.4062 64.8744 92.4062ZM65.2416 91.0469C65.7155 91.0469 66.1192 90.9557 66.4525 90.7734C66.7858 90.5859 67.041 90.3411 67.2181 90.0391C67.3952 89.737 67.4838 89.4167 67.4838 89.0781V87.9453C67.4213 88.0026 67.3041 88.0573 67.1322 88.1094C66.9603 88.1615 66.765 88.2057 66.5463 88.2422C66.3275 88.2786 66.114 88.3125 65.9056 88.3438C65.6973 88.3698 65.5228 88.3906 65.3822 88.4062C65.0541 88.4531 64.7546 88.526 64.4838 88.625C64.2129 88.7188 63.9942 88.8594 63.8275 89.0469C63.666 89.2292 63.5853 89.4714 63.5853 89.7734C63.5853 90.1953 63.7416 90.513 64.0541 90.7266C64.3666 90.9401 64.7624 91.0469 65.2416 91.0469ZM72.6203 89.8281L76.4719 83.4844H78.3V92.2188H76.6438V85.8672L72.8078 92.2188H70.9719V83.4844H72.6203V89.8281ZM74.6203 82.4688C73.8755 82.4688 73.2714 82.2656 72.8078 81.8594C72.3443 81.4479 72.1125 80.9141 72.1125 80.2578H73.5109C73.5109 80.5911 73.6125 80.862 73.8156 81.0703C74.0188 81.2734 74.287 81.375 74.6203 81.375C74.9536 81.375 75.2219 81.2734 75.425 81.0703C75.6281 80.862 75.7297 80.5911 75.7297 80.2578H77.1281C77.1281 80.9141 76.8964 81.4479 76.4328 81.8594C75.9693 82.2656 75.3651 82.4688 74.6203 82.4688ZM85.9913 87.1172V88.5859H81.2647V87.1172H85.9913ZM81.7334 83.4844V92.2188H80.085V83.4844H81.7334ZM87.1788 83.4844V92.2188H85.5225V83.4844H87.1788ZM92.7216 92.3984C91.8674 92.3984 91.1278 92.2135 90.5028 91.8438C89.8778 91.474 89.396 90.9531 89.0575 90.2812C88.7242 89.6042 88.5575 88.8151 88.5575 87.9141C88.5575 87.0182 88.7216 86.2292 89.0497 85.5469C89.383 84.8646 89.8492 84.3333 90.4481 83.9531C91.0523 83.5677 91.7606 83.375 92.5731 83.375C93.0679 83.375 93.5471 83.4557 94.0106 83.6172C94.4742 83.7786 94.8908 84.0339 95.2606 84.3828C95.6304 84.7318 95.9221 85.1849 96.1356 85.7422C96.3544 86.2995 96.4638 86.9714 96.4638 87.7578V88.3672H89.5184V87.0938H95.5888L94.7997 87.5156C94.7997 86.9792 94.7164 86.5052 94.5497 86.0938C94.383 85.6823 94.133 85.362 93.7997 85.1328C93.4716 84.8984 93.0627 84.7812 92.5731 84.7812C92.0835 84.7812 91.6643 84.8984 91.3153 85.1328C90.9716 85.3672 90.7085 85.6771 90.5263 86.0625C90.344 86.4479 90.2528 86.8698 90.2528 87.3281V88.1953C90.2528 88.7943 90.357 89.3021 90.5653 89.7188C90.7736 90.1354 91.0627 90.4531 91.4325 90.6719C91.8075 90.8906 92.2424 91 92.7372 91C93.0601 91 93.3518 90.9531 93.6122 90.8594C93.8778 90.7656 94.107 90.625 94.2997 90.4375C94.4924 90.25 94.6382 90.0182 94.7372 89.7422L96.3466 90.0469C96.2164 90.5156 95.9872 90.9271 95.6591 91.2812C95.3309 91.6354 94.9169 91.9115 94.4169 92.1094C93.9221 92.3021 93.357 92.3984 92.7216 92.3984ZM97.8113 95.4844V83.4844H99.4519V84.9062H99.5925C99.6967 84.724 99.8399 84.513 100.022 84.2734C100.21 84.0339 100.47 83.8255 100.803 83.6484C101.137 83.4661 101.572 83.375 102.108 83.375C102.811 83.375 103.436 83.5521 103.983 83.9062C104.535 84.2604 104.97 84.7734 105.288 85.4453C105.606 86.1172 105.764 86.9271 105.764 87.875C105.764 88.8125 105.608 89.6198 105.296 90.2969C104.983 90.9688 104.551 91.487 103.999 91.8516C103.452 92.2109 102.824 92.3906 102.116 92.3906C101.59 92.3906 101.158 92.3021 100.819 92.125C100.486 91.9427 100.223 91.7318 100.03 91.4922C99.8425 91.2526 99.6967 91.0417 99.5925 90.8594H99.4988V95.4844H97.8113ZM101.749 90.9453C102.254 90.9453 102.676 90.8099 103.014 90.5391C103.353 90.2682 103.608 89.901 103.78 89.4375C103.957 88.9688 104.046 88.4427 104.046 87.8594C104.046 87.2812 103.96 86.763 103.788 86.3047C103.616 85.8464 103.361 85.4844 103.022 85.2188C102.684 84.9531 102.259 84.8203 101.749 84.8203C101.254 84.8203 100.837 84.9479 100.499 85.2031C100.16 85.4531 99.9024 85.8073 99.7253 86.2656C99.5534 86.7188 99.4675 87.25 99.4675 87.8594C99.4675 88.4688 99.556 89.0052 99.7331 89.4688C99.9102 89.9323 100.168 90.2943 100.507 90.5547C100.85 90.8151 101.264 90.9453 101.749 90.9453ZM112.147 88.3438C111.829 88.3438 111.558 88.2344 111.334 88.0156C111.116 87.7969 111.006 87.5286 111.006 87.2109C111.006 86.8932 111.116 86.625 111.334 86.4062C111.558 86.1875 111.829 86.0781 112.147 86.0781C112.465 86.0781 112.733 86.1875 112.952 86.4062C113.176 86.625 113.288 86.8932 113.288 87.2109C113.288 87.5286 113.176 87.7969 112.952 88.0156C112.733 88.2344 112.465 88.3438 112.147 88.3438ZM122.584 92.3984C121.746 92.3984 121.022 92.2057 120.412 91.8203C119.803 91.4349 119.334 90.9036 119.006 90.2266C118.678 89.5495 118.514 88.7734 118.514 87.8984C118.514 87.0078 118.68 86.224 119.014 85.5469C119.352 84.8646 119.824 84.3333 120.428 83.9531C121.037 83.5677 121.751 83.375 122.568 83.375C123.235 83.375 123.826 83.4974 124.342 83.7422C124.863 83.9818 125.282 84.3229 125.6 84.7656C125.923 85.2083 126.113 85.724 126.17 86.3125H124.514C124.456 86.0365 124.344 85.7839 124.178 85.5547C124.016 85.3255 123.803 85.1432 123.537 85.0078C123.272 84.8724 122.956 84.8047 122.592 84.8047C122.118 84.8047 121.704 84.9297 121.35 85.1797C121.001 85.4245 120.727 85.776 120.529 86.2344C120.331 86.6927 120.233 87.2344 120.233 87.8594C120.233 88.4896 120.329 89.0391 120.522 89.5078C120.714 89.9766 120.988 90.3385 121.342 90.5938C121.701 90.8438 122.118 90.9688 122.592 90.9688C123.081 90.9688 123.498 90.8333 123.842 90.5625C124.191 90.2917 124.415 89.9219 124.514 89.4531H126.17C126.113 90.0208 125.93 90.526 125.623 90.9688C125.316 91.4115 124.904 91.7604 124.389 92.0156C123.873 92.2708 123.272 92.3984 122.584 92.3984ZM130.064 92.4062C129.512 92.4062 129.012 92.3047 128.564 92.1016C128.116 91.8932 127.762 91.5911 127.502 91.1953C127.241 90.7995 127.111 90.3177 127.111 89.75C127.111 89.2552 127.205 88.8516 127.393 88.5391C127.585 88.2214 127.843 87.9688 128.166 87.7812C128.489 87.5938 128.848 87.4531 129.244 87.3594C129.64 87.2656 130.046 87.1927 130.463 87.1406C130.989 87.0833 131.413 87.0339 131.736 86.9922C132.059 86.9505 132.294 86.8854 132.439 86.7969C132.59 86.7031 132.666 86.5547 132.666 86.3516V86.3125C132.666 85.8177 132.525 85.4349 132.244 85.1641C131.968 84.8932 131.557 84.7578 131.01 84.7578C130.442 84.7578 129.991 84.8828 129.658 85.1328C129.33 85.3776 129.103 85.6562 128.978 85.9688L127.377 85.6016C127.57 85.0703 127.848 84.6432 128.213 84.3203C128.583 83.9922 129.004 83.7526 129.478 83.6016C129.958 83.4505 130.458 83.375 130.978 83.375C131.327 83.375 131.697 83.4167 132.088 83.5C132.478 83.5781 132.846 83.7266 133.189 83.9453C133.538 84.1589 133.822 84.4661 134.041 84.8672C134.26 85.2682 134.369 85.7865 134.369 86.4219V92.2188H132.705V91.0234H132.643C132.538 91.237 132.374 91.4505 132.15 91.6641C131.932 91.8776 131.65 92.0547 131.307 92.1953C130.963 92.3359 130.549 92.4062 130.064 92.4062ZM130.432 91.0469C130.906 91.0469 131.309 90.9557 131.643 90.7734C131.976 90.5859 132.231 90.3411 132.408 90.0391C132.585 89.737 132.674 89.4167 132.674 89.0781V87.9453C132.611 88.0026 132.494 88.0573 132.322 88.1094C132.15 88.1615 131.955 88.2057 131.736 88.2422C131.518 88.2786 131.304 88.3125 131.096 88.3438C130.887 88.3698 130.713 88.3906 130.572 88.4062C130.244 88.4531 129.945 88.526 129.674 88.625C129.403 88.7188 129.184 88.8594 129.018 89.0469C128.856 89.2292 128.775 89.4714 128.775 89.7734C128.775 90.1953 128.932 90.513 129.244 90.7266C129.557 90.9401 129.952 91.0469 130.432 91.0469ZM137.81 89.8281L141.662 83.4844H143.49V92.2188H141.834V85.8672L137.998 92.2188H136.162V83.4844H137.81V89.8281ZM139.81 82.4688C139.066 82.4688 138.461 82.2656 137.998 81.8594C137.534 81.4479 137.303 80.9141 137.303 80.2578H138.701C138.701 80.5911 138.803 80.862 139.006 81.0703C139.209 81.2734 139.477 81.375 139.81 81.375C140.144 81.375 140.412 81.2734 140.615 81.0703C140.818 80.862 140.92 80.5911 140.92 80.2578H142.318C142.318 80.9141 142.086 81.4479 141.623 81.8594C141.159 82.2656 140.555 82.4688 139.81 82.4688ZM144.205 84.9531V83.4844H151.556V84.9531H148.72V92.2188H147.056V84.9531H144.205ZM154.13 86.5H156.669C157.732 86.4948 158.55 86.7578 159.122 87.2891C159.701 87.8203 159.992 88.5052 159.997 89.3438C159.997 89.8906 159.867 90.3802 159.607 90.8125C159.346 91.2448 158.969 91.5885 158.474 91.8438C157.979 92.0938 157.378 92.2188 156.669 92.2188H152.857V83.4844H154.505V90.75H156.669C157.154 90.75 157.552 90.625 157.865 90.375C158.177 90.1198 158.336 89.7917 158.341 89.3906C158.336 88.9688 158.177 88.625 157.865 88.3594C157.552 88.0938 157.154 87.9635 156.669 87.9688H154.13V86.5ZM161.24 92.2188V83.4844H162.927V92.2188H161.24ZM164.533 95.1016L165.22 90.5469H167.048L165.759 95.1016H164.533ZM174.454 89.8281L178.306 83.4844H180.134V92.2188H178.478V85.8672L174.642 92.2188H172.806V83.4844H174.454V89.8281ZM187.825 87.1172V88.5859H183.098V87.1172H187.825ZM183.567 83.4844V92.2188H181.919V83.4844H183.567ZM189.012 83.4844V92.2188H187.356V83.4844H189.012ZM189.727 84.9531V83.4844H197.079V84.9531H194.243V92.2188H192.579V84.9531H189.727ZM201.731 92.3984C200.877 92.3984 200.137 92.2135 199.512 91.8438C198.887 91.474 198.405 90.9531 198.067 90.2812C197.734 89.6042 197.567 88.8151 197.567 87.9141C197.567 87.0182 197.731 86.2292 198.059 85.5469C198.392 84.8646 198.859 84.3333 199.458 83.9531C200.062 83.5677 200.77 83.375 201.583 83.375C202.077 83.375 202.556 83.4557 203.02 83.6172C203.484 83.7786 203.9 84.0339 204.27 84.3828C204.64 84.7318 204.931 85.1849 205.145 85.7422C205.364 86.2995 205.473 86.9714 205.473 87.7578V88.3672H198.528V87.0938H204.598L203.809 87.5156C203.809 86.9792 203.726 86.5052 203.559 86.0938C203.392 85.6823 203.142 85.362 202.809 85.1328C202.481 84.8984 202.072 84.7812 201.583 84.7812C201.093 84.7812 200.674 84.8984 200.325 85.1328C199.981 85.3672 199.718 85.6771 199.536 86.0625C199.353 86.4479 199.262 86.8698 199.262 87.3281V88.1953C199.262 88.7943 199.366 89.3021 199.575 89.7188C199.783 90.1354 200.072 90.4531 200.442 90.6719C200.817 90.8906 201.252 91 201.747 91C202.069 91 202.361 90.9531 202.622 90.8594C202.887 90.7656 203.116 90.625 203.309 90.4375C203.502 90.25 203.648 90.0182 203.747 89.7422L205.356 90.0469C205.226 90.5156 204.997 90.9271 204.668 91.2812C204.34 91.6354 203.926 91.9115 203.426 92.1094C202.931 92.3021 202.366 92.3984 201.731 92.3984ZM206.821 95.4844V83.4844H208.461V84.9062H208.602C208.706 84.724 208.849 84.513 209.032 84.2734C209.219 84.0339 209.479 83.8255 209.813 83.6484C210.146 83.4661 210.581 83.375 211.118 83.375C211.821 83.375 212.446 83.5521 212.993 83.9062C213.545 84.2604 213.979 84.7734 214.297 85.4453C214.615 86.1172 214.774 86.9271 214.774 87.875C214.774 88.8125 214.618 89.6198 214.305 90.2969C213.993 90.9688 213.56 91.487 213.008 91.8516C212.461 92.2109 211.834 92.3906 211.125 92.3906C210.599 92.3906 210.167 92.3021 209.828 92.125C209.495 91.9427 209.232 91.7318 209.039 91.4922C208.852 91.2526 208.706 91.0417 208.602 90.8594H208.508V95.4844H206.821ZM210.758 90.9453C211.263 90.9453 211.685 90.8099 212.024 90.5391C212.362 90.2682 212.618 89.901 212.789 89.4375C212.966 88.9688 213.055 88.4427 213.055 87.8594C213.055 87.2812 212.969 86.763 212.797 86.3047C212.625 85.8464 212.37 85.4844 212.032 85.2188C211.693 84.9531 211.269 84.8203 210.758 84.8203C210.263 84.8203 209.847 84.9479 209.508 85.2031C209.17 85.4531 208.912 85.8073 208.735 86.2656C208.563 86.7188 208.477 87.25 208.477 87.8594C208.477 88.4688 208.565 89.0052 208.743 89.4688C208.92 89.9323 209.177 90.2943 209.516 90.5547C209.86 90.8151 210.274 90.9453 210.758 90.9453ZM219.91 95.1953V80.5781H221.606V95.1953H219.91ZM219.91 92.3984C219.296 92.3984 218.733 92.2917 218.223 92.0781C217.718 91.8594 217.28 91.5521 216.91 91.1562C216.546 90.7604 216.262 90.2865 216.059 89.7344C215.861 89.1823 215.762 88.5703 215.762 87.8984C215.762 87.2214 215.861 86.6068 216.059 86.0547C216.262 85.4974 216.546 85.0182 216.91 84.6172C217.28 84.2161 217.718 83.9089 218.223 83.6953C218.733 83.4818 219.296 83.375 219.91 83.375H220.34V92.3984H219.91ZM219.91 90.9688H220.153V84.8047H219.91C219.369 84.8047 218.918 84.9479 218.559 85.2344C218.205 85.5208 217.936 85.8984 217.754 86.3672C217.577 86.8359 217.488 87.3464 217.488 87.8984C217.488 88.3151 217.538 88.7083 217.637 89.0781C217.736 89.4427 217.887 89.7682 218.09 90.0547C218.293 90.3359 218.546 90.5599 218.848 90.7266C219.15 90.888 219.504 90.9688 219.91 90.9688ZM221.606 92.3984H221.192V83.375H221.606C222.225 83.375 222.788 83.4818 223.293 83.6953C223.804 83.9089 224.241 84.2161 224.606 84.6172C224.975 85.0182 225.259 85.4974 225.457 86.0547C225.655 86.6068 225.754 87.2214 225.754 87.8984C225.754 88.5703 225.655 89.1823 225.457 89.7344C225.259 90.2865 224.975 90.7604 224.606 91.1562C224.241 91.5521 223.804 91.8594 223.293 92.0781C222.788 92.2917 222.225 92.3984 221.606 92.3984ZM221.606 90.9688C222.017 90.9688 222.374 90.888 222.676 90.7266C222.983 90.5599 223.236 90.3359 223.434 90.0547C223.637 89.7682 223.788 89.4427 223.887 89.0781C223.991 88.7083 224.043 88.3151 224.043 87.8984C224.043 87.3464 223.952 86.8359 223.77 86.3672C223.593 85.8984 223.324 85.5208 222.965 85.2344C222.606 84.9479 222.153 84.8047 221.606 84.8047H221.379V90.9688H221.606ZM230.898 92.3984C230.044 92.3984 229.305 92.2135 228.68 91.8438C228.055 91.474 227.573 90.9531 227.234 90.2812C226.901 89.6042 226.734 88.8151 226.734 87.9141C226.734 87.0182 226.898 86.2292 227.227 85.5469C227.56 84.8646 228.026 84.3333 228.625 83.9531C229.229 83.5677 229.938 83.375 230.75 83.375C231.245 83.375 231.724 83.4557 232.188 83.6172C232.651 83.7786 233.068 84.0339 233.438 84.3828C233.807 84.7318 234.099 85.1849 234.312 85.7422C234.531 86.2995 234.641 86.9714 234.641 87.7578V88.3672H227.695V87.0938H233.766L232.977 87.5156C232.977 86.9792 232.893 86.5052 232.727 86.0938C232.56 85.6823 232.31 85.362 231.977 85.1328C231.648 84.8984 231.24 84.7812 230.75 84.7812C230.26 84.7812 229.841 84.8984 229.492 85.1328C229.148 85.3672 228.885 85.6771 228.703 86.0625C228.521 86.4479 228.43 86.8698 228.43 87.3281V88.1953C228.43 88.7943 228.534 89.3021 228.742 89.7188C228.951 90.1354 229.24 90.4531 229.609 90.6719C229.984 90.8906 230.419 91 230.914 91C231.237 91 231.529 90.9531 231.789 90.8594C232.055 90.7656 232.284 90.625 232.477 90.4375C232.669 90.25 232.815 90.0182 232.914 89.7422L234.523 90.0469C234.393 90.5156 234.164 90.9271 233.836 91.2812C233.508 91.6354 233.094 91.9115 232.594 92.1094C232.099 92.3021 231.534 92.3984 230.898 92.3984ZM237.637 89.8281L241.488 83.4844H243.316V92.2188H241.66V85.8672L237.824 92.2188H235.988V83.4844H237.637V89.8281ZM239.637 82.4688C238.892 82.4688 238.288 82.2656 237.824 81.8594C237.361 81.4479 237.129 80.9141 237.129 80.2578H238.527C238.527 80.5911 238.629 80.862 238.832 81.0703C239.035 81.2734 239.303 81.375 239.637 81.375C239.97 81.375 240.238 81.2734 240.441 81.0703C240.644 80.862 240.746 80.5911 240.746 80.2578H242.144C242.144 80.9141 241.913 81.4479 241.449 81.8594C240.986 82.2656 240.381 82.4688 239.637 82.4688ZM248.765 92.3984C247.927 92.3984 247.203 92.2057 246.593 91.8203C245.984 91.4349 245.515 90.9036 245.187 90.2266C244.859 89.5495 244.695 88.7734 244.695 87.8984C244.695 87.0078 244.862 86.224 245.195 85.5469C245.534 84.8646 246.005 84.3333 246.609 83.9531C247.218 83.5677 247.932 83.375 248.75 83.375C249.416 83.375 250.008 83.4974 250.523 83.7422C251.044 83.9818 251.463 84.3229 251.781 84.7656C252.104 85.2083 252.294 85.724 252.351 86.3125H250.695C250.638 86.0365 250.526 85.7839 250.359 85.5547C250.198 85.3255 249.984 85.1432 249.718 85.0078C249.453 84.8724 249.138 84.8047 248.773 84.8047C248.299 84.8047 247.885 84.9297 247.531 85.1797C247.182 85.4245 246.909 85.776 246.711 86.2344C246.513 86.6927 246.414 87.2344 246.414 87.8594C246.414 88.4896 246.51 89.0391 246.703 89.5078C246.896 89.9766 247.169 90.3385 247.523 90.5938C247.883 90.8438 248.299 90.9688 248.773 90.9688C249.263 90.9688 249.679 90.8333 250.023 90.5625C250.372 90.2917 250.596 89.9219 250.695 89.4531H252.351C252.294 90.0208 252.112 90.526 251.804 90.9688C251.497 91.4115 251.086 91.7604 250.57 92.0156C250.054 92.2708 249.453 92.3984 248.765 92.3984ZM254.988 86.5H257.527C258.589 86.4948 259.407 86.7578 259.98 87.2891C260.558 87.8203 260.85 88.5052 260.855 89.3438C260.855 89.8906 260.725 90.3802 260.464 90.8125C260.204 91.2448 259.826 91.5885 259.332 91.8438C258.837 92.0938 258.235 92.2188 257.527 92.2188H253.714V83.4844H255.363V90.75H257.527C258.011 90.75 258.41 90.625 258.722 90.375C259.035 90.1198 259.194 89.7917 259.199 89.3906C259.194 88.9688 259.035 88.625 258.722 88.3594C258.41 88.0938 258.011 87.9635 257.527 87.9688H254.988V86.5ZM262.097 92.2188V83.4844H263.785V92.2188H262.097Z" fill="#8187F8"/>
<path d="M254.527 7.26562H255.23C259.892 7.26562 264.02 8.25532 267.613 10.2344C271.233 12.1875 274.072 14.961 276.129 18.5547C278.186 22.1224 279.215 26.3151 279.215 31.1328C279.215 35.7943 278.186 39.8568 276.129 43.3203C274.072 46.7838 271.233 49.4792 267.613 51.4062C264.02 53.3072 259.892 54.2578 255.23 54.2578H254.527V61.6406H242.887V54.2578H242.223C237.535 54.2578 233.381 53.3203 229.762 51.4453C226.142 49.5443 223.303 46.8619 221.246 43.3984C219.189 39.9089 218.16 35.8072 218.16 31.0938C218.16 26.2761 219.202 22.0833 221.285 18.5156C223.368 14.948 226.22 12.1875 229.84 10.2344C233.46 8.25526 237.587 7.26568 242.223 7.26562H242.887V0H254.527V7.26562ZM85.6045 0.234375C90.7607 0.234406 95.3962 1.40628 99.5107 3.75C103.625 6.06771 106.868 9.4662 109.237 13.9453C111.633 18.3984 112.831 23.8021 112.831 30.1562C112.831 36.4843 111.633 41.875 109.237 46.3281C106.868 50.7812 103.625 54.1797 99.5107 56.5234C95.3962 58.8411 90.7607 60 85.6045 60C80.4483 60 75.8128 58.8281 71.6982 56.4844C67.5837 54.1406 64.3284 50.7421 61.9326 46.2891C59.5368 41.8359 58.3389 36.4583 58.3389 30.1562C58.3389 23.8021 59.5368 18.3984 61.9326 13.9453C64.3284 9.46619 67.5837 6.06769 71.6982 3.75C75.8128 1.40631 80.4483 0.234375 85.6045 0.234375ZM312.711 0.234375C317.867 0.234435 322.503 1.40631 326.617 3.75C330.732 6.0677 333.974 9.46626 336.344 13.9453C338.74 18.3984 339.938 23.8022 339.938 30.1562C339.938 34.9865 339.238 39.27 337.842 43.0078C337.45 43.3593 336.986 43.8111 336.47 44.3262C336.391 44.1994 336.315 44.0817 336.241 43.9746H336.242C336.232 43.9598 336.221 43.9448 336.211 43.9297C336.198 43.9117 336.187 43.8933 336.175 43.876H336.174C335.469 42.863 333.915 41.198 331.33 41.1299V41.1289C331.322 41.1287 331.313 41.1301 331.305 41.1299C331.289 41.1295 331.273 41.1272 331.257 41.127L331.256 41.1289C329.203 41.0939 327.704 42.1026 326.847 42.9111L326.518 43.2197L326.251 43.583C325.922 44.0302 325.676 44.4785 325.491 44.874L325.359 45.1553L325.264 45.4521L325.202 45.6426C325.199 45.6528 325.199 45.6489 325.196 45.6582L325.192 45.6709L325.191 45.6748V45.6758L325.19 45.6768V45.6777L325.189 45.6797V45.6826L325.186 45.6943L325.185 45.6963V45.6982L325.184 45.7002H325.183V45.7031L325.182 45.7041V45.7061H325.181V45.707L325.038 46.1484L324.979 46.6104V46.6133H324.978L324.979 46.6162L324.978 46.6172V46.6191C324.977 46.6201 324.977 46.6273 324.977 46.6299C324.976 46.6306 324.974 46.6443 324.974 46.6465C324.973 46.648 324.973 46.6536 324.973 46.6553C324.972 46.6604 324.971 46.6615 324.971 46.667C324.968 46.6844 324.97 46.6721 324.968 46.6914C324.967 46.6941 324.966 46.704 324.966 46.7061C324.965 46.7089 324.965 46.7186 324.965 46.7207C324.963 46.7339 324.962 46.7393 324.96 46.7539C324.956 46.7826 324.948 46.8457 324.938 46.9199L324.763 47.2969L324.648 47.7217C324.561 48.0497 324.463 48.3649 324.356 48.667C324.255 48.9381 324.145 49.2606 324.058 49.6055C324.022 49.7458 323.926 50.1228 323.886 50.6348C323.866 50.6975 323.849 50.7565 323.833 50.8096C323.689 51.2985 323.536 51.8587 323.374 52.4814C323.254 52.9448 323.129 53.3842 323.007 53.8008L322.813 53.7715L322.88 54.2549L322.855 54.3643C322.643 55.3383 322.443 56.2984 322.253 57.2441L322.236 57.332C322.15 57.8035 322.072 58.212 322.008 58.5596C319.124 59.5174 316.026 60 312.711 60C307.555 60 302.919 58.828 298.805 56.4844C294.69 54.1407 291.435 50.7421 289.039 46.2891C286.643 41.8359 285.445 36.4583 285.445 30.1562C285.445 23.8021 286.643 18.3984 289.039 13.9453C291.435 9.46623 294.69 6.06768 298.805 3.75C302.919 1.40636 307.555 0.234375 312.711 0.234375ZM486.985 0.234375C492.142 0.234375 496.777 1.4063 500.892 3.75C505.006 6.0677 508.248 9.46618 510.618 13.9453C513.014 18.3984 514.212 23.8021 514.212 30.1562C514.212 36.4844 513.014 41.875 510.618 46.3281C508.248 50.7812 505.006 54.1797 500.892 56.5234C496.777 58.8411 492.142 60 486.985 60C481.829 60 477.194 58.8281 473.079 56.4844C468.965 54.1406 465.709 50.7421 463.313 46.2891C460.918 41.836 459.72 36.4583 459.72 30.1562C459.72 23.8021 460.918 18.3984 463.313 13.9453C465.709 9.4662 468.965 6.06771 473.079 3.75C477.194 1.40628 481.829 0.234403 486.985 0.234375ZM49.4531 59.2188H37.2656V11.0156H13.7891V59.2188H1.60156V1.01562H49.4531V59.2188ZM143.045 1.01562C147.446 1.01563 151.196 1.86198 154.295 3.55469C157.42 5.22135 159.803 7.53906 161.443 10.5078C163.11 13.4766 163.943 16.901 163.943 20.7812C163.943 24.6354 163.11 28.0339 161.443 30.9766C159.777 33.9193 157.355 36.224 154.178 37.8906C151.027 39.5312 147.212 40.3516 142.732 40.3516H132.381V59.2188H120.115V1.01562H143.045ZM215.72 11.1719H197.907V59.2188H185.759V11.1719H167.907V1.01562H215.72V11.1719ZM452.475 59.2188H440.209V57.7285C440.265 57.6569 440.322 57.5875 440.373 57.5186L440.506 57.3389L440.508 57.3369L441.735 55.668L441.662 55.1836C441.844 54.7109 442.036 54.0663 442.091 53.3076C442.155 52.6008 442.145 51.3332 441.415 50.042C441.387 49.9917 441.359 49.9416 441.329 49.8916C441.323 49.8823 441.317 49.8726 441.312 49.8633C441.035 49.4025 440.669 48.9563 440.209 48.5664V22.6172H439.74L428.881 38.3418C428.869 38.3406 428.858 38.3401 428.847 38.3389C428.831 38.3373 428.815 38.3345 428.799 38.333H428.798C427.531 38.207 426.318 38.5011 425.292 39.0977C424.85 39.3469 424.467 39.6322 424.181 39.8662C423.9 40.0569 423.634 40.2632 423.381 40.4775C423.101 39.2827 422.757 38.1465 422.335 37.0869C421.736 35.5842 420.864 34.2181 419.695 33.0703L441.693 1.01562H452.475V59.2188ZM388.399 58.7197C388.314 58.8889 388.224 59.0547 388.134 59.2188H388.133C388.223 59.0544 388.312 58.8882 388.398 58.7188L388.399 58.7197ZM346.296 58.8438C346.309 58.9656 346.318 59.0908 346.33 59.2188H346.329C346.318 59.0908 346.308 58.9656 346.296 58.8438ZM344.476 55.0928C344.344 55.1294 344.205 55.1932 344.058 55.2812V55.2803C344.205 55.1924 344.344 55.1293 344.476 55.0928ZM417.356 54.3223C417.282 54.4957 417.204 54.6663 417.124 54.835C417.203 54.6665 417.281 54.4955 417.355 54.3223C417.422 54.1736 417.487 54.0247 417.55 53.876C417.487 54.0246 417.423 54.1737 417.356 54.3223ZM410.94 52.3027L410.802 52.5264C410.851 52.4514 410.897 52.3767 410.939 52.3027C410.959 52.276 410.974 52.2474 410.988 52.2197C410.974 52.2472 410.96 52.2761 410.94 52.3027ZM388.807 52.3076C388.803 52.2943 388.799 52.2809 388.795 52.2676C388.694 52.3166 388.596 52.368 388.499 52.4219C388.596 52.3679 388.694 52.3156 388.795 52.2666C388.799 52.2801 388.803 52.2942 388.807 52.3076ZM395.503 34.8262C395.31 34.7529 395.109 34.6835 394.898 34.627C394.188 34.4197 393.346 34.2903 392.424 34.3721C392.22 34.3815 392.005 34.3967 391.782 34.4219L391.473 34.4629C391.406 34.4731 391.24 34.497 391.012 34.5508C390.96 34.5548 390.91 34.5605 390.861 34.5654C390.029 34.6213 389.324 34.8414 388.799 35.0605C388.844 35.0417 388.862 35.0354 388.822 35.0508C388.792 35.0622 388.745 35.0802 388.677 35.1055C388.542 35.1557 388.351 35.2258 388.102 35.3164C387.622 35.4903 387.143 35.664 386.664 35.8379C386.246 35.9709 385.87 36.0934 385.643 36.1758L385.563 36.2041L385.485 36.2344C384.852 36.4885 384.197 36.8203 383.55 37.1797V10.8594H367.456L366.519 31.1719C366.232 37.6823 365.464 43.0078 364.214 47.1484C364.158 47.3348 364.099 47.5182 364.04 47.7002C364.025 47.7016 364.011 47.7026 363.996 47.7041C363.125 47.7921 362.13 47.9917 361.147 48.4316L361.146 48.4307C360.868 48.554 360.575 48.6543 360.265 48.7295L360.246 48.7344C359.372 48.9496 358.477 49.259 357.588 49.6221V49.623C357.195 49.7827 356.735 50.0169 356.276 50.3584L355.917 50.0938L355.241 49.8477L354.804 49.7002C354.642 49.6498 354.465 49.5991 354.279 49.5557C354.084 49.51 353.402 49.3472 352.535 49.4131L352.153 49.4561C351.262 49.5914 350.619 49.933 350.341 50.0928C350.011 50.2823 349.756 50.4757 349.597 50.6045C349.473 50.7044 349.358 50.8057 349.253 50.9023C349.004 51.0993 348.784 51.3089 348.587 51.5225C348.369 51.3274 348.129 51.1399 347.864 50.9688C348.124 50.7016 348.453 50.3274 348.74 49.8672C349.133 49.238 349.38 48.5801 349.507 47.9229C349.996 47.5962 350.445 47.208 350.854 46.7578C352.157 45.3255 353.133 43.0208 353.784 39.8438C354.435 36.6406 354.865 32.3437 355.073 26.9531L356.05 1.01562H395.503V34.8262ZM387.671 50.7285C387.58 50.7491 387.488 50.7663 387.396 50.7803C387.303 50.7943 387.208 50.8125 387.11 50.834C387.013 50.8557 386.912 50.881 386.809 50.9102C386.684 50.9926 386.561 51.0786 386.438 51.167C386.561 51.0785 386.684 50.9917 386.809 50.9092C387.015 50.8508 387.211 50.8083 387.396 50.7803C387.488 50.7663 387.58 50.7482 387.671 50.7275V50.7285ZM85.6045 11.0938C82.6358 11.0938 80.0446 11.823 77.8311 13.2812C75.6175 14.7396 73.8857 16.8881 72.6357 19.7266C71.4118 22.5651 70.7998 26.0417 70.7998 30.1562C70.7998 34.2448 71.4118 37.7083 72.6357 40.5469C73.8857 43.3593 75.6175 45.4948 77.8311 46.9531C80.0446 48.4114 82.6358 49.1406 85.6045 49.1406C88.5992 49.1406 91.2035 48.4114 93.417 46.9531C95.6305 45.4948 97.3363 43.3593 98.5342 40.5469C99.7581 37.7083 100.37 34.2448 100.37 30.1562C100.37 26.0417 99.7581 22.5651 98.5342 19.7266C97.3363 16.8881 95.6305 14.7396 93.417 13.2812C91.2035 11.8229 88.5992 11.0938 85.6045 11.0938ZM312.711 11.0938C309.742 11.0938 307.151 11.823 304.938 13.2812C302.724 14.7396 300.992 16.8881 299.742 19.7266C298.518 22.5651 297.906 26.0417 297.906 30.1562C297.906 34.2448 298.518 37.7083 299.742 40.5469C300.992 43.3593 302.724 45.4948 304.938 46.9531C307.151 48.4113 309.742 49.1406 312.711 49.1406C315.706 49.1406 318.31 48.4114 320.523 46.9531C322.737 45.4948 324.443 43.3593 325.641 40.5469C326.865 37.7084 327.477 34.2447 327.477 30.1562C327.477 26.0417 326.865 22.5651 325.641 19.7266C324.443 16.8881 322.737 14.7396 320.523 13.2812C318.31 11.823 315.706 11.0938 312.711 11.0938ZM486.985 11.0938C484.017 11.0938 481.425 11.8229 479.212 13.2812C476.998 14.7396 475.267 16.8881 474.017 19.7266C472.793 22.5651 472.181 26.0417 472.181 30.1562C472.181 34.2448 472.793 37.7083 474.017 40.5469C475.267 43.3593 476.998 45.4948 479.212 46.9531C481.425 48.4114 484.017 49.1406 486.985 49.1406C489.98 49.1406 492.584 48.4114 494.798 46.9531C497.011 45.4948 498.717 43.3593 499.915 40.5469C501.139 37.7083 501.751 34.2448 501.751 30.1562C501.751 26.0417 501.139 22.5651 499.915 19.7266C498.717 16.8881 497.011 14.7396 494.798 13.2812C492.584 11.823 489.98 11.0938 486.985 11.0938ZM412.759 48.8311C412.712 48.8787 412.666 48.9278 412.621 48.9785V48.9775C412.666 48.9268 412.712 48.8777 412.759 48.8301V48.8311ZM329.873 47.7549C329.881 47.691 329.888 47.6329 329.895 47.5811L329.938 47.2471L329.938 47.2461C329.938 47.2461 329.917 47.4159 329.873 47.7549ZM331.184 46.126C331.265 46.1271 331.345 46.142 331.423 46.1689C331.345 46.1421 331.265 46.1282 331.185 46.127C331.035 46.1226 330.885 46.1553 330.733 46.2256V46.2246C330.884 46.1545 331.035 46.1217 331.184 46.126ZM418.909 46.167C418.914 46.1176 418.922 46.0688 418.932 46.0205L418.909 46.167ZM418.974 45.8555C418.989 45.8054 419.007 45.7558 419.028 45.707H419.029C419.008 45.7559 418.99 45.8053 418.974 45.8555ZM403.803 38.4492C404.093 39.2668 404.539 39.9917 405.07 40.5947L405.15 40.6875L405.235 40.7744C405.983 41.5442 407.062 42.3533 408.503 42.7354C407.937 43.1806 407.418 43.6721 406.944 44.2002C406.706 43.9303 406.44 43.6642 406.14 43.418C405.38 42.7949 404.562 42.3987 403.803 42.1396V38.4492ZM254.527 43.9844H255.309C257.808 43.9844 259.983 43.5025 261.832 42.5391C263.707 41.5755 265.152 40.1432 266.168 38.2422C267.21 36.3151 267.73 33.9453 267.73 31.1328C267.73 28.112 267.21 25.599 266.168 23.5938C265.152 21.5886 263.707 20.0781 261.832 19.0625C259.983 18.047 257.808 17.5391 255.309 17.5391H254.527V43.9844ZM242.223 17.5391C239.723 17.5391 237.522 18.0469 235.621 19.0625C233.746 20.0521 232.275 21.5496 231.207 23.5547C230.139 25.5599 229.592 28.073 229.566 31.0938C229.592 33.9583 230.139 36.3542 231.207 38.2812C232.301 40.1822 233.798 41.6146 235.699 42.5781C237.6 43.5156 239.775 43.9843 242.223 43.9844H242.887V17.5391H242.223ZM387.486 43.6455C387.381 43.7087 387.276 43.7746 387.172 43.8428C387.276 43.7747 387.38 43.7086 387.485 43.6455L387.82 43.4482C387.708 43.509 387.597 43.5748 387.486 43.6455ZM383.938 42.9307C383.907 42.9578 383.877 42.9854 383.848 43.0127C383.877 42.9855 383.907 42.9577 383.938 42.9307L384.146 42.751C384.076 42.8096 384.007 42.8697 383.938 42.9307ZM388.273 40.5732C387.955 40.6743 387.714 40.7547 387.549 40.8096C387.714 40.7546 387.955 40.6733 388.273 40.5723C388.785 40.3868 389.297 40.2021 389.808 40.0166C389.296 40.2021 388.785 40.3877 388.273 40.5732ZM408.822 37.291C408.83 37.2995 408.839 37.3071 408.848 37.3154C408.839 37.307 408.83 37.2996 408.821 37.291C408.783 37.2471 408.748 37.2021 408.715 37.1572C408.748 37.2021 408.784 37.247 408.822 37.291ZM415.788 36.2725C415.884 36.3513 415.978 36.4332 416.068 36.5176V36.5186C415.977 36.4343 415.884 36.3523 415.788 36.2734C415.737 36.2286 415.685 36.1845 415.632 36.1416C415.685 36.1844 415.737 36.2278 415.788 36.2725ZM409.381 35.3779C409.308 35.4278 409.235 35.482 409.163 35.54V35.5391C409.235 35.481 409.308 35.4268 409.381 35.377V35.3779ZM411.754 34.6807C411.966 34.7022 412.187 34.7562 412.416 34.8428L412.415 34.8438C412.186 34.7572 411.966 34.7024 411.754 34.6807ZM416.068 30.6875C415.276 30.3704 414.459 30.1442 413.646 29.9863C412.592 29.6711 411.366 29.5435 410.063 29.8311L410.04 29.8359C409.443 29.9707 408.859 30.1483 408.288 30.3643C407.42 30.6781 406.665 31.1312 406.023 31.6484C405.558 32.0236 405.075 32.4671 404.636 32.9873L403.803 33.9736V1.01562H416.068V30.6875ZM132.381 30.5078H140.74C143.11 30.5078 145.063 30.0911 146.6 29.2578C148.162 28.4245 149.321 27.2786 150.076 25.8203C150.857 24.362 151.248 22.6823 151.248 20.7812C151.248 18.8281 150.857 17.1354 150.076 15.7031C149.321 14.2448 148.162 13.112 146.6 12.3047C145.037 11.4974 143.071 11.0938 140.701 11.0938H132.381V30.5078ZM418.938 45.9922C418.947 45.9497 418.958 45.9078 418.971 45.8662C418.958 45.9078 418.947 45.9497 418.938 45.9922Z" fill="#8187F8"/>
<path d="M325.072 73.2721C324.697 73.1132 324.481 72.9304 324.422 72.7234C324.368 72.5429 324.378 72.1638 324.452 71.5861C324.374 71.2474 324.339 70.929 324.347 70.631C324.383 70.329 324.405 70.1232 324.416 70.0138C324.547 69.9937 324.614 69.9026 324.617 69.7405C324.619 69.5783 324.612 69.4444 324.596 69.339C324.564 69.1281 324.589 68.7601 324.671 68.2352C324.78 67.7062 324.86 67.1681 324.912 66.6208C325.043 66.0615 325.166 65.5437 325.283 65.0675C325.422 64.5609 325.483 64.2549 325.467 64.1494C325.435 63.9385 325.456 63.7196 325.529 63.4927C325.599 63.2394 325.683 62.9973 325.783 62.7663C325.867 62.4299 325.907 62.0732 325.904 61.6961C325.923 61.2886 325.916 60.9794 325.884 60.7685C325.99 60.4017 326.106 60.0066 326.23 59.5831C326.355 59.1596 326.438 58.729 326.479 58.2911C326.569 57.8189 326.695 57.1389 326.857 56.2512C327.041 55.3332 327.237 54.3999 327.443 53.4515C327.605 52.9145 327.762 52.3512 327.915 51.7615C328.068 51.1718 328.207 50.6653 328.332 50.2418C328.456 49.8183 328.558 49.6005 328.637 49.5885C328.637 49.5885 328.631 49.549 328.619 49.4699C328.603 49.3644 328.587 49.259 328.571 49.1535C328.551 49.0217 328.618 48.7552 328.773 48.3541C328.924 47.9266 329.06 47.4879 329.18 47.038C329.384 46.6025 329.512 46.2054 329.566 45.8467C329.615 45.4615 329.64 45.269 329.64 45.269C329.64 45.269 329.667 45.1839 329.722 45.0137C329.804 44.8395 329.889 44.6917 329.979 44.5702C330.285 44.2809 330.588 44.1405 330.886 44.1492C331.21 44.1539 331.512 44.3643 331.791 44.7805C332.066 45.1703 332.212 45.5122 332.23 45.8062C332.244 46.0739 332.169 46.3819 332.006 46.7303C331.867 47.2369 331.682 47.8853 331.452 48.6756C331.217 49.4395 330.966 50.2733 330.699 51.177C330.454 52.0503 330.218 52.8953 329.991 53.7119C329.787 54.4982 329.622 55.1841 329.495 55.7698C329.39 56.3251 329.348 56.6687 329.368 56.8005L328.353 61.0409C328.361 61.0937 328.328 61.2335 328.255 61.4604C328.208 61.6833 328.137 62.0177 328.043 62.4636C327.975 62.9054 327.888 63.4851 327.781 64.2026C327.674 64.9201 327.55 65.7886 327.408 66.8081C327.137 68.5755 326.929 69.9558 326.783 70.949C326.633 71.9158 326.492 72.5845 326.359 72.9553C326.257 73.3484 326.114 73.559 325.929 73.587C325.824 73.603 325.697 73.5683 325.549 73.4829C325.432 73.4198 325.273 73.3496 325.072 73.2721ZM339.08 71.4686C338.847 71.531 338.499 71.4624 338.037 71.2629C337.606 71.0856 337.125 70.8485 336.594 70.5515C336.09 70.2504 335.597 69.9342 335.115 69.6028C334.66 69.2674 334.291 68.9727 334.01 68.7187C333.496 68.1764 332.849 67.4655 332.068 66.5861C331.283 65.6803 330.646 64.6846 330.158 63.599C329.845 62.7834 329.56 62.1523 329.304 61.7057C329.043 61.2328 328.862 60.8422 328.762 60.5338L328.381 57.7596L330.494 58.0861C330.842 59.4897 331.22 60.6461 331.627 61.5552C332.058 62.4339 332.524 63.1991 333.028 63.8509C333.448 64.4884 333.908 65.1198 334.408 65.7452C334.904 66.3443 335.409 66.8339 335.926 67.214C336.632 67.781 337.247 68.1867 337.769 68.431C338.292 68.6753 338.672 68.7795 338.909 68.7434C339.045 68.7498 339.244 68.814 339.505 68.9362C339.792 69.0543 340.056 69.1897 340.295 69.3422C340.556 69.4644 340.712 69.6025 340.762 69.7567C340.801 69.8318 340.832 69.9484 340.856 70.1066C340.884 70.2912 340.882 70.4534 340.849 70.5932C340.846 70.7554 340.825 70.88 340.784 70.9671C340.733 71.1637 340.612 71.3439 340.421 71.5078C340.261 71.694 339.814 71.6809 339.08 71.4686ZM327.994 58.142L330.562 55.6077C330.63 55.5166 330.866 55.2109 331.273 54.6906C331.706 54.1664 332.425 53.3963 333.43 52.3805L337.694 47.6872C338.301 47.2444 338.907 46.7073 339.513 46.0759C340.145 45.4405 340.627 44.9762 340.96 44.6828C341.36 44.2984 341.714 43.9615 342.02 43.6722C342.327 43.3829 342.535 43.2434 342.645 43.2537C342.84 43.1162 343.057 43.1238 343.295 43.2763C343.557 43.3984 343.775 43.5945 343.951 43.8645C344.149 44.1041 344.251 44.3314 344.257 44.5463C344.35 44.802 344.331 45.0341 344.201 45.2426C344.071 45.4512 343.729 45.7729 343.174 46.2077C342.709 46.5211 342.297 46.8264 341.938 47.1237C341.605 47.4171 341.411 47.6488 341.355 47.819C341.355 47.819 341.135 48.0548 340.694 48.5263C340.276 48.9675 339.724 49.5098 339.04 50.1531C338.089 50.9988 337.278 51.7828 336.605 52.5053C335.959 53.2238 335.555 53.7572 335.392 54.1056C335.286 54.1216 335.187 54.1772 335.093 54.2723C335.026 54.3634 334.938 54.4038 334.829 54.3934C334.829 54.3934 334.733 54.4754 334.542 54.6392C334.378 54.799 334.253 54.9529 334.167 55.1007C334.134 55.2406 334.044 55.4431 333.895 55.7084C333.773 55.9697 333.578 56.1072 333.311 56.1209C333.142 56.2544 332.847 56.5285 332.424 56.9433C331.998 57.3317 331.551 57.7637 331.083 58.2393C330.643 58.7108 330.262 59.1328 329.941 59.5052C329.619 59.8776 329.45 60.0922 329.431 60.1489L327.994 58.142ZM344.267 76.9116C343.662 77.1923 342.968 77.3247 342.183 77.309C341.429 77.3156 340.749 77.1896 340.143 76.931C339.511 76.6763 339.124 76.3441 338.98 75.9342C338.93 75.7801 338.957 75.6007 339.061 75.3961C339.138 75.1955 339.263 75.0417 339.436 74.9346C339.586 74.8578 339.739 74.8885 339.895 75.0267C340.125 75.1265 340.532 75.2266 341.113 75.3271C341.699 75.454 342.325 75.3994 342.99 75.1635C343.577 74.9396 344.116 74.4936 344.608 73.8255C345.126 73.1534 345.532 72.5389 345.825 71.9819C345.988 71.6335 346.257 71.0126 346.634 70.1193C347.011 69.2259 347.389 68.2514 347.768 67.1959C348.17 66.11 348.491 65.1172 348.732 64.2174C348.779 63.9945 348.833 63.73 348.895 63.424C348.956 63.118 349.052 62.8607 349.182 62.6521C349.292 62.3117 349.38 62.0017 349.445 61.7221C349.533 61.412 349.582 61.2023 349.593 61.0928C349.599 60.957 349.678 60.6753 349.828 60.2478C349.979 59.8203 350.117 59.3949 350.241 58.9714C350.313 58.5559 350.423 57.9458 350.57 57.1412C350.718 56.3366 350.887 55.677 351.079 55.1624C351.303 54.508 351.48 53.9822 351.608 53.5851C351.759 53.1576 351.947 52.8863 352.172 52.7712C352.382 52.5506 352.526 52.4343 352.605 52.4223C352.71 52.4063 352.92 52.4553 353.234 52.5695C353.599 52.8378 353.844 53.1242 353.972 53.4285C354.095 53.7065 354.111 54.0816 354.021 54.5539C353.953 54.9957 353.778 55.6158 353.494 56.414C353.38 57.0788 353.23 57.6948 353.047 58.2622C352.886 58.7991 352.751 59.1567 352.643 59.3349C352.559 59.6713 352.455 60.0512 352.331 60.4747C352.229 60.8678 352.136 61.2326 352.052 61.569C351.738 62.6956 351.459 63.6145 351.216 64.3257C350.974 65.0368 350.763 65.6893 350.583 66.283C350.403 66.8766 350.225 67.5646 350.047 68.3468C349.589 69.4144 349.135 70.4272 348.688 71.3853C348.27 72.3658 347.803 73.2864 347.286 74.147C347.059 74.4243 346.771 74.7512 346.424 75.1276C346.076 75.5041 345.712 75.8561 345.33 76.1838C344.974 76.5075 344.62 76.7501 344.267 76.9116ZM348.165 66.6097C347.761 66.617 347.33 66.4398 346.87 66.078C346.437 65.7123 346.079 65.3081 345.796 64.8656C345.513 64.423 345.382 64.0923 345.403 63.8734C345.383 63.7416 345.366 63.6361 345.354 63.557C345.342 63.4779 345.336 63.4384 345.336 63.4384C345.178 63.4624 345.003 63.2867 344.811 62.9112C344.646 62.5318 344.489 62.0297 344.34 61.4049C344.191 60.7802 344.049 60.1139 343.915 59.4061C343.807 58.6942 343.731 58.0179 343.688 57.3772C343.725 56.913 343.704 56.4172 343.624 55.8899C343.54 55.3363 343.487 54.8993 343.465 54.5789C343.375 54.1611 343.372 53.8782 343.458 53.7304C343.539 53.5562 343.627 53.4216 343.72 53.3264C344.41 52.898 344.928 53.0216 345.273 53.6974C345.641 54.3429 345.903 55.6247 346.06 57.543C346.167 58.6056 346.327 59.6602 346.54 60.7067C346.753 61.7533 347.038 62.654 347.395 63.4089C347.779 64.1598 348.217 64.6463 348.709 64.8682C348.91 64.9456 349.024 65.0766 349.052 65.2612C349.08 65.4457 349.058 65.6515 348.984 65.8784C348.907 66.079 348.786 66.2592 348.621 66.419C348.479 66.5485 348.327 66.6121 348.165 66.6097ZM355.666 66.9677C355.552 66.9309 355.391 66.8475 355.183 66.7173C355 66.5832 354.831 66.447 354.675 66.3088C354.584 66.2418 354.508 66.1859 354.448 66.1411C354.383 66.07 354.322 66.0253 354.265 66.007C354.237 65.8224 354.257 65.6846 354.324 65.5935C354.418 65.4984 354.509 65.3901 354.598 65.2686C354.68 65.0944 354.839 64.9893 355.076 64.9533C355.314 64.9172 355.488 64.8233 355.6 64.6715C356.023 64.2567 356.456 63.8267 356.901 63.3815C357.346 62.9363 357.702 62.4373 357.969 61.8843C358.258 61.301 358.541 60.6781 358.818 60.0157C359.095 59.3532 359.36 58.706 359.615 58.0739C359.693 57.8733 359.814 57.5178 359.979 57.0072C360.144 56.4966 360.298 56.0012 360.441 55.521C360.606 55.0104 360.688 54.6608 360.687 54.4722C360.437 54.4292 360.203 54.3973 359.984 54.3766C359.788 54.3255 359.593 54.2876 359.401 54.2629C359.107 53.9299 358.943 53.739 358.909 53.6902C358.871 53.6151 358.819 53.3667 358.755 52.9449C358.707 52.6285 358.849 52.4047 359.179 52.2736C359.916 51.9729 360.57 51.7522 361.142 51.6114C361.741 51.4666 362.318 51.2711 362.874 51.0248C363.227 50.8633 363.669 50.7557 364.2 50.702C364.732 50.6483 365.277 50.6868 365.836 50.8177C366.09 50.8871 366.307 50.9889 366.489 51.1231C366.672 51.2572 366.845 51.4198 367.009 51.6107C367.423 52.0332 367.657 52.4158 367.709 52.7585C367.787 53.0973 367.824 53.4288 367.819 53.7532C367.815 54.0776 367.908 54.4275 368.1 54.803C368.024 55.5428 367.935 56.2036 367.835 56.7853C367.73 57.3406 367.635 57.8675 367.549 58.3661C367.459 58.8383 367.378 59.2822 367.306 59.6977C367.234 60.1132 367.189 60.5246 367.17 60.9321C367.128 61.37 367.061 61.8118 366.967 62.2577C366.872 62.7035 366.82 63.1565 366.809 63.6167C366.808 63.9675 366.688 64.242 366.448 64.4402C366.235 64.6344 365.993 64.8194 365.723 64.9953C365.622 65.0377 365.433 65.0393 365.158 65.0003C364.905 64.9309 364.658 64.8199 364.419 64.6674C364.296 64.3894 364.23 64.1297 364.22 63.8884C364.211 63.6472 364.227 63.4019 364.27 63.1526C364.317 62.9297 364.39 62.4331 364.489 61.6628C364.588 60.8926 364.699 60.0261 364.823 59.0633C364.946 58.1005 365.067 57.2056 365.184 56.3787C365.301 55.5517 365.375 54.974 365.406 54.6457C365.474 54.2038 365.465 53.8814 365.381 53.6785C365.322 53.4716 365.253 53.2799 365.172 53.1033C364.586 52.9765 364.194 52.9686 363.995 53.0798C363.818 53.1605 363.589 53.2493 363.307 53.346C363.191 53.4715 363.104 53.6062 363.045 53.75C362.986 53.8938 362.953 54.0337 362.947 54.1695C362.773 54.9781 362.614 55.6225 362.472 56.1027C362.355 56.579 362.233 57.0156 362.104 57.4127C361.972 57.7835 361.819 58.1978 361.645 58.6557C361.499 59.1095 361.31 59.7316 361.079 60.5218C360.94 61.0284 360.743 61.5035 360.486 61.947C360.257 62.3865 360.057 62.8484 359.888 63.3326L359.537 63.9523C359.563 63.9483 359.474 64.0698 359.268 64.3167C359.063 64.5637 358.858 64.8106 358.653 65.0576C358.474 65.3005 358.384 65.422 358.384 65.422L357.303 66.5573C357.187 66.6827 356.971 66.7695 356.654 66.8175C356.338 66.8656 356.008 66.9156 355.666 66.9677ZM374.025 63.5729C373.692 63.5155 373.339 63.5016 372.966 63.5313C372.589 63.5346 372.249 63.4245 371.945 63.2009C371.55 62.9102 371.227 62.5548 370.974 62.1346C370.744 61.6841 370.645 61.2135 370.679 60.7229C370.714 60.4209 370.711 60.1381 370.671 59.8744C370.627 59.5844 370.651 59.2976 370.743 59.0139C370.725 58.7199 370.751 58.4463 370.821 58.193C370.886 57.9133 370.951 57.6337 371.017 57.354C371.133 56.8778 371.224 56.4056 371.287 55.9373C371.377 55.4651 371.496 55.0021 371.643 54.5482C371.914 53.6709 372.216 52.8159 372.548 51.9833C372.906 51.1466 373.208 50.2916 373.453 49.4183C373.527 49.1914 373.625 49.0415 373.749 48.9688C373.895 48.8657 374.047 48.8021 374.206 48.7781C374.416 48.7461 374.633 48.7536 374.856 48.8006C375.079 48.8477 375.274 48.8856 375.44 48.9143C375.555 49.1396 375.704 49.3193 375.886 49.4535C376.068 49.5876 376.155 49.8037 376.146 50.1017C375.857 50.6851 375.583 51.2796 375.325 51.8853C375.088 52.4606 374.854 53.0491 374.622 53.6508C374.412 54.2221 374.206 54.8198 374.004 55.4439C373.879 55.8674 373.799 56.3112 373.761 56.7754C373.724 57.2397 373.643 57.6835 373.518 58.107C373.398 58.5568 373.334 59.0251 373.327 59.5116C373.316 59.9718 373.279 60.436 373.215 60.9043C373.208 61.0401 373.228 61.1719 373.275 61.2997C373.344 61.3972 373.448 61.4623 373.588 61.495C373.937 61.3071 374.288 61.1324 374.641 60.9709C374.994 60.8094 375.298 60.588 375.552 60.3067C376.015 59.8048 376.381 59.3716 376.649 59.0072C376.913 58.6164 377.106 58.1961 377.226 57.7462C377.343 57.27 377.386 56.67 377.357 55.9461C377.36 55.7839 377.325 55.6409 377.252 55.5171C377.175 55.3669 377.076 55.2471 376.954 55.1577C376.701 55.0883 376.459 55.0037 376.228 54.9039C376.02 54.7737 375.849 54.6243 375.715 54.4558C375.604 54.2569 375.568 54.0196 375.607 53.744C375.656 53.3589 375.827 53.0632 376.12 52.857C376.438 52.6467 376.745 52.5328 377.039 52.5151C377.095 52.5335 377.139 52.5538 377.169 52.5762C377.226 52.5945 377.272 52.6281 377.306 52.6768C377.533 52.7502 377.766 52.8632 378.005 53.0157C378.24 53.1419 378.446 53.2589 378.624 53.3667C378.774 53.6407 378.967 53.935 379.204 54.2497C379.44 54.5644 379.613 55.0777 379.721 55.7896C379.945 57.266 379.732 58.5256 379.081 59.5685C378.456 60.6073 377.563 61.5656 376.402 62.4432C376.233 62.5767 376.048 62.6858 375.845 62.7706C375.664 62.825 375.505 62.9301 375.367 63.0859C375.336 63.0636 375.22 63.0948 375.017 63.1795C374.81 63.2379 374.605 63.3095 374.402 63.3942C374.199 63.479 374.073 63.5386 374.025 63.5729ZM388.497 50.2897C387.693 50.6814 387.008 51.2306 386.441 51.937C385.87 52.6171 385.399 53.3359 385.028 54.0935C384.636 54.8814 384.337 55.6685 384.133 56.4547C383.955 57.237 383.84 57.9017 383.788 58.449C383.748 59.0754 383.843 59.5196 384.071 59.7816C384.322 60.0132 384.61 60.1314 384.934 60.1361C385.312 60.1327 385.686 60.022 386.057 59.8037C386.425 59.5591 386.641 59.297 386.707 59.0173C387.221 58.3189 387.686 57.5605 388.101 56.7422C388.542 55.92 388.819 54.9879 388.93 53.946C389.068 52.9001 388.924 51.6813 388.497 50.2897ZM395.021 40.2362C394.853 40.3697 394.743 40.5347 394.692 40.7313C394.641 40.9278 394.394 40.9922 393.952 40.9245C393.59 40.8447 393.344 40.7337 393.214 40.5915C393.107 40.419 392.989 40.2616 392.859 40.1195C392.752 39.9469 392.51 39.8623 392.133 39.8656C391.506 39.8259 390.897 39.9859 390.304 40.3456C389.734 40.675 389.149 40.9121 388.551 41.0569C388.085 41.1817 387.63 41.3855 387.187 41.6685C386.767 41.9211 386.353 42.2133 385.945 42.545C385.943 42.7072 385.972 42.8106 386.033 42.8554C386.12 42.8961 386.18 42.9408 386.215 42.9895C386.276 43.0342 386.351 43.0901 386.443 43.1572C386.773 43.3768 387.191 43.7314 387.696 44.221C388.229 44.7066 388.766 45.3129 389.308 46.0397C389.85 46.7666 390.329 47.611 390.744 48.5728C391.156 49.5082 391.395 50.5508 391.462 51.7005C391.541 52.9293 391.341 54.2812 390.864 55.7562C390.409 57.2009 389.554 58.7603 388.297 60.4346C387.712 61.1978 387.264 61.7109 386.953 61.9738C386.639 62.2104 386.389 62.3427 386.204 62.3707C386.016 62.3724 385.833 62.4136 385.657 62.4944C385.454 62.5791 385.256 62.6091 385.064 62.5844C384.867 62.5334 384.667 62.5502 384.464 62.635C383.656 62.4611 383.052 62.2156 382.653 61.8985C382.281 61.5775 381.847 61.1174 381.351 60.5184C381.13 59.7698 381.058 59.1199 381.136 58.5686C381.21 57.9909 381.343 57.4447 381.535 56.9302C381.722 56.3892 381.877 55.8127 382 55.2006C382.165 55.0408 382.246 54.8666 382.245 54.678C382.243 54.4895 382.328 54.2474 382.498 53.9517C382.588 53.8302 382.696 53.652 382.822 53.4171C382.944 53.1558 383.044 52.9249 383.121 52.7243C383.453 51.8917 383.924 51.1728 384.533 50.5678C385.165 49.9324 385.824 49.3873 386.51 48.9325C386.717 48.8741 386.913 48.8309 387.098 48.8029C387.282 48.7749 387.465 48.7336 387.645 48.6793C387.458 47.9794 387.084 47.2944 386.524 46.6243C385.96 45.9278 385.394 45.3124 384.828 44.7781C384.261 44.2437 383.826 43.8648 383.522 43.6412C383.492 43.6188 383.371 43.4483 383.161 43.1295C382.977 42.8068 382.832 42.5592 382.725 42.3867C382.811 41.8881 383.116 41.4102 383.64 40.953C384.186 40.4655 384.784 40.051 385.434 39.7096C386.079 39.3419 386.618 39.0713 387.05 38.8978C387.178 38.8514 387.486 38.7506 387.975 38.5954C388.486 38.4099 388.998 38.2244 389.509 38.0389C390.02 37.8533 390.327 37.7394 390.428 37.697C390.631 37.6123 390.813 37.571 390.976 37.5734C391.16 37.5454 391.309 37.5497 391.423 37.5864C391.646 37.6335 391.74 37.6327 391.705 37.5839C391.667 37.5088 391.74 37.4573 391.925 37.4293C392.083 37.4052 392.269 37.3904 392.484 37.3847C392.722 37.3487 392.982 37.3766 393.266 37.4684C393.545 37.5338 393.856 37.7159 394.198 38.0146C394.48 38.2685 394.679 38.4271 394.797 38.4901C394.94 38.5492 395.032 38.7106 395.072 38.9742C395.062 39.0837 395.06 39.2459 395.065 39.4608C395.067 39.6493 395.052 39.9078 395.021 40.2362ZM398.5 60.7463C397.34 60.9225 396.325 60.6316 395.455 59.8736C394.581 59.0894 394.057 58.0361 393.883 56.7139C393.791 55.7567 393.822 54.7137 393.974 53.5847C394.149 52.4254 394.437 51.3027 394.838 50.2168C395.236 49.1045 395.706 48.116 396.249 47.2514C396.792 46.3867 397.395 45.7422 398.059 45.3177C398.303 45.1458 398.564 44.9983 398.842 44.8752C399.146 44.7481 399.456 44.6605 399.773 44.6125C400.063 44.5684 400.374 44.5751 400.706 44.6325C401.035 44.6636 401.312 44.7158 401.539 44.7892C402.015 44.9057 402.392 45.0778 402.67 45.3054C402.947 45.533 403.22 45.9096 403.488 46.4353C403.644 46.9242 403.737 47.2741 403.769 47.485C403.801 47.6959 403.783 48.0223 403.716 48.4641C403.543 49.4613 403.259 50.3407 402.862 51.1022C402.465 51.8637 401.881 52.5459 401.109 53.1485C400.918 53.3124 400.684 53.4559 400.406 53.579C400.15 53.6718 399.878 53.7402 399.588 53.7842C399.06 53.8643 398.532 53.8501 398.003 53.7416C397.497 53.6027 397.068 53.3576 396.718 53.0062L396.393 52.7318L396.323 53.0662C396.167 53.8181 396.056 54.5092 395.99 55.1396C395.951 55.766 395.969 56.3297 396.045 56.8306C396.093 57.147 396.165 57.4462 396.262 57.7282C396.385 58.0062 396.529 58.2406 396.692 58.4315C396.822 58.5737 397.011 58.6663 397.261 58.7094C397.532 58.7221 397.813 58.7064 398.103 58.6624C398.288 58.6343 398.472 58.6063 398.657 58.5783C398.864 58.5199 399.053 58.4371 399.226 58.33C399.65 58.1038 399.98 57.8784 400.216 57.6538C400.478 57.4252 400.738 57.1834 400.996 56.9284L401.142 56.8253L401.102 56.8313C401.395 56.6251 401.647 56.4249 401.861 56.2307C402.1 56.0324 402.22 55.9333 402.22 55.9333C402.326 55.9173 402.421 55.8354 402.506 55.6876C402.701 55.5501 402.971 55.5496 403.315 55.6861C403.686 55.8186 403.894 56.0299 403.938 56.3199C403.931 56.4557 403.845 56.6846 403.678 57.0067C403.507 57.3023 403.308 57.5888 403.08 57.8661C402.879 58.1395 402.701 58.3013 402.547 58.3517C402.524 58.3821 402.44 58.4488 402.294 58.5519C402.144 58.6287 402.046 58.6974 402.002 58.7581L402.041 58.7521C401.852 59.1045 401.639 59.2988 401.401 59.3348L401.085 59.3828C401.008 59.5834 400.697 59.8464 400.153 60.1717C399.605 60.4707 399.054 60.6622 398.5 60.7463ZM398.959 51.7758C399.433 51.7038 399.822 51.5099 400.125 51.1942C400.45 50.8481 400.718 50.4837 400.93 50.1009C401.349 49.309 401.548 48.5775 401.527 47.9064C401.528 47.2049 401.377 46.7424 401.074 46.5187C400.903 46.4637 400.752 46.4461 400.621 46.4662C400.511 46.4558 400.293 46.5294 399.966 46.6869C399.737 46.7757 399.438 47.0234 399.068 47.4302C398.698 47.837 398.334 48.2834 397.976 48.7692C397.645 49.2511 397.396 49.6531 397.229 49.9751L396.841 50.8837C397.04 50.7726 397.232 50.703 397.416 50.675C397.623 50.6166 397.744 50.6117 397.778 50.6605C397.814 50.8977 397.888 51.1158 397.999 51.3147C398.132 51.4833 398.273 51.6103 398.421 51.6957C398.595 51.7771 398.774 51.8038 398.959 51.7758ZM411.742 58.3715C411.667 58.4098 411.476 58.3983 411.17 58.3369C410.86 58.2491 410.52 58.139 410.149 58.0065C409.801 57.8436 409.52 57.6839 409.308 57.5274C409.057 57.2957 408.819 57.0621 408.594 56.8265C408.392 56.5605 408.263 56.243 408.207 55.8739C407.962 55.5064 407.795 55.1138 407.704 54.696C407.636 54.2478 407.557 53.8148 407.467 53.3969C407.34 52.7418 407.383 52.0475 407.595 51.314C407.804 50.5541 407.974 49.9888 408.106 49.618C408.182 49.2289 408.374 48.7143 408.681 48.0742C409.011 47.4038 409.435 46.7325 409.953 46.0604C410.472 45.3883 411.036 44.8441 411.647 44.4276C412.037 44.1526 412.433 43.9172 412.835 43.7213C413.259 43.4951 413.777 43.4434 414.389 43.5662C414.691 43.6013 414.918 43.6747 415.07 43.7865C415.222 43.8983 415.387 44.0081 415.565 44.1159C415.752 43.9257 415.865 43.5174 415.905 42.891C415.967 42.2342 415.951 41.5084 415.857 40.7134C415.786 39.8881 415.628 39.1164 415.385 38.3982C415.163 37.6497 414.847 37.0773 414.436 36.6812C413.671 35.9072 412.886 35.4465 412.082 35.2989C411.277 35.1514 410.419 35.3626 409.508 35.9325C409.171 35.8488 408.843 35.6423 408.524 35.3133C408.23 34.9802 408.108 34.6211 408.158 34.236C408.341 34.0194 408.576 33.7948 408.865 33.5622C409.153 33.3296 409.451 33.163 409.76 33.0622C410.117 32.9271 410.478 32.8183 410.843 32.7359C411.234 32.6494 411.659 32.6928 412.117 32.8661C413.556 33.1061 414.68 33.5827 415.49 34.2959C416.322 34.9787 416.956 35.867 417.391 36.9606C417.827 38.0543 418.184 39.3353 418.461 40.8037C418.577 41.2175 418.649 41.5978 418.674 41.9445C418.722 42.2609 418.765 42.8074 418.802 43.5839C418.59 43.9667 418.547 44.3914 418.672 44.8579C418.819 45.2941 418.83 45.724 418.706 46.1474C418.747 46.5996 418.698 46.9848 418.557 47.3028C418.417 47.6208 418.367 47.9117 418.407 48.1753C418.132 49.5656 417.682 50.9555 417.057 52.3451C416.459 53.7307 415.715 54.963 414.827 56.0419C413.939 57.1208 412.911 57.8973 411.742 58.3715ZM411.114 55.837C411.394 55.9024 411.773 55.7369 412.253 55.3404C412.728 54.9176 413.2 54.3874 413.67 53.7496C414.135 53.0855 414.513 52.4618 414.802 51.8785C414.906 51.6739 415.031 51.3447 415.178 50.8908C415.351 50.433 415.5 49.9923 415.624 49.5688C415.775 49.1413 415.856 48.8728 415.866 48.7634C416.003 48.0682 416.041 47.4287 415.979 46.8446C415.94 46.2303 415.814 45.8448 415.601 45.6883C415.259 45.3896 414.773 45.3825 414.142 45.6672C413.537 45.9478 412.977 46.3431 412.461 46.853C412.087 47.2334 411.769 47.7133 411.506 48.2926C411.266 48.8416 411.006 49.353 410.728 49.8269C410.782 50.0074 410.753 50.1736 410.641 50.3255C410.556 50.4733 410.457 50.6232 410.346 50.775C410.103 51.4861 409.973 52.1397 409.955 52.7358C409.934 53.3054 409.933 53.6562 409.953 53.788C410.018 54.2098 410.149 54.6348 410.349 55.063C410.549 55.4912 410.804 55.7492 411.114 55.837ZM424.533 55.3368C424.224 55.4375 423.874 55.4368 423.481 55.3347C423.087 55.2326 422.724 55.0585 422.39 54.8125C422.082 54.5626 421.865 54.2854 421.738 53.981C421.548 53.4434 421.51 52.7479 421.623 51.8946C421.759 51.0109 421.994 50.0716 422.328 49.0768C422.685 48.0516 423.1 47.058 423.575 46.0959C424.075 45.1298 424.607 44.2803 425.17 43.5475C425.755 42.7843 426.32 42.24 426.864 41.9146C427.126 41.686 427.332 41.5334 427.482 41.4566C427.655 41.3495 427.837 41.3083 428.03 41.333C428.249 41.3537 428.572 41.4395 429 41.5903C429.385 41.6398 429.68 41.7164 429.884 41.8202C430.089 41.9239 430.366 42.1516 430.716 42.503C430.987 42.8664 431.205 43.2379 431.371 43.6173C431.536 43.9968 431.697 44.431 431.852 44.9199C432.163 45.547 432.308 45.97 432.287 46.1889C432.263 46.3814 432.205 46.5385 432.116 46.6599C431.945 46.9556 431.912 47.0954 432.018 47.0794C432.018 47.0794 432.013 47.1341 432.002 47.2436C432.014 47.3227 431.982 47.4625 431.904 47.6631C431.808 48.2711 431.755 48.8995 431.745 49.5483C431.758 50.1667 431.848 50.6656 432.013 51.0451C432.312 51.5931 432.747 51.8777 433.316 51.8991C433.886 51.9205 434.417 51.5972 434.909 50.9291C435.167 50.6741 435.415 50.4475 435.655 50.2493C435.891 50.0247 436.024 50.0179 436.057 50.2288C436.057 50.2288 436.102 50.2623 436.193 50.3294C436.28 50.3701 436.377 50.3825 436.482 50.3665C436.614 50.3465 436.701 50.3872 436.743 50.4886C436.812 50.5861 436.834 50.7311 436.809 50.9236C436.807 51.0858 436.756 51.2824 436.656 51.5133C436.321 51.9688 436.163 52.2625 436.183 52.3943C436.183 52.3943 436.138 52.4551 436.049 52.5765C435.982 52.6677 435.857 52.8215 435.674 53.0381C435.243 53.4001 434.659 53.6372 433.921 53.7493C433.209 53.8574 432.633 53.7965 432.194 53.5665C431.754 53.3366 431.325 52.9972 430.906 52.5483C430.514 52.0954 430.237 51.6924 430.075 51.3393L429.818 50.9739L428.785 51.8994C428.539 52.2335 428.265 52.5583 427.962 52.874C427.686 53.1857 427.503 53.4023 427.413 53.5238C427.35 53.6412 427.272 53.7475 427.178 53.8426C427.111 53.9337 427.025 53.9873 426.92 54.0033C426.814 54.0193 426.722 54.0333 426.643 54.0453C426.564 54.0573 426.524 54.0634 426.524 54.0634C426.54 54.1688 426.428 54.3207 426.189 54.5189C425.975 54.7131 425.705 54.889 425.379 55.0465C425.078 55.2 424.796 55.2967 424.533 55.3368ZM423.813 53.2613C423.971 53.2373 424.23 53.0766 424.589 52.7793C424.971 52.4516 425.387 52.0783 425.835 51.6595C426.311 51.2367 426.72 50.8239 427.063 50.4211C427.433 50.0143 427.683 49.7066 427.813 49.4981C427.903 49.3766 428.048 49.1792 428.249 48.9059C428.447 48.6062 428.624 48.3501 428.78 48.1375C429.282 47.36 429.59 46.5445 429.703 45.6912C429.812 44.8115 429.686 44.1564 429.324 43.7259C429.174 43.4519 429.019 43.3137 428.856 43.3114C428.694 43.309 428.379 43.4513 427.91 43.7383C427.621 43.9709 427.28 44.3869 426.885 44.9862C426.513 45.5552 426.116 46.2225 425.693 46.988C425.292 47.7232 424.921 48.4807 424.581 49.2606C424.241 50.0405 423.972 50.7557 423.774 51.4061C423.576 52.0565 423.503 52.5531 423.555 52.8958C423.571 53.0013 423.612 53.0896 423.676 53.1607C423.767 53.2277 423.813 53.2613 423.813 53.2613ZM358.104 96.4154C357.589 96.2238 357.281 95.9738 357.181 95.6655C357.106 95.3531 357.207 94.7714 357.482 93.9204C357.757 93.0695 358.191 91.7494 358.782 89.9604C359.235 88.6779 359.569 87.6831 359.785 86.9759C360.024 86.2384 360.174 85.7166 360.236 85.4106C360.323 85.1006 360.361 84.906 360.349 84.8269C360.26 84.5976 360.259 84.4091 360.344 84.2612C360.426 84.087 360.577 83.9292 360.798 83.7877C360.91 83.6359 361.085 83.3666 361.323 82.9798C361.587 82.589 361.815 82.1363 362.007 81.6217C362.16 81.032 362.351 80.4232 362.579 79.7951C362.807 79.1671 363.119 78.378 363.514 77.4279C363.905 76.4514 364.415 75.1873 365.042 73.6355C365.429 72.6327 365.867 71.6087 366.356 70.5635C366.841 69.4919 367.367 68.4275 367.934 67.3703C368.168 66.9571 368.388 66.6271 368.593 66.3802C368.795 66.1068 369.016 65.9654 369.257 65.9557C369.573 65.9076 369.945 65.9591 370.373 66.1099C370.827 66.2568 371.251 66.4756 371.646 66.7662C372.041 67.0569 372.347 67.388 372.565 67.7595C372.729 67.9504 372.85 68.3905 372.928 69.08C373.005 69.7695 373.079 70.608 373.148 71.5955C373.217 72.583 373.283 73.6384 373.345 74.7617C373.431 75.8547 373.506 77.1513 373.572 78.6518C373.638 80.1522 373.714 81.7185 373.8 83.3508C373.912 84.979 374.043 86.5506 374.192 88.0653C374.337 89.5538 374.534 90.8456 374.781 91.9409C374.843 92.1742 374.877 92.3983 374.883 92.6132C374.889 92.8281 374.901 93.0015 374.921 93.1333C374.787 93.3155 374.534 93.4215 374.161 93.4512C373.818 93.5032 373.463 93.4762 373.096 93.37C372.756 93.2599 372.541 93.0902 372.453 92.8609C372.361 92.7938 372.293 92.6964 372.246 92.5685C372.222 92.4103 372.187 92.092 372.142 91.6134C372.096 91.1348 372.008 90.3795 371.879 89.3472L371.103 82.9107L370.595 83.0283C370.358 83.0643 369.914 83.1587 369.263 83.3115C368.612 83.4644 367.912 83.6515 367.163 83.8731C366.411 84.0683 365.713 84.2687 365.07 84.4742C364.449 84.6494 364.026 84.7945 363.801 84.9097C363.564 84.9457 363.298 85.1479 363.003 85.5163C362.735 85.8808 362.493 86.3354 362.279 86.8804C362.23 87.2655 362.092 87.691 361.866 88.1569C361.663 88.5924 361.571 88.876 361.591 89.0079C361.426 89.1677 361.292 89.3499 361.189 89.5545C361.111 89.7551 361.072 89.8553 361.072 89.8553C361.096 90.0135 361.025 90.429 360.857 91.1018C360.712 91.7442 360.513 92.4757 360.26 93.2963C360.003 94.0906 359.732 94.7926 359.447 95.4023L358.808 96.7939L358.104 96.4154ZM364.356 82.4383C364.356 82.4383 364.484 82.3919 364.74 82.2991C365.022 82.2024 365.343 82.0996 365.704 81.9908C366.088 81.8517 366.438 81.7581 366.754 81.71C367.821 81.2783 368.599 80.9848 369.088 80.8296C369.573 80.6481 369.908 80.5433 370.092 80.5153C370.303 80.4833 370.494 80.4948 370.664 80.5499C370.79 80.6657 370.894 80.7308 370.977 80.7451C371.086 80.7555 371.141 80.7606 371.141 80.7606C371.159 80.7039 371.153 80.3947 371.122 79.833C371.09 79.2714 371.052 78.5759 371.007 77.7466C370.988 76.9133 370.953 76.0556 370.9 75.1736C370.869 74.2612 370.824 73.4319 370.765 72.6856C370.701 71.9131 370.653 71.3271 370.619 70.9276C370.569 70.4227 370.528 69.9705 370.494 69.571C370.456 69.1451 370.437 68.9322 370.437 68.9322C370.279 68.9563 369.98 69.2983 369.541 69.9584C369.128 70.6145 368.678 71.4651 368.189 72.5103C367.7 73.5555 367.261 74.6606 366.872 75.8257C366.684 76.3666 366.502 76.8528 366.325 77.2843C366.147 77.7158 365.993 77.9416 365.861 77.9616C365.816 78.0223 365.694 78.2836 365.495 78.7455C365.317 79.177 365.124 79.6784 364.914 80.2497C364.7 80.7947 364.533 81.2921 364.412 81.742C364.288 82.1655 364.269 82.3976 364.356 82.4383ZM389.03 76.0212C389.368 75.7542 389.74 75.6303 390.147 75.6493C390.551 75.642 390.88 75.7673 391.135 76.0253C391.412 76.2529 391.504 76.5896 391.41 77.0355C391.438 76.8693 391.388 76.9848 391.26 77.3819C391.154 77.7486 391.011 78.2289 390.831 78.8225C390.678 79.4122 390.534 79.9735 390.399 80.5065C390.287 81.0091 390.21 81.3039 390.17 81.391L390.188 81.5097C390.609 81.4456 390.88 81.5394 390.999 81.791C391.14 82.0123 391.222 82.2831 391.244 82.6035C390.935 82.7043 390.725 82.8306 390.613 82.9824C390.498 83.1079 390.336 83.1998 390.129 83.2582C390.05 83.2702 389.964 83.3238 389.871 83.4189C389.777 83.514 389.725 83.6163 389.715 83.7257C389.701 83.8088 389.669 84.1372 389.622 84.7109C389.596 85.2542 389.553 85.8542 389.49 86.511C389.451 87.1374 389.402 87.6168 389.345 87.9492C389.324 88.1681 389.245 88.3555 389.106 88.5113C388.964 88.6408 388.869 88.7227 388.82 88.7571C388.261 88.6263 387.885 88.5485 387.692 88.5238C387.522 88.4687 387.348 88.3873 387.17 88.2795C387.119 88.1253 387.091 87.9407 387.086 87.7258C387.076 87.4845 387.1 87.1977 387.157 86.8653C387.229 86.4498 387.278 86.0647 387.305 85.71C387.355 85.3248 387.382 84.7947 387.388 84.1196C387.274 84.0829 387.05 84.1169 386.715 84.2217C386.403 84.2961 386.066 84.3877 385.705 84.4965C385.344 84.6052 385.036 84.706 384.78 84.7988C384.551 84.8875 384.447 84.9167 384.47 84.8864C384.346 84.9591 384.101 85.0367 383.736 85.1191C383.394 85.1712 383.036 85.212 382.663 85.2417C382.312 85.241 382.053 85.2263 381.887 85.1976L381.668 85.3523C381.682 85.6199 381.623 86.0334 381.492 86.5927C381.357 87.1257 381.324 87.6163 381.392 88.0645C381.418 88.4112 381.417 88.7619 381.39 89.1167C381.363 89.4714 381.364 89.8354 381.394 90.2085C381.456 90.7925 381.351 91.1724 381.081 91.3483C380.838 91.5201 380.415 91.4899 379.813 91.2576C379.67 91.1985 379.524 91.1263 379.376 91.0408C379.254 90.9514 379.118 90.8508 378.966 90.739L379.136 87.5978C379.186 87.2127 379.226 86.8559 379.257 86.5276C379.284 86.1728 379.326 85.8292 379.384 85.4968C379.507 84.8848 379.614 84.2616 379.707 83.6272C379.825 82.9888 379.977 82.3859 380.16 81.8186C380.16 81.8186 380.18 81.6807 380.219 81.4051C380.28 81.0991 380.351 80.7647 380.431 80.4019C380.506 80.0128 380.568 79.7068 380.615 79.4839C380.662 79.2609 380.669 79.2194 380.636 79.3592C380.692 79.189 380.764 78.8678 380.854 78.3956C380.94 77.897 381.017 77.4268 381.085 76.9849C381.175 76.5127 381.218 76.2634 381.214 76.2371C381.243 76.0709 381.306 75.9534 381.403 75.8847C381.497 75.7896 381.623 75.73 381.781 75.706C382.225 75.6116 382.61 75.661 382.936 75.8542C383.258 76.0211 383.457 76.2607 383.531 76.5731C383.529 76.7353 383.537 76.8823 383.557 77.0141C383.577 77.1459 383.567 77.2554 383.526 77.3425L382.233 82.6772L382.281 82.9935C382.568 83.1117 382.955 83.08 383.44 82.8985C383.947 82.6866 384.332 82.5606 384.596 82.5206C384.724 82.4742 385.023 82.4018 385.494 82.3034C385.99 82.201 386.463 82.1157 386.911 82.0476C387.386 81.9756 387.638 81.9507 387.669 81.9731C387.838 81.1381 387.99 80.3599 388.123 79.6384C388.252 78.8905 388.472 78.1154 388.782 77.3132C388.8 77.2565 388.827 77.0771 388.862 76.7751C388.923 76.469 388.979 76.2177 389.03 76.0212ZM396.131 87.8492C395.994 87.6543 395.838 87.5161 395.664 87.4347C395.485 87.3269 395.388 87.2203 395.372 87.1148C395.356 87.0094 395.327 86.9059 395.285 86.8045C395.265 86.6726 395.194 86.562 395.072 86.4726C394.917 86.3344 394.876 85.9765 394.95 85.3988C395.02 84.7948 395.177 84.0561 395.422 83.1827C395.663 82.283 395.964 81.3337 396.325 80.3349C396.504 80.092 396.673 79.7831 396.832 79.4084C396.991 79.0336 397.115 78.7855 397.204 78.664C397.188 78.5585 397.214 78.4603 397.281 78.3692C397.344 78.2517 397.428 78.1849 397.534 78.1689L397.498 77.9317C397.478 77.7998 397.562 77.5577 397.751 77.2053C397.967 76.8489 398.231 76.4581 398.544 76.033C398.853 75.5815 399.18 75.1543 399.523 74.7515C399.863 74.3224 400.152 74.0087 400.392 73.8105C400.889 73.3573 401.422 73.0471 401.99 72.8799C402.584 72.7088 403.119 72.7625 403.592 73.0412C403.684 73.1083 403.835 73.2201 404.048 73.3766C404.261 73.5331 404.504 73.712 404.777 73.9133C405.072 74.0842 405.37 74.2682 405.67 74.4655L407.331 75.5483L406.92 77.6337C406.737 78.7404 406.785 79.6771 407.063 80.444C407.368 81.2069 407.736 81.8524 408.166 82.3804C408.342 82.6503 408.648 82.8871 409.083 83.0907C409.545 83.2903 409.965 83.3885 410.342 83.3851C410.557 83.3795 410.767 83.4285 410.971 83.5323C411.176 83.6361 411.3 83.833 411.344 84.123C411.384 84.3867 411.363 84.6056 411.282 84.7798C411.201 84.954 411.032 85.0875 410.776 85.1803C409.922 85.4178 409.073 85.331 408.228 84.9198C407.41 84.5046 406.592 83.7387 405.776 82.622C405.646 82.4799 405.457 82.2119 405.208 81.8181C404.982 81.3939 404.846 81.1179 404.8 80.9901C404.714 81.1379 404.554 81.4184 404.32 81.8315C404.082 82.2183 403.896 82.5028 403.762 82.685C402.179 84.8675 400.751 86.3924 399.48 87.2597C398.232 88.0966 397.116 88.2931 396.131 87.8492ZM397.218 85.4184C397.246 85.603 397.523 85.5609 398.049 85.2923C398.597 84.9933 399.16 84.5301 399.739 83.9028C400.52 83.0021 401.288 82.0223 402.044 80.9634C402.827 79.9005 403.435 78.9316 403.869 78.0566L404.522 76.5008C404.167 75.9344 403.815 75.5698 403.466 75.407C403.14 75.2137 402.872 75.1331 402.661 75.1651C402.318 75.2172 401.852 75.6116 401.263 76.3485C400.7 77.0813 400.116 78.0331 399.511 79.2037C398.907 80.3744 398.358 81.6445 397.865 83.0141C397.681 83.5815 397.522 84.1316 397.387 84.6645C397.275 85.1671 397.218 85.4184 397.218 85.4184ZM417.743 85.0933C417.163 85.1814 416.724 85.2211 416.426 85.2124C416.128 85.2037 415.892 85.1587 415.718 85.0772C415.544 84.9958 415.337 84.8788 415.098 84.7263C414.961 84.5314 414.795 84.3273 414.601 84.114C414.406 83.9008 414.248 83.7494 414.127 83.66C413.962 83.2805 413.831 82.7744 413.735 82.1417C413.665 81.5049 413.64 80.8075 413.66 80.0492C413.706 79.287 413.813 78.5695 413.98 77.8967C414.054 77.6698 414.114 77.4449 414.161 77.2219C414.208 76.999 414.231 76.8876 414.231 76.8876C414.211 76.7557 414.322 76.4153 414.562 75.8664C414.829 75.3134 415.118 74.7301 415.429 74.1164C415.767 73.4987 416.049 73.0511 416.277 72.7738C416.43 72.5349 416.672 72.2687 417.005 71.9754C417.365 71.6781 417.682 71.4547 417.956 71.3052C418.23 71.1557 418.506 71.0194 418.784 70.8962C419.088 70.7691 419.438 70.6755 419.833 70.6155C420.202 70.5594 420.557 70.5865 420.898 70.6966C421.238 70.8067 421.583 71.0375 421.933 71.389C422.48 71.7915 422.816 72.226 422.94 72.6925C423.088 73.1287 423.144 73.5921 423.111 74.0827C423.059 74.63 422.95 75.0646 422.783 75.3867C422.612 75.6824 422.393 75.837 422.125 75.8507C421.858 75.8644 421.524 75.7127 421.126 75.3956C420.988 75.2007 420.909 75.0374 420.889 74.9055C420.865 74.7473 420.884 74.5152 420.945 74.2092C420.995 73.8241 420.937 73.4418 420.771 73.0624C420.606 72.6829 420.404 72.5112 420.167 72.5472C419.824 72.5993 419.466 72.8155 419.092 73.1959C418.741 73.546 418.388 73.9772 418.035 74.4894C417.882 74.7284 417.668 75.0979 417.394 75.5982C417.141 76.0681 416.897 76.5907 416.661 77.166C416.42 77.715 416.231 78.2427 416.092 78.7493C415.934 79.6634 415.803 80.3981 415.698 80.9534C415.62 81.5047 415.581 81.7804 415.581 81.7804C415.597 81.8858 415.64 81.9873 415.708 82.0847C415.8 82.1518 415.853 82.2381 415.869 82.3435C415.917 82.6599 416.14 82.8823 416.537 83.0108C416.855 83.1514 417.214 83.2048 417.613 83.1711C418.009 83.111 418.476 82.9051 419.016 82.5534C419.406 82.2784 419.76 81.9416 420.077 81.5428C420.42 81.14 420.783 80.7747 421.164 80.447C421.426 80.2185 421.626 80.0262 421.765 79.8704C421.929 79.7106 422.019 79.6834 422.035 79.7888C422.051 79.8943 422.099 79.941 422.178 79.929C422.257 79.917 422.341 79.8502 422.431 79.7288C422.557 79.4938 422.708 79.336 422.885 79.2552C423.058 79.1481 423.212 79.0977 423.348 79.1041C423.506 79.08 423.591 79.1076 423.603 79.1867C423.586 79.432 423.669 79.6217 423.851 79.7559C423.867 79.8613 423.85 80.0123 423.799 80.2089C423.77 80.3751 423.711 80.5189 423.621 80.6404C423.517 80.845 423.352 81.0859 423.124 81.3632C422.923 81.6365 422.731 81.8815 422.548 82.098C422.361 82.2883 422.268 82.3834 422.268 82.3834C422.158 82.373 422.057 82.4154 421.963 82.5105C421.896 82.6016 421.818 82.7079 421.728 82.8294C421.546 83.0459 421.37 83.221 421.201 83.3545C421.029 83.4616 420.89 83.5231 420.784 83.5392C420.616 83.6726 420.481 83.7606 420.379 83.8029C420.304 83.8413 420.275 83.9132 420.291 84.0187C420.067 84.3224 419.766 84.557 419.386 84.7225C419.029 84.8576 418.481 84.9812 417.743 85.0933ZM429.553 82.248C429.235 82.1075 428.936 81.9103 428.654 81.6563C428.369 81.3759 428.19 80.9985 428.118 80.5239C428.078 80.2603 428.063 79.8041 428.072 79.1553C428.082 78.5066 428.119 77.7727 428.183 76.9538C428.247 76.1348 428.32 75.3686 428.4 74.6551C428.592 74.1405 428.744 73.6319 428.856 73.1293C428.969 72.6267 429.017 72.3227 429.001 72.2172C429.006 71.8929 429.016 71.5137 429.031 71.0799C429.072 70.6421 429.12 70.2438 429.173 69.885C429.226 69.5263 429.275 69.3165 429.32 69.2558C429.432 69.1039 429.578 69.0008 429.759 68.9464C429.935 68.8657 430.124 68.864 430.324 68.9415C430.547 68.9885 430.731 69.1359 430.877 69.3835C431.215 69.6558 431.418 70.0161 431.486 70.4643C431.55 70.8861 431.501 71.5409 431.339 72.4286C431.182 72.9919 431.039 73.6475 430.91 74.3954C430.781 75.1433 430.67 75.8344 430.577 76.4688C430.507 77.0728 430.475 77.4823 430.481 77.6972L429.726 78.0546C430.11 77.5647 430.466 77.0657 430.793 76.5574C431.116 76.0228 431.35 75.6097 431.495 75.318C431.851 74.6435 432.157 74.0846 432.414 73.6411C432.692 73.1672 433.051 72.6002 433.49 71.9401C433.926 71.2537 434.384 70.8065 434.865 70.5986C435.368 70.3604 435.764 70.2192 436.054 70.1752C436.651 70.1925 437.158 70.4257 437.577 70.8746C438.018 71.2931 438.363 71.9689 438.613 72.902C438.669 73.2711 438.695 73.7121 438.692 74.225C438.716 74.734 438.727 74.9884 438.727 74.9884C438.727 74.9884 438.896 74.6796 439.234 74.0619C439.598 73.4402 440.099 72.7437 440.737 71.9725C441.182 71.5273 441.638 71.2423 442.105 71.1176C442.567 70.9664 443.013 71.0605 443.442 71.3999C444.184 71.665 444.718 72.1637 445.045 72.8963C445.368 73.6024 445.565 74.5436 445.635 75.7196C445.66 76.4171 445.725 76.9332 445.83 77.2679C445.931 77.5763 446.058 77.8807 446.212 78.181C446.438 78.2545 446.512 78.4725 446.432 78.8353C446.348 79.1717 446.214 79.3539 446.03 79.3819C445.766 79.422 445.455 79.4153 445.096 79.3619C444.764 79.3044 444.448 79.1771 444.148 78.9799C443.871 78.7523 443.698 78.4143 443.63 77.9662L443.258 75.5143C443.17 74.9342 443.071 74.4637 442.962 74.1026C442.88 73.7375 442.78 73.5234 442.663 73.4603C442.349 73.3462 441.953 73.5816 441.475 74.1666C440.998 74.7516 440.506 75.514 440.002 76.4537C439.497 77.3935 439.036 78.3536 438.619 79.334C438.242 80.2274 437.997 80.75 437.886 80.9018C437.796 81.0233 437.592 81.0138 437.274 80.8733C436.666 80.7768 436.259 80.5824 436.053 80.29C435.869 79.9673 435.798 79.587 435.839 79.1492C435.903 78.681 435.969 78.0506 436.038 77.258C436.132 76.4614 436.218 75.6931 436.295 74.9533C436.367 74.1871 436.406 73.6417 436.41 73.3174C436.273 73.1225 436.078 73.0846 435.827 73.2037C435.597 73.2925 435.365 73.4491 435.129 73.6737C434.845 73.9327 434.523 74.3862 434.163 75.0343C433.802 75.6824 433.443 76.4247 433.085 77.2613C432.844 77.8103 432.591 78.3613 432.324 78.9142C432.054 79.4408 431.801 79.9107 431.567 80.3239C431.333 80.737 431.125 81.0519 430.942 81.2684C430.661 81.9045 430.459 82.2589 430.335 82.3317C430.211 82.4044 429.95 82.3765 429.553 82.248ZM453.701 79.3904C453.498 79.4751 453.225 79.5435 452.882 79.5956C452.536 79.6212 452.226 79.6277 451.955 79.615C451.705 79.572 451.575 79.5109 451.563 79.4318C451.543 79.3 451.467 79.2441 451.335 79.2641C451.335 79.2641 451.261 79.2214 451.113 79.1359C450.992 79.0465 450.804 78.9671 450.551 78.8976C450.258 78.5646 450.079 78.1871 450.015 77.7653C449.947 77.3171 449.96 76.6004 450.053 75.6153C450.032 74.9441 450.166 74.1415 450.456 73.2075C450.768 72.243 451.17 71.2514 451.663 70.2325C452.155 69.2137 452.688 68.2831 453.262 67.4408C453.862 66.5945 454.425 65.956 454.953 65.5252C455.266 65.1 455.685 64.8342 456.208 64.7278C456.731 64.6213 457.25 64.6639 457.765 64.8555C458.048 64.9473 458.344 65.1182 458.652 65.3681C458.959 65.6181 459.258 65.8965 459.547 66.2032C459.837 66.5099 460.086 66.8226 460.297 67.1413C460.42 67.4193 460.499 67.6769 460.535 67.9142C460.594 68.1211 460.634 68.3848 460.655 68.7052C460.703 69.0215 460.736 69.5021 460.753 70.1468C460.693 70.6414 460.663 71.2395 460.661 71.9409C460.686 72.6384 460.737 73.2376 460.813 73.7386C460.836 74.2475 460.943 74.5954 461.133 74.7823C461.35 74.9652 461.615 74.9383 461.93 74.7017C462.222 74.4955 462.516 74.3836 462.81 74.3659C463.1 74.3218 463.336 74.3669 463.518 74.5011C463.727 74.6312 463.855 74.8545 463.903 75.1709C463.951 75.4873 463.843 75.8408 463.579 76.2316C463.337 76.592 463.009 76.9249 462.597 77.2302C462.208 77.5052 461.815 77.6727 461.419 77.7328C461.129 77.7768 460.827 77.6475 460.511 77.3448C460.191 77.0157 459.888 76.6167 459.601 76.1478C459.336 75.6486 459.089 75.1737 458.859 74.7231L458.483 73.8496L457.029 75.7292C456.742 76.1504 456.451 76.5452 456.157 76.9136C455.884 77.2516 455.719 77.4926 455.66 77.6364C455.564 77.8937 455.349 78.169 455.016 78.4623C454.71 78.7517 454.271 79.061 453.701 79.3904ZM453.465 77.0391C453.873 76.7074 454.329 76.247 454.833 75.658C455.333 75.0427 455.814 74.3898 456.276 73.6993C456.733 72.9825 457.106 72.3324 457.395 71.7491C457.752 71.0746 458.008 70.4557 458.165 69.8924C458.323 69.3291 458.418 68.8022 458.451 68.3116C458.302 68.0376 458.084 67.7604 457.799 67.4801C457.51 67.1734 457.271 67.0209 457.082 67.0225C456.502 67.1106 455.939 67.5738 455.392 68.4121C454.867 69.22 454.366 70.0918 453.887 71.0276C453.802 71.1754 453.689 71.4083 453.548 71.7264C453.408 72.0444 453.265 72.3493 453.121 72.6409C452.999 72.9022 452.917 73.0764 452.877 73.1635C452.814 73.281 452.701 73.6082 452.54 74.1452C452.401 74.6517 452.264 75.1715 452.13 75.7045C451.991 76.2111 451.933 76.5434 451.957 76.7016C451.981 76.8598 452.021 77.0292 452.075 77.2097C452.156 77.3863 452.306 77.4849 452.524 77.5056C452.743 77.5263 453.057 77.3708 453.465 77.0391ZM471.026 77.4877C470.282 77.7356 469.577 77.8022 468.912 77.6874C468.243 77.5462 467.671 77.2419 467.196 76.7747C466.743 76.2771 466.452 75.6065 466.324 74.7628C466.125 73.9839 466.079 73.0603 466.186 71.9921C466.29 70.8974 466.512 69.7848 466.853 68.6542C467.22 67.5195 467.649 66.5239 468.139 65.6672C468.57 64.9544 469.009 64.2943 469.456 63.687C469.904 63.0796 470.324 62.6516 470.718 62.403C471.063 62.1888 471.392 62.0445 471.704 61.9701C472.039 61.8653 472.312 61.7969 472.523 61.7649C472.961 61.8063 473.439 61.9359 473.957 62.1539C474.498 62.3415 474.793 62.5934 474.841 62.9098C474.841 62.9098 474.873 62.9453 474.938 63.0164C475.025 63.0571 475.069 63.0775 475.069 63.0775C475.227 63.0535 475.385 63.2048 475.542 63.5316C475.726 63.8543 475.865 64.2377 475.96 64.6819C476.05 65.0998 476.038 65.4657 475.924 65.7797C475.895 66.2967 475.776 66.7597 475.568 67.1688C475.361 67.578 475.152 67.7985 474.941 67.8306C474.835 67.8466 474.732 67.8758 474.63 67.9182C474.551 67.9302 474.522 68.0021 474.542 68.1339C474.562 68.2657 474.491 68.3305 474.328 68.3281C474.193 68.3218 474.036 68.2647 473.857 68.1569C473.675 68.0227 473.529 67.8562 473.417 67.6573C473.397 67.5255 473.416 67.2934 473.474 66.961C473.531 66.6286 473.574 66.2039 473.604 65.687C473.65 64.9248 473.565 64.4522 473.348 64.2693C473.127 64.0601 472.77 64.1009 472.274 64.3919C471.671 64.8611 471.117 65.4713 470.61 66.2225C470.13 66.9697 469.72 67.9086 469.379 69.0392C469.034 70.1435 468.782 71.5034 468.623 73.119C468.557 73.7494 468.571 74.2867 468.666 74.7309C468.786 75.1711 468.888 75.3983 468.971 75.4127C469.356 75.4621 469.861 75.4124 470.486 75.2636C471.107 75.0884 471.55 74.8997 471.816 74.6975C472.206 74.4225 472.639 74.0736 473.114 73.6508C473.585 73.2016 473.996 72.802 474.348 72.452C474.468 72.3529 474.606 72.197 474.762 71.9844C474.919 71.7719 475.095 71.5968 475.289 71.4593C475.452 71.1109 475.609 70.8984 475.759 70.8216C475.909 70.7449 476.143 70.6825 476.459 70.6344C476.678 70.6551 476.888 70.7042 477.088 70.7816C477.289 70.8591 477.423 70.9465 477.492 71.044C477.587 71.1374 477.562 71.2357 477.415 71.3388C477.31 71.3548 477.25 71.4044 477.236 71.4875C477.244 71.5402 477.248 71.5666 477.248 71.5666C477.317 71.664 477.232 71.9061 476.994 72.2929C476.778 72.6493 476.49 73.0573 476.128 73.5168C475.766 73.9763 475.409 74.3811 475.058 74.7312C474.729 75.0509 474.485 75.2227 474.327 75.2467C474.064 75.2868 473.944 75.3859 473.968 75.5441C473.976 75.5968 473.798 75.7587 473.435 76.0296C473.098 76.2966 472.695 76.5736 472.226 76.8605C471.783 77.1435 471.383 77.3526 471.026 77.4877ZM490.899 74.9554C490.656 75.1273 490.341 75.0942 489.954 74.8563C489.567 74.6183 489.294 74.4171 489.134 74.2525C488.849 73.9722 488.611 73.5632 488.422 73.0256C488.232 72.4879 488.109 72.0346 488.053 71.6655C487.949 70.98 487.836 70.5925 487.715 70.5031C487.62 70.4096 487.462 70.5279 487.243 70.858C487.046 71.1576 486.746 71.5808 486.343 72.1274C486.164 72.3704 485.864 72.6992 485.441 73.114C485.019 73.5288 484.575 73.8929 484.11 74.2063C483.645 74.5196 483.241 74.7023 482.899 74.7543C482.657 74.764 482.4 74.6682 482.127 74.467C481.853 74.2657 481.602 74.0341 481.374 73.7721C481.168 73.4798 481.009 73.2341 480.898 73.0352C480.706 72.6598 480.595 72.0159 480.564 71.1035C480.556 70.1607 480.612 69.1136 480.734 67.9623C480.879 66.7806 481.07 65.6456 481.31 64.5573C481.571 63.4387 481.863 62.5178 482.185 61.7946C482.529 61.0411 482.912 60.6323 483.334 60.5682C483.624 60.5242 483.874 60.6615 484.084 60.9802C484.317 61.2686 484.502 61.5102 484.639 61.7051C484.811 61.9487 484.877 62.1141 484.836 62.2012C484.822 62.2843 484.738 62.4453 484.586 62.6843C484.415 62.9799 484.232 63.4662 484.038 64.143C483.84 64.7934 483.639 65.5117 483.435 66.298C483.253 67.0538 483.094 67.7793 482.956 68.4745C482.819 69.1696 482.724 69.6966 482.67 70.0553C482.65 70.2742 482.615 70.5763 482.565 70.9614C482.542 71.3425 482.56 71.6365 482.618 71.8434C482.622 71.8698 482.646 71.9337 482.688 72.0351C482.726 72.1102 482.838 72.1338 483.022 72.1057C483.602 72.0177 484.146 71.6923 484.654 71.1297C485.185 70.5367 485.68 69.8007 486.14 68.9217C486.626 68.0386 487.067 67.1221 487.462 66.172C487.857 65.2219 488.219 64.3173 488.547 63.4584C488.901 62.5954 489.212 61.8874 489.478 61.3344C489.741 60.7551 489.976 60.4362 490.183 60.3778C490.363 60.3234 490.578 60.3178 490.827 60.3608C491.099 60.3735 491.337 60.4318 491.542 60.5356C491.746 60.6394 491.853 60.8119 491.863 61.0532C491.695 62.0767 491.461 63.1102 491.161 64.1538C490.857 65.171 490.581 66.1973 490.334 67.2329C490.113 68.2644 490.001 69.3063 489.999 70.3585C489.99 71.0073 490.123 71.6208 490.4 72.1992C490.703 72.7735 491.115 73.264 491.635 73.6705C491.938 73.8941 491.95 74.1485 491.67 74.4339C491.389 74.7192 491.133 74.893 490.899 74.9554ZM504.741 72.7322C504.438 72.5086 504.12 72.1927 503.788 71.7845C503.452 71.35 503.159 70.8415 502.909 70.2592C502.824 70.0563 502.754 69.7703 502.698 69.4012C502.668 69.0281 502.628 68.7644 502.578 68.6102C502.527 68.8068 502.425 69.0245 502.272 69.2635C502.142 69.4721 502.008 69.6543 501.87 69.8101C501.781 69.9316 501.575 70.1785 501.254 70.5509C500.929 70.897 500.596 71.1903 500.255 71.4309C499.469 72.1167 498.79 72.53 498.218 72.6708C497.672 72.8076 497.101 72.5977 496.504 72.041C496.03 71.7623 495.669 71.426 495.42 71.0322C495.198 70.6344 495.11 70.0544 495.156 69.2922C495.069 68.3614 495.064 67.445 495.143 66.543C495.218 65.6145 495.473 64.3621 495.908 62.7856C496.297 61.6206 496.599 60.7656 496.813 60.2206C497.023 59.6493 497.159 59.3049 497.223 59.1874C497.598 58.9956 497.93 58.9587 498.217 59.0768C498.501 59.1686 498.697 59.3951 498.806 59.7562C499.004 59.9958 499.046 60.448 498.931 61.1128C498.842 61.7735 498.631 62.6013 498.297 63.5962C498.064 64.5486 497.857 65.497 497.677 66.4415C497.523 67.3819 497.468 68.1725 497.511 68.8132C497.554 69.454 497.771 69.8123 498.16 69.888C498.417 69.9838 498.82 69.8822 499.368 69.5832C499.942 69.2802 500.534 68.6508 501.144 67.6951C501.781 66.7353 502.325 65.3446 502.776 63.5228C502.907 62.9635 502.995 62.4781 503.041 62.0666C503.082 61.6287 503.078 61.1573 503.028 60.6524C502.927 60.3441 502.899 60.0652 502.942 59.8159C503.007 59.5363 503.184 59.2801 503.472 59.0476C503.558 58.8997 503.685 58.7591 503.853 58.6256C504.018 58.4657 504.137 58.4477 504.209 58.5715L504.836 58.4359C504.937 58.3935 505.013 58.4494 505.064 58.6036C505.136 58.7274 505.247 58.8321 505.395 58.9175C505.721 59.1107 505.878 59.6128 505.866 60.4238C505.854 61.2347 505.653 62.3981 505.263 63.9138C504.926 65.0709 504.708 65.9402 504.607 66.5219C504.533 67.0995 504.523 67.654 504.577 68.1853C504.649 68.6599 504.809 69.0941 505.058 69.4879C505.306 69.8817 505.654 70.2199 506.102 70.5026C506.42 70.6431 506.61 70.83 506.673 71.0633C506.761 71.2926 506.817 71.5674 506.838 71.8878C506.822 72.1331 506.693 72.3548 506.454 72.553C506.236 72.7209 505.97 72.8288 505.653 72.8769C505.337 72.9249 505.033 72.8767 504.741 72.7322Z" fill="white"/>
</svg>
