<svg width="192" height="71" viewBox="0 0 192 71" fill="none" xmlns="http://www.w3.org/2000/svg">
<mask id="path-1-outside-1_248_116" maskUnits="userSpaceOnUse" x="-3.72993" y="11.1327" width="36.5105" height="41.2094" fill="black">
<rect fill="white" x="-3.72993" y="11.1327" width="36.5105" height="41.2094"/>
<path d="M6.06363 47.6533C5.6817 47.5125 5.45663 47.3402 5.38842 47.1363C5.32546 46.9585 5.31719 46.5794 5.36361 45.9988C5.2691 45.6642 5.21906 45.3479 5.2135 45.0498C5.23408 44.7465 5.24693 44.5399 5.25203 44.43C5.38275 44.4037 5.4454 44.3095 5.43999 44.1474C5.43458 43.9853 5.42135 43.852 5.40032 43.7474C5.35825 43.5382 5.36568 43.1695 5.42262 42.6413C5.5057 42.1077 5.56 41.5664 5.58554 41.0172C5.6895 40.4523 5.78828 39.9292 5.88188 39.448C5.99636 38.9353 6.04308 38.6267 6.02205 38.5222C5.97998 38.313 5.99019 38.0933 6.05269 37.8632C6.10993 37.6068 6.18287 37.361 6.27152 37.1255C6.33912 36.7855 6.36226 36.4272 6.34092 36.0507C6.34046 35.6428 6.3192 35.3343 6.27713 35.1251C6.36562 34.7537 6.46192 34.3535 6.56604 33.9246C6.67015 33.4956 6.73242 33.0615 6.75285 32.6222C6.82031 32.1462 6.91368 31.461 7.03296 30.5665C7.17313 29.6407 7.32374 28.6992 7.48479 27.742C7.62016 27.1979 7.75027 26.6277 7.87511 26.0314C7.99996 25.4351 8.11444 24.9224 8.21856 24.4935C8.32268 24.0645 8.41395 23.8421 8.49238 23.8264C8.49238 23.8264 8.48449 23.7871 8.46871 23.7087C8.44767 23.6041 8.42664 23.4996 8.4056 23.395C8.37931 23.2643 8.43392 22.9949 8.56944 22.5868C8.6997 22.1526 8.81425 21.7079 8.91311 21.2528C9.09566 20.8081 9.20503 20.4053 9.24123 20.0444C9.27218 19.6574 9.28765 19.4638 9.28765 19.4638C9.28765 19.4638 9.31109 19.3775 9.35797 19.2049C9.43098 19.027 9.50926 18.8752 9.5928 18.7496C9.88533 18.446 10.1806 18.2914 10.4787 18.2858C10.803 18.275 11.1143 18.4708 11.4129 18.8731C11.7062 19.2493 11.8687 19.5839 11.9004 19.8767C11.9268 20.1434 11.867 20.4546 11.721 20.8104C11.6065 21.323 11.453 21.9796 11.2604 22.7799C11.0625 23.5542 10.8516 24.399 10.6278 25.3145C10.4248 26.1985 10.2297 27.0538 10.0423 27.8803C9.87584 28.6754 9.74326 29.3685 9.64455 29.9596C9.56673 30.5193 9.54097 30.8645 9.56726 30.9952L8.75621 35.2793C8.76673 35.3315 8.74073 35.4728 8.67823 35.7029C8.64188 35.9279 8.58734 36.2653 8.51463 36.7151C8.46806 37.1597 8.40857 37.7429 8.33616 38.4647C8.26375 39.1864 8.18105 40.0599 8.08806 41.085C7.90177 42.8634 7.75951 44.252 7.66126 45.251C7.55775 46.2239 7.44868 46.8986 7.33405 47.2753C7.25081 47.6729 7.1177 47.8901 6.9347 47.9269C6.83012 47.9479 6.70196 47.9193 6.55021 47.841C6.42986 47.7836 6.26767 47.721 6.06363 47.6533ZM19.9694 45.1824C19.7394 45.2558 19.389 45.2039 18.9181 45.0266C18.4786 44.8702 17.9868 44.6564 17.4426 44.385C16.9245 44.1084 16.4169 43.8161 15.9197 43.5081C15.4487 43.1949 15.0666 42.9181 14.7735 42.6779C14.2342 42.1607 13.5536 41.4816 12.7316 40.6406C11.9043 39.7733 11.2208 38.8092 10.6809 37.7482C10.3296 36.9484 10.0151 36.3316 9.73748 35.8979C9.45456 35.438 9.2554 35.0564 9.14001 34.7532L8.62703 32.0003L10.7532 32.2255C11.1679 33.6109 11.6006 34.7479 12.0514 35.6364C12.523 36.4936 13.0259 37.2356 13.56 37.8626C14.0105 38.4792 14.5001 39.0879 15.029 39.6888C15.5526 40.2635 16.0814 40.7283 16.6152 41.0834C17.348 41.616 17.9812 41.9918 18.5149 42.2109C19.0485 42.4299 19.433 42.5158 19.6683 42.4684C19.8043 42.4683 20.0057 42.523 20.2725 42.6325C20.5655 42.7368 20.835 42.8594 21.0809 43.0003C21.3478 43.1098 21.51 43.2404 21.5677 43.392C21.6097 43.4652 21.6464 43.5802 21.678 43.737C21.7148 43.92 21.7202 44.0821 21.6942 44.2234C21.6996 44.3855 21.6841 44.511 21.6475 44.6C21.6059 44.7988 21.4937 44.9845 21.3108 45.1573C21.1594 45.351 20.7123 45.3593 19.9694 45.1824ZM8.25878 32.4008L10.7033 29.7466C10.766 29.6524 10.9879 29.3357 11.3691 28.7967C11.7764 28.2523 12.458 27.4488 13.4138 26.3861L17.4484 21.4943C18.0336 21.023 18.6134 20.4575 19.188 19.7979C19.7887 19.1331 20.2483 18.6462 20.567 18.3373C20.9483 17.9342 21.2852 17.5808 21.5778 17.2771C21.8703 16.9735 22.0715 16.8242 22.1813 16.8293C22.3694 16.6827 22.5865 16.6798 22.8324 16.8207C23.0993 16.9303 23.327 17.1157 23.5155 17.377C23.725 17.6068 23.8377 17.829 23.8536 18.0434C23.9585 18.2943 23.9509 18.527 23.8308 18.7416C23.7108 18.9561 23.3843 19.2938 22.8514 19.7546C22.402 20.0898 22.0049 20.4145 21.6601 20.7287C21.3414 21.0376 21.1586 21.2784 21.1118 21.451C21.1118 21.451 20.9028 21.697 20.485 22.1891C20.0881 22.6498 19.5631 23.2178 18.9101 23.8932C18.0012 24.7832 17.2281 25.6052 16.5909 26.359C15.9798 27.1075 15.6013 27.6597 15.4553 28.0155C15.3507 28.0365 15.254 28.0967 15.1652 28.1962C15.1026 28.2904 15.0163 28.335 14.9065 28.3299C14.9065 28.3299 14.8151 28.4163 14.6322 28.589C14.4755 28.7566 14.358 28.9162 14.2797 29.068C14.2538 29.2092 14.1729 29.4159 14.0373 29.688C13.9277 29.9548 13.7396 30.1014 13.4729 30.1279C13.311 30.2693 13.0289 30.5572 12.6267 30.9917C12.2192 31.4001 11.7935 31.853 11.3495 32.3503C10.9317 32.8424 10.5713 33.2821 10.2684 33.6694C9.96553 34.0567 9.80627 34.2792 9.79065 34.3367L8.25878 32.4008Z"/>
</mask>
<path d="M6.06363 47.6533C5.6817 47.5125 5.45663 47.3402 5.38842 47.1363C5.32546 46.9585 5.31719 46.5794 5.36361 45.9988C5.2691 45.6642 5.21906 45.3479 5.2135 45.0498C5.23408 44.7465 5.24693 44.5399 5.25203 44.43C5.38275 44.4037 5.4454 44.3095 5.43999 44.1474C5.43458 43.9853 5.42135 43.852 5.40032 43.7474C5.35825 43.5382 5.36568 43.1695 5.42262 42.6413C5.5057 42.1077 5.56 41.5664 5.58554 41.0172C5.6895 40.4523 5.78828 39.9292 5.88188 39.448C5.99636 38.9353 6.04308 38.6267 6.02205 38.5222C5.97998 38.313 5.99019 38.0933 6.05269 37.8632C6.10993 37.6068 6.18287 37.361 6.27152 37.1255C6.33912 36.7855 6.36226 36.4272 6.34092 36.0507C6.34046 35.6428 6.3192 35.3343 6.27713 35.1251C6.36562 34.7537 6.46192 34.3535 6.56604 33.9246C6.67015 33.4956 6.73242 33.0615 6.75285 32.6222C6.82031 32.1462 6.91368 31.461 7.03296 30.5665C7.17313 29.6407 7.32374 28.6992 7.48479 27.742C7.62016 27.1979 7.75027 26.6277 7.87511 26.0314C7.99996 25.4351 8.11444 24.9224 8.21856 24.4935C8.32268 24.0645 8.41395 23.8421 8.49238 23.8264C8.49238 23.8264 8.48449 23.7871 8.46871 23.7087C8.44767 23.6041 8.42664 23.4996 8.4056 23.395C8.37931 23.2643 8.43392 22.9949 8.56944 22.5868C8.6997 22.1526 8.81425 21.7079 8.91311 21.2528C9.09566 20.8081 9.20503 20.4053 9.24123 20.0444C9.27218 19.6574 9.28765 19.4638 9.28765 19.4638C9.28765 19.4638 9.31109 19.3775 9.35797 19.2049C9.43098 19.027 9.50926 18.8752 9.5928 18.7496C9.88533 18.446 10.1806 18.2914 10.4787 18.2858C10.803 18.275 11.1143 18.4708 11.4129 18.8731C11.7062 19.2493 11.8687 19.5839 11.9004 19.8767C11.9268 20.1434 11.867 20.4546 11.721 20.8104C11.6065 21.323 11.453 21.9796 11.2604 22.7799C11.0625 23.5542 10.8516 24.399 10.6278 25.3145C10.4248 26.1985 10.2297 27.0538 10.0423 27.8803C9.87584 28.6754 9.74326 29.3685 9.64455 29.9596C9.56673 30.5193 9.54097 30.8645 9.56726 30.9952L8.75621 35.2793C8.76673 35.3315 8.74073 35.4728 8.67823 35.7029C8.64188 35.9279 8.58734 36.2653 8.51463 36.7151C8.46806 37.1597 8.40857 37.7429 8.33616 38.4647C8.26375 39.1864 8.18105 40.0599 8.08806 41.085C7.90177 42.8634 7.75951 44.252 7.66126 45.251C7.55775 46.2239 7.44868 46.8986 7.33405 47.2753C7.25081 47.6729 7.1177 47.8901 6.9347 47.9269C6.83012 47.9479 6.70196 47.9193 6.55021 47.841C6.42986 47.7836 6.26767 47.721 6.06363 47.6533ZM19.9694 45.1824C19.7394 45.2558 19.389 45.2039 18.9181 45.0266C18.4786 44.8702 17.9868 44.6564 17.4426 44.385C16.9245 44.1084 16.4169 43.8161 15.9197 43.5081C15.4487 43.1949 15.0666 42.9181 14.7735 42.6779C14.2342 42.1607 13.5536 41.4816 12.7316 40.6406C11.9043 39.7733 11.2208 38.8092 10.6809 37.7482C10.3296 36.9484 10.0151 36.3316 9.73748 35.8979C9.45456 35.438 9.2554 35.0564 9.14001 34.7532L8.62703 32.0003L10.7532 32.2255C11.1679 33.6109 11.6006 34.7479 12.0514 35.6364C12.523 36.4936 13.0259 37.2356 13.56 37.8626C14.0105 38.4792 14.5001 39.0879 15.029 39.6888C15.5526 40.2635 16.0814 40.7283 16.6152 41.0834C17.348 41.616 17.9812 41.9918 18.5149 42.2109C19.0485 42.4299 19.433 42.5158 19.6683 42.4684C19.8043 42.4683 20.0057 42.523 20.2725 42.6325C20.5655 42.7368 20.835 42.8594 21.0809 43.0003C21.3478 43.1098 21.51 43.2404 21.5677 43.392C21.6097 43.4652 21.6464 43.5802 21.678 43.737C21.7148 43.92 21.7202 44.0821 21.6942 44.2234C21.6996 44.3855 21.6841 44.511 21.6475 44.6C21.6059 44.7988 21.4937 44.9845 21.3108 45.1573C21.1594 45.351 20.7123 45.3593 19.9694 45.1824ZM8.25878 32.4008L10.7033 29.7466C10.766 29.6524 10.9879 29.3357 11.3691 28.7967C11.7764 28.2523 12.458 27.4488 13.4138 26.3861L17.4484 21.4943C18.0336 21.023 18.6134 20.4575 19.188 19.7979C19.7887 19.1331 20.2483 18.6462 20.567 18.3373C20.9483 17.9342 21.2852 17.5808 21.5778 17.2771C21.8703 16.9735 22.0715 16.8242 22.1813 16.8293C22.3694 16.6827 22.5865 16.6798 22.8324 16.8207C23.0993 16.9303 23.327 17.1157 23.5155 17.377C23.725 17.6068 23.8377 17.829 23.8536 18.0434C23.9585 18.2943 23.9509 18.527 23.8308 18.7416C23.7108 18.9561 23.3843 19.2938 22.8514 19.7546C22.402 20.0898 22.0049 20.4145 21.6601 20.7287C21.3414 21.0376 21.1586 21.2784 21.1118 21.451C21.1118 21.451 20.9028 21.697 20.485 22.1891C20.0881 22.6498 19.5631 23.2178 18.9101 23.8932C18.0012 24.7832 17.2281 25.6052 16.5909 26.359C15.9798 27.1075 15.6013 27.6597 15.4553 28.0155C15.3507 28.0365 15.254 28.0967 15.1652 28.1962C15.1026 28.2904 15.0163 28.335 14.9065 28.3299C14.9065 28.3299 14.8151 28.4163 14.6322 28.589C14.4755 28.7566 14.358 28.9162 14.2797 29.068C14.2538 29.2092 14.1729 29.4159 14.0373 29.688C13.9277 29.9548 13.7396 30.1014 13.4729 30.1279C13.311 30.2693 13.0289 30.5572 12.6267 30.9917C12.2192 31.4001 11.7935 31.853 11.3495 32.3503C10.9317 32.8424 10.5713 33.2821 10.2684 33.6694C9.96553 34.0567 9.80627 34.2792 9.79065 34.3367L8.25878 32.4008Z" fill="white"/>
<path d="M6.06363 47.6533C5.6817 47.5125 5.45663 47.3402 5.38842 47.1363C5.32546 46.9585 5.31719 46.5794 5.36361 45.9988C5.2691 45.6642 5.21906 45.3479 5.2135 45.0498C5.23408 44.7465 5.24693 44.5399 5.25203 44.43C5.38275 44.4037 5.4454 44.3095 5.43999 44.1474C5.43458 43.9853 5.42135 43.852 5.40032 43.7474C5.35825 43.5382 5.36568 43.1695 5.42262 42.6413C5.5057 42.1077 5.56 41.5664 5.58554 41.0172C5.6895 40.4523 5.78828 39.9292 5.88188 39.448C5.99636 38.9353 6.04308 38.6267 6.02205 38.5222C5.97998 38.313 5.99019 38.0933 6.05269 37.8632C6.10993 37.6068 6.18287 37.361 6.27152 37.1255C6.33912 36.7855 6.36226 36.4272 6.34092 36.0507C6.34046 35.6428 6.3192 35.3343 6.27713 35.1251C6.36562 34.7537 6.46192 34.3535 6.56604 33.9246C6.67015 33.4956 6.73242 33.0615 6.75285 32.6222C6.82031 32.1462 6.91368 31.461 7.03296 30.5665C7.17313 29.6407 7.32374 28.6992 7.48479 27.742C7.62016 27.1979 7.75027 26.6277 7.87511 26.0314C7.99996 25.4351 8.11444 24.9224 8.21856 24.4935C8.32268 24.0645 8.41395 23.8421 8.49238 23.8264C8.49238 23.8264 8.48449 23.7871 8.46871 23.7087C8.44767 23.6041 8.42664 23.4996 8.4056 23.395C8.37931 23.2643 8.43392 22.9949 8.56944 22.5868C8.6997 22.1526 8.81425 21.7079 8.91311 21.2528C9.09566 20.8081 9.20503 20.4053 9.24123 20.0444C9.27218 19.6574 9.28765 19.4638 9.28765 19.4638C9.28765 19.4638 9.31109 19.3775 9.35797 19.2049C9.43098 19.027 9.50926 18.8752 9.5928 18.7496C9.88533 18.446 10.1806 18.2914 10.4787 18.2858C10.803 18.275 11.1143 18.4708 11.4129 18.8731C11.7062 19.2493 11.8687 19.5839 11.9004 19.8767C11.9268 20.1434 11.867 20.4546 11.721 20.8104C11.6065 21.323 11.453 21.9796 11.2604 22.7799C11.0625 23.5542 10.8516 24.399 10.6278 25.3145C10.4248 26.1985 10.2297 27.0538 10.0423 27.8803C9.87584 28.6754 9.74326 29.3685 9.64455 29.9596C9.56673 30.5193 9.54097 30.8645 9.56726 30.9952L8.75621 35.2793C8.76673 35.3315 8.74073 35.4728 8.67823 35.7029C8.64188 35.9279 8.58734 36.2653 8.51463 36.7151C8.46806 37.1597 8.40857 37.7429 8.33616 38.4647C8.26375 39.1864 8.18105 40.0599 8.08806 41.085C7.90177 42.8634 7.75951 44.252 7.66126 45.251C7.55775 46.2239 7.44868 46.8986 7.33405 47.2753C7.25081 47.6729 7.1177 47.8901 6.9347 47.9269C6.83012 47.9479 6.70196 47.9193 6.55021 47.841C6.42986 47.7836 6.26767 47.721 6.06363 47.6533ZM19.9694 45.1824C19.7394 45.2558 19.389 45.2039 18.9181 45.0266C18.4786 44.8702 17.9868 44.6564 17.4426 44.385C16.9245 44.1084 16.4169 43.8161 15.9197 43.5081C15.4487 43.1949 15.0666 42.9181 14.7735 42.6779C14.2342 42.1607 13.5536 41.4816 12.7316 40.6406C11.9043 39.7733 11.2208 38.8092 10.6809 37.7482C10.3296 36.9484 10.0151 36.3316 9.73748 35.8979C9.45456 35.438 9.2554 35.0564 9.14001 34.7532L8.62703 32.0003L10.7532 32.2255C11.1679 33.6109 11.6006 34.7479 12.0514 35.6364C12.523 36.4936 13.0259 37.2356 13.56 37.8626C14.0105 38.4792 14.5001 39.0879 15.029 39.6888C15.5526 40.2635 16.0814 40.7283 16.6152 41.0834C17.348 41.616 17.9812 41.9918 18.5149 42.2109C19.0485 42.4299 19.433 42.5158 19.6683 42.4684C19.8043 42.4683 20.0057 42.523 20.2725 42.6325C20.5655 42.7368 20.835 42.8594 21.0809 43.0003C21.3478 43.1098 21.51 43.2404 21.5677 43.392C21.6097 43.4652 21.6464 43.5802 21.678 43.737C21.7148 43.92 21.7202 44.0821 21.6942 44.2234C21.6996 44.3855 21.6841 44.511 21.6475 44.6C21.6059 44.7988 21.4937 44.9845 21.3108 45.1573C21.1594 45.351 20.7123 45.3593 19.9694 45.1824ZM8.25878 32.4008L10.7033 29.7466C10.766 29.6524 10.9879 29.3357 11.3691 28.7967C11.7764 28.2523 12.458 27.4488 13.4138 26.3861L17.4484 21.4943C18.0336 21.023 18.6134 20.4575 19.188 19.7979C19.7887 19.1331 20.2483 18.6462 20.567 18.3373C20.9483 17.9342 21.2852 17.5808 21.5778 17.2771C21.8703 16.9735 22.0715 16.8242 22.1813 16.8293C22.3694 16.6827 22.5865 16.6798 22.8324 16.8207C23.0993 16.9303 23.327 17.1157 23.5155 17.377C23.725 17.6068 23.8377 17.829 23.8536 18.0434C23.9585 18.2943 23.9509 18.527 23.8308 18.7416C23.7108 18.9561 23.3843 19.2938 22.8514 19.7546C22.402 20.0898 22.0049 20.4145 21.6601 20.7287C21.3414 21.0376 21.1586 21.2784 21.1118 21.451C21.1118 21.451 20.9028 21.697 20.485 22.1891C20.0881 22.6498 19.5631 23.2178 18.9101 23.8932C18.0012 24.7832 17.2281 25.6052 16.5909 26.359C15.9798 27.1075 15.6013 27.6597 15.4553 28.0155C15.3507 28.0365 15.254 28.0967 15.1652 28.1962C15.1026 28.2904 15.0163 28.335 14.9065 28.3299C14.9065 28.3299 14.8151 28.4163 14.6322 28.589C14.4755 28.7566 14.358 28.9162 14.2797 29.068C14.2538 29.2092 14.1729 29.4159 14.0373 29.688C13.9277 29.9548 13.7396 30.1014 13.4729 30.1279C13.311 30.2693 13.0289 30.5572 12.6267 30.9917C12.2192 31.4001 11.7935 31.853 11.3495 32.3503C10.9317 32.8424 10.5713 33.2821 10.2684 33.6694C9.96553 34.0567 9.80627 34.2792 9.79065 34.3367L8.25878 32.4008Z" stroke="#030535" stroke-width="6" mask="url(#path-1-outside-1_248_116)"/>
<path d="M22.8873 25.6035C23.3809 25.2634 24.0908 24.9391 24.9105 25.0939C25.7313 25.2489 26.2566 25.806 26.572 26.3315L26.5739 26.3312C26.8989 26.8431 27.126 27.4967 27.3016 28.186C27.4813 28.8911 27.6311 29.7395 27.7587 30.7158L27.7599 30.7166C27.9106 31.7234 28.1112 32.7207 28.3615 33.7075C28.4005 33.8608 28.4407 34.0094 28.4821 34.1534C28.497 33.9642 28.5336 33.7882 28.5614 33.6663C28.6043 33.4785 28.6632 33.2637 28.7333 33.03C28.8493 32.6432 28.9529 32.2588 29.0465 31.8783C29.0992 31.4573 29.1755 30.8713 29.2761 30.1227C29.3893 29.2798 29.5392 28.5321 29.7361 27.9034C29.9278 27.2428 30.076 26.7184 30.1821 26.3275L30.1873 26.3085L30.1934 26.2894C30.3347 25.8183 30.5989 25.1819 31.1556 24.7491C31.2369 24.6609 31.3224 24.5733 31.4112 24.4944C31.4813 24.4321 31.5758 24.3534 31.6907 24.2798C31.7907 24.2158 31.9951 24.0971 32.2742 24.0409L32.4025 24.0201C32.6974 23.9837 32.9548 24.0266 33.0788 24.0494C33.1723 24.0666 33.2678 24.0887 33.3637 24.1136L33.6501 24.1955L33.8562 24.2596L34.0356 24.3789C34.5496 24.7207 35.0272 25.1749 35.3223 25.7786L35.3242 25.7782C35.3268 25.7834 35.328 25.7897 35.3305 25.7949C35.3326 25.7992 35.3359 25.803 35.338 25.8073L35.3361 25.8077C35.6443 26.4419 35.6553 27.1331 35.5771 27.7286C35.5185 28.2879 35.3528 28.981 35.1195 29.767C35.0297 30.4514 34.9045 31.1023 34.7377 31.7166L34.7365 31.7158C34.6332 32.1285 34.5157 32.5481 34.3715 32.887C34.3085 33.1908 34.2345 33.5205 34.1489 33.8751L33.9262 34.9668L33.9214 34.9877L33.9165 35.0076C33.653 36.1622 33.4124 37.1238 33.1931 37.8835C32.9886 38.592 32.8137 39.2366 32.6678 39.8181C32.5274 40.3775 32.388 41.0376 32.2521 41.8023L32.2283 41.9366L32.1804 42.0648C31.7687 43.1665 31.3595 44.2152 30.9513 45.2097L30.9501 45.209C30.5617 46.2511 30.1189 47.2405 29.6172 48.1746L29.565 48.2718L29.4993 48.3607C29.2623 48.6794 28.9711 49.0436 28.6306 49.4499C28.265 49.8861 27.8778 50.2975 27.4693 50.6836L27.4681 50.6829C27.0525 51.0944 26.5991 51.4465 26.1007 51.704L26.0995 51.7033C25.2881 52.1264 24.3876 52.3321 23.4343 52.3639L23.4345 52.3649C23.4257 52.3654 23.4165 52.3648 23.4077 52.3653C23.4021 52.3655 23.3966 52.3665 23.391 52.3667L23.3908 52.3657C22.4868 52.412 21.6161 52.3011 20.7995 52.0024L20.7999 52.0043C19.9787 51.7182 19.0914 51.1941 18.6937 50.2097L18.6877 50.1949L18.6829 50.1809C18.4469 49.5607 18.5686 48.9773 18.7424 48.5602C18.912 48.0965 19.2106 47.6885 19.6401 47.3925L19.6918 47.3572L19.7461 47.3253C20.0875 47.1299 20.5024 47.0323 20.9417 47.0988C21.1901 47.1364 21.4043 47.2208 21.5839 47.3202C21.6226 47.3295 21.6701 47.3407 21.7278 47.352C21.8077 47.3677 21.9007 47.384 22.0075 47.4004L22.3703 47.4509L22.4019 47.4545L22.4329 47.4602C22.7 47.5048 23.0339 47.4778 23.4681 47.3028C23.7051 47.1943 24.0138 46.9561 24.3558 46.4419L24.3741 46.4143C24.8156 45.7813 25.1361 45.234 25.3554 44.7705C25.4909 44.4374 25.7201 43.8399 26.0436 42.9576C26.2936 42.2756 26.5416 41.5424 26.7907 40.7592C26.7344 40.7223 26.678 40.686 26.6238 40.6474L26.6027 40.6317L26.5828 40.6168C26.0225 40.1878 25.5373 39.6937 25.1397 39.133C24.956 38.8738 24.7852 38.6001 24.6585 38.3203C24.5923 38.1741 24.5203 37.9868 24.4732 37.7709C24.2636 37.5551 24.1031 37.3124 23.9849 37.1061L23.9621 37.0668L23.9417 37.0251C23.7038 36.5437 23.4942 35.9567 23.303 35.2958C23.1174 34.6543 22.9383 33.9727 22.7654 33.2523L22.7581 33.2259L22.7525 33.1982C22.6033 32.4565 22.4892 31.7433 22.41 31.0596L22.3966 30.9488L22.4001 30.8375C22.411 30.5031 22.3794 30.1256 22.2939 29.7004C22.1905 29.1863 22.1134 28.7413 22.067 28.3793C22.0105 28.1501 21.965 27.9074 21.9513 27.6655C21.9384 27.4368 21.9446 27.0685 22.108 26.6866L22.1078 26.6857C22.2194 26.4139 22.3789 26.1087 22.619 25.8397L22.7386 25.7061L22.8873 25.6035Z" fill="white" stroke="#030535" stroke-width="3"/>
<path d="M42.0892 22.2845C42.6198 22.0132 43.2214 21.849 43.8494 21.7551C44.4651 21.663 45.0882 21.6662 45.7135 21.7566L45.9824 21.8011L46.0102 21.8055L46.0374 21.812C46.4449 21.903 46.8443 22.0584 47.2085 22.3006C47.4907 22.4882 47.7475 22.7096 47.9826 22.9547C48.4776 23.4215 48.9689 24.0307 49.1343 24.788C49.2477 25.2082 49.3168 25.6336 49.3311 26.0633C49.3317 26.0807 49.3409 26.1879 49.4642 26.4031L49.6851 26.788L49.6597 27.2314C49.6173 27.9997 49.558 28.6986 49.4803 29.3255L49.4796 29.3366L49.4779 29.3479C49.4009 29.901 49.332 30.4247 49.2709 30.9186L49.2695 30.9318L49.2671 30.9443C49.2007 31.4127 49.1422 31.8519 49.0916 32.2606C49.0472 32.6192 49.0261 32.9701 49.0265 33.3136L49.0257 33.3496L49.0248 33.3847C49.0017 33.8829 48.9486 34.3847 48.8672 34.8887C48.8093 35.2465 48.7847 35.6094 48.7935 35.9783L48.7914 35.9777C48.8158 36.6774 48.5912 37.3757 48.034 37.9122L48.0351 37.9129C47.7682 38.1804 47.4725 38.4287 47.1533 38.6591L47.0428 38.7391L46.9192 38.7979C46.6119 38.9438 46.3139 38.9739 46.1447 38.9835C45.9499 38.9946 45.7533 38.9852 45.5718 38.9683L45.4765 38.9596L45.3837 38.9394C44.9693 38.8468 44.5776 38.6888 44.2113 38.4789L43.8194 38.254L43.6165 37.8495C43.4168 37.4511 43.2683 37.0116 43.2268 36.5413C43.196 36.1906 43.2044 35.8381 43.2479 35.4871L43.2503 35.4597L43.2549 35.4329C43.2797 35.2793 43.3247 34.8433 43.3878 34.0534C43.4497 33.2794 43.5201 32.4088 43.5975 31.4413C43.6171 31.1953 43.6371 30.9535 43.6568 30.7161C43.561 31.026 43.4566 31.3614 43.34 31.7212C43.2214 32.1594 43.0696 32.7665 42.8816 33.5476L42.8805 33.5469C42.7433 34.1524 42.5369 34.7309 42.2598 35.2795L42.1318 35.5692C42.0085 35.8633 41.8999 36.1693 41.8055 36.4875L41.7668 36.6168L41.7062 36.7366L41.436 37.2701C41.413 37.3279 41.3992 37.3626 41.3989 37.3632C41.3421 37.4824 41.2757 37.5822 41.2519 37.6179C41.1843 37.7196 41.0923 37.8442 40.9932 37.9758C40.8084 38.2211 40.6238 38.4665 40.439 38.7118L40.4392 38.7128L40.4377 38.7151L40.436 38.7164L40.4352 38.7176L40.4346 38.7197L40.4331 38.722L40.4314 38.7233L40.4306 38.7245L40.43 38.7266L40.4285 38.7289L40.4268 38.7302L40.426 38.7314L40.4254 38.7335L40.4231 38.7369L40.4214 38.7383L40.4207 38.7394L40.4201 38.7415L40.4178 38.745L40.4161 38.7463L40.4145 38.7486L40.414 38.7507L40.4117 38.7542L40.41 38.7555L40.4084 38.7578L40.4079 38.7599L40.4048 38.7645L40.4031 38.7659L40.4008 38.7693L40.4002 38.7714L40.3964 38.7772L40.3947 38.7785L40.3916 38.7831L40.391 38.7852L40.3841 38.7956L40.3824 38.7969L40.3755 38.8073L40.375 38.8094L40.3597 38.8324L40.3587 38.8326L40.3518 38.8429L40.352 38.8439L40.3451 38.8542L40.3442 38.8544L40.3411 38.859L40.3413 38.86L40.3375 38.8657L40.3365 38.8659L40.3342 38.8694L40.3344 38.8703L40.3314 38.8749L40.3304 38.8751L40.3289 38.8774L40.3291 38.8784L40.3268 38.8818L40.3258 38.882L40.3243 38.8843L40.3245 38.8853L40.3222 38.8887L40.3212 38.8889L40.3205 38.8901L40.3207 38.891L40.3184 38.8945L40.3174 38.8947L40.3166 38.8958L40.3168 38.8968L40.3153 38.8991L40.3144 38.8993L40.3136 38.9004L40.3138 38.9014L40.3123 38.9037L40.3113 38.9039L40.3105 38.905L40.3107 38.906L40.3092 38.9083L40.3082 38.9085L40.3075 38.9096L40.3077 38.9106L40.3061 38.9129L40.3052 38.9131L40.3054 38.914L40.3038 38.9163L40.3029 38.9165L40.3021 38.9177L40.3023 38.9186L40.3015 38.9198L40.3006 38.92L40.2998 38.9211L40.3 38.9221L40.2993 38.9232L40.2983 38.9234L40.2975 38.9246L40.2977 38.9255L40.297 38.9267L40.296 38.9269L40.2962 38.9278L40.2947 38.9301L40.2937 38.9303L40.2939 38.9313L40.2931 38.9324L40.2922 38.9326L40.2914 38.9338L40.2916 38.9347L40.2908 38.9359L40.2899 38.9361L40.2901 38.937L40.2893 38.9382L40.2884 38.9384L40.2885 38.9393L40.2878 38.9405L40.2868 38.9407L40.2861 38.9418L40.2862 38.9428L40.2853 38.943L40.2845 38.9441L40.2847 38.9451L40.284 38.9462L40.283 38.9464L40.2832 38.9474L40.2824 38.9485L40.2815 38.9487L40.2817 38.9497L40.2809 38.9508L40.2799 38.951L40.2801 38.952L40.2792 38.9522L40.2784 38.9533L40.2786 38.9543L40.2776 38.9545L40.2778 38.9554L40.2771 38.9566L40.2761 38.9568L40.2763 38.9577L40.2755 38.9589L40.2746 38.9591L40.2748 38.96L40.274 38.9612L40.2731 38.9614L40.2732 38.9623L40.2723 38.9625L40.2725 38.9635L40.2717 38.9646L40.2708 38.9648L40.271 38.9658L40.27 38.966L40.2702 38.9669L40.2694 38.9681L40.2685 38.9683L40.2687 38.9692L40.2677 38.9694L40.2679 38.9704L40.2671 38.9715L40.2662 38.9717L40.2664 38.9727L40.2654 38.9729L40.2656 38.9738L40.2641 38.9761L40.2631 38.9763L40.2633 38.9773L40.2623 38.9775L40.2625 38.9784L40.2616 38.9786L40.2618 38.9796L40.2601 38.9809L40.2602 38.9819L40.2593 38.9821L40.2595 38.983L40.2585 38.9832L40.2587 38.9842L40.2578 38.9844L40.258 38.9853L40.257 38.9855L40.2572 38.9865L40.2549 38.9899L40.2539 38.9901L40.2541 38.9911L40.2532 38.9913L40.2534 38.9922L40.2524 38.9924L40.2526 38.9934L40.2516 38.9936L40.2518 38.9945L40.2509 38.9947L40.2511 38.9957L40.2501 38.9959L40.2503 38.9968L40.2488 38.9991L40.2478 38.9993L40.248 39.0003L40.2471 39.0005L40.2472 39.0014L40.2463 39.0016L40.2465 39.0026L40.2455 39.0028L40.2457 39.0037L40.2448 39.0039L40.245 39.0049L40.2442 39.006L40.2432 39.0062L40.2434 39.0072L40.2425 39.0074L40.2427 39.0083L40.2419 39.0095L40.2409 39.0097L40.2411 39.0106L40.2402 39.0108L40.2404 39.0118L40.2396 39.0129L40.2386 39.0131L40.2388 39.0141L40.2381 39.0152L40.2371 39.0154L40.2373 39.0164L40.2363 39.0166L40.2365 39.0175L40.2356 39.0177L40.2358 39.0187L40.2348 39.0189L40.235 39.0198L40.2341 39.02L40.2342 39.021L40.2335 39.0221L40.2325 39.0223L40.2327 39.0233L40.2318 39.0235L40.2319 39.0244L40.231 39.0246L40.2312 39.0256L40.2302 39.0258L40.2304 39.0267L40.2295 39.0269L40.2297 39.0279L40.2287 39.0281L40.2289 39.029L40.2281 39.0302L40.2272 39.0304L40.2274 39.0313L40.2264 39.0315L40.2266 39.0325L40.2256 39.0327L40.2258 39.0336L40.2251 39.0348L40.2241 39.035L40.2243 39.0359L40.2233 39.0361L40.2235 39.0371L40.2226 39.0373L40.2228 39.0382L40.222 39.0394L40.221 39.0396L40.2212 39.0405L40.2203 39.0407L40.2205 39.0417L40.2197 39.0428L40.2188 39.043L40.2189 39.044L40.2182 39.0451L40.2172 39.0453L40.2174 39.0463L40.2165 39.0465L40.2167 39.0474L40.2157 39.0476L40.2159 39.0486L40.2149 39.0488L40.2151 39.0497L40.2144 39.0509L40.1614 39.1293L40.0992 39.2015L39.0878 40.3683C38.6369 40.9063 37.9936 41.0874 37.5998 41.1666L36.2719 41.4338L35.9305 41.3411C35.6286 41.2591 35.3305 41.1065 35.097 40.9758L35.0466 40.9481L34.9983 40.916C34.7996 40.7838 34.6109 40.6448 34.43 40.5024C34.361 40.4565 34.301 40.4174 34.2508 40.384L33.5914 40.2059L33.4086 39.2973C33.3418 38.965 33.2798 38.3401 33.6691 37.7547L33.728 37.6662L33.7985 37.5862C33.8275 37.5538 33.859 37.5099 33.8968 37.4559C34.1907 36.9285 34.6652 36.6313 35.1305 36.4925C35.5027 36.0898 35.8853 35.6742 36.2759 35.244C36.5886 34.8996 36.8276 34.5263 37.0001 34.1202L37.0036 34.1125L37.006 34.105C37.2528 33.5406 37.4948 32.9348 37.7301 32.2869C37.973 31.6179 38.2049 30.9647 38.4267 30.3278C38.4809 30.1614 38.5733 29.8429 38.7083 29.3458C38.7873 29.0547 38.8622 28.7686 38.9343 28.4885L38.7633 28.475L38.3698 28.0691C38.1027 27.7935 37.847 27.5284 37.7459 27.3987L37.6801 27.3143L37.6267 27.2224C37.488 26.9802 37.4196 26.6985 37.397 26.6102C37.356 26.4506 37.3136 26.2553 37.2694 26.0352C37.1822 25.6019 37.2064 25.0828 37.4849 24.5913C37.7493 24.1251 38.149 23.8499 38.4988 23.6891L38.4986 23.6881C39.2648 23.3318 39.9781 23.0501 40.6322 22.8555L40.6379 22.8543C41.1435 22.7061 41.6267 22.5153 42.089 22.2835L42.0892 22.2845Z" fill="white" stroke="#030535" stroke-width="3"/>
<path d="M69.0004 7.64116C69.2928 7.5023 69.6375 7.38688 70.0179 7.35581C70.1333 7.33728 70.2611 7.32215 70.398 7.31918C70.5901 7.23666 70.7552 7.2025 70.8307 7.18732L71.1924 7.1285C71.292 7.11576 71.3935 7.10686 71.4961 7.09828C71.9655 7.02282 72.4239 7.06896 72.8468 7.18219C73.426 7.31351 73.9352 7.62434 74.3566 7.95827L74.366 7.96534L74.3756 7.97337C74.5082 8.082 74.6069 8.15821 74.6758 8.20784C74.6941 8.22101 74.7091 8.23069 74.7197 8.23786C75.5021 8.60477 75.7391 9.37882 75.8148 9.75482L75.8512 9.93576L75.8424 10.1198C75.8424 10.1198 75.8416 10.1265 75.8416 10.1409C75.8417 10.156 75.8425 10.1769 75.8434 10.2043C75.8453 10.2596 75.8492 10.3329 75.8561 10.4259L75.8573 10.4515C75.8723 10.7155 75.8677 11.034 75.8515 11.3831L75.8217 12.0226L75.4572 12.34C75.2423 12.9774 74.7219 13.3232 74.2822 13.4609C73.8703 13.5898 73.4574 13.5747 73.1623 13.5437L73.1144 13.5384L73.0671 13.531C72.6359 13.4576 71.9872 13.2964 71.5058 12.8161L71.4085 12.7191L71.3299 12.6054C71.3247 12.5979 71.3188 12.5911 71.3136 12.5838C71.0583 12.6001 70.7881 12.6876 70.485 12.8919L70.4718 12.9006L70.4577 12.9094C69.8008 13.3318 69.1085 13.6555 68.3821 13.8718C68.1834 13.9356 67.9835 14.0267 67.7793 14.1435C67.9116 14.2528 68.0468 14.3679 68.1844 14.4883L68.425 14.6939C68.986 15.1867 69.538 15.7691 70.0822 16.4305C70.7426 17.2332 71.3219 18.1551 71.8266 19.1845L71.8256 19.1847C72.3683 20.2761 72.7003 21.4791 72.838 22.7763L72.8368 22.7756C72.998 24.2229 72.8327 25.7695 72.3925 27.3953C71.951 29.0736 71.0801 30.8285 69.8439 32.6516L69.8347 32.6654C69.2855 33.4571 68.7829 34.1107 68.3558 34.5088L68.324 34.5391L68.2907 34.5668C67.9641 34.8376 67.4751 35.199 66.9001 35.3147L66.7958 35.3357L66.7267 35.3386L66.7067 35.3486C66.3119 35.5361 65.8658 35.6403 65.3894 35.6086L65.0977 35.748L64.6339 35.6709C63.716 35.519 62.841 35.2507 62.1585 34.7594L62.1341 34.7424L62.1103 34.7232C61.6302 34.3477 61.1107 33.8417 60.5591 33.2363L60.353 33.0088L60.2519 32.7193C59.9506 31.8555 59.7884 30.9856 59.8664 30.1492L59.8673 30.149C59.9232 29.4683 60.049 28.8098 60.2506 28.1773C60.387 27.7078 60.4974 27.2021 60.5797 26.6587L60.6485 26.1986L60.7975 26.0381C60.8503 25.6025 61.0172 25.2145 61.1671 24.9239L61.2051 24.8505L61.251 24.7815C61.2749 24.7454 61.3321 24.6453 61.4257 24.4515C61.5179 24.2249 61.5892 24.0368 61.6401 23.8834L61.6424 23.8749L61.6458 23.8673C62.0017 22.8343 62.5406 21.9135 63.2651 21.1219C63.8831 20.4388 64.5392 19.8321 65.2348 19.3062C65.182 19.2435 65.1259 19.1806 65.0672 19.1168L65.0593 19.1074L65.0517 19.099C64.4929 18.473 63.9461 17.9335 63.4124 17.4764C62.8295 16.9772 62.4339 16.669 62.1995 16.5131C62.0576 16.4186 61.9609 16.3179 61.9423 16.2988C61.9046 16.2604 61.8728 16.2249 61.8518 16.2005C61.8087 16.1505 61.7655 16.0962 61.7273 16.0472C61.6488 15.9465 61.5498 15.8132 61.4342 15.655L61.4054 15.6159L61.3792 15.5744C61.1834 15.266 61.0379 15.0439 60.9387 14.9L60.6151 14.4301L60.6845 13.8643C60.8018 12.9179 61.316 12.133 61.9677 11.5034L62.2002 11.2823C62.7465 10.7775 63.342 10.3349 63.9854 9.95592C64.6254 9.55104 65.2018 9.22328 65.7025 8.99391L65.7252 8.98335L65.7482 8.97375C65.9042 8.90856 66.2279 8.78602 66.6817 8.61763C67.1757 8.41114 67.6697 8.20423 68.1637 7.99775C68.4128 7.89364 68.6093 7.8114 68.7543 7.74945C68.8268 7.71844 68.8845 7.69284 68.9283 7.67361C68.9501 7.66402 68.9676 7.657 68.9805 7.65114C68.9868 7.64831 68.9915 7.64586 68.9951 7.64423C68.9985 7.64265 69.0004 7.64116 69.0004 7.64116ZM67.4302 24.4608C67.0114 25.0316 66.6732 25.6201 66.4118 26.2266L66.4068 26.2366C66.0948 26.9453 65.8706 27.6376 65.7269 28.3138C65.6076 28.988 65.538 29.54 65.5101 29.9791L65.5263 29.8962L65.6968 29.6398C66.1288 28.9901 66.5169 28.2831 66.8606 27.517L66.8763 27.4859C67.185 26.8385 67.376 26.0868 67.4276 25.2105L67.428 25.1924L67.4302 25.1741C67.4486 24.9542 67.4477 24.7166 67.4302 24.4608ZM72.2133 8.07864C72.2254 8.09952 72.2384 8.12121 72.2505 8.14486C72.2386 8.12104 72.2279 8.09798 72.216 8.0771L72.2133 8.07864Z" fill="white" stroke="#030535" stroke-width="3"/>
<path d="M53.6735 19.3701C54.0706 19.2902 54.4698 19.2885 54.8601 19.3516L55.3938 19.4295L56.1373 19.521L56.5104 20.1721C56.5184 20.1862 56.5246 20.1945 56.5276 20.1985C57.2375 20.6803 57.4597 21.4293 57.4712 22.0418L57.4775 22.3703L57.3457 22.6707C57.3052 22.7633 57.2674 22.8573 57.2277 22.9505L57.3712 22.9903C57.4569 23.0136 57.576 23.0531 57.7091 23.1156C57.791 23.1489 57.8695 23.1886 57.945 23.2335C58.1844 23.3189 58.4152 23.427 58.6383 23.5503C58.7578 23.6075 58.8725 23.6639 58.9821 23.7192L59.317 23.8938L59.6725 24.0863L59.8836 24.4323C60 24.6233 60.1621 24.8489 60.3785 25.1098C60.8708 25.7036 61.1275 26.5062 61.2841 27.2844C61.6317 29.0122 61.4751 30.6522 60.6751 32.0957C59.9939 33.3624 59.0139 34.5067 57.7774 35.5375L57.7761 35.5358C57.5158 35.7589 57.2304 35.9452 56.9217 36.0921L56.1233 37.0845L55.6081 36.7419C55.575 36.7565 55.5414 36.7702 55.5083 36.7859C55.4358 36.8203 55.3837 36.8449 55.3495 36.8626L54.9287 37.1923L54.3117 37.1162C54.1141 37.0917 53.8873 37.0912 53.627 37.1245L53.5746 37.131L53.5213 37.1338C52.821 37.1734 52.155 36.9921 51.5709 36.6037C50.9977 36.2226 50.5153 35.742 50.1329 35.1697L50.1043 35.1266L50.0784 35.082C49.6959 34.4145 49.5026 33.682 49.5181 32.9106L49.5188 32.8746L49.5216 32.8392C49.5344 32.6509 49.5218 32.5034 49.4989 32.3895C49.4136 31.9657 49.4128 31.5391 49.4896 31.1203C49.4743 30.7916 49.4966 30.4619 49.5644 30.1351L49.5634 30.1353L49.6415 29.7112C49.6674 29.5701 49.6937 29.4291 49.7197 29.288L49.7201 29.28L49.7216 29.2727C49.8056 28.8409 49.8663 28.4168 49.9029 28L49.9059 27.9606L49.9118 27.9205C49.9879 27.3836 50.0967 26.8545 50.2381 26.3338C50.4757 25.4134 50.7453 24.5128 51.0485 23.6327L51.055 23.6154L51.0613 23.5972C51.3564 22.8057 51.5981 22 51.7863 21.1802L51.8008 21.1235C51.8963 20.7718 52.1093 20.2214 52.6344 19.8451C52.9301 19.6216 53.2776 19.4498 53.6735 19.3701ZM55.487 28.1328C55.4427 28.3764 55.4157 28.6315 55.407 28.899C55.3891 29.4493 55.3175 29.9867 55.1932 30.5099L55.1953 30.5105C55.1747 30.6051 55.1575 30.7011 55.1437 30.7988C55.3439 30.5438 55.506 30.3222 55.6332 30.1325C55.7809 29.8837 55.8832 29.6253 55.9444 29.3517C55.988 29.1179 56.0094 28.7904 55.989 28.3506C55.91 28.3242 55.8317 28.2957 55.7539 28.2664L55.6483 28.2269L55.5506 28.1718C55.529 28.1598 55.5084 28.1453 55.487 28.1328Z" fill="white" stroke="#030535" stroke-width="3"/>
<path d="M79.016 13.9873C79.4537 13.8993 79.898 13.8903 80.3398 13.9372C80.6934 13.9547 81.042 13.9976 81.371 14.0773L81.6044 14.128C82.1484 14.2571 82.6772 14.4681 83.1337 14.8076C83.5944 15.1502 83.9685 15.6266 84.2814 16.1356L84.4122 16.3553L84.4738 16.4635L84.5171 16.5793C84.6954 17.0603 84.8436 17.5043 84.9113 17.8408C85.0009 18.2866 84.9755 18.8055 84.9265 19.2731L84.9244 19.2875L84.9231 19.3007C84.783 20.4319 84.5047 21.4782 84.0695 22.421C83.6399 23.3514 83.008 24.1727 82.2122 24.8944C82.802 24.6807 83.3958 24.7796 83.8153 24.9156L83.816 24.9144C83.8232 24.9166 83.8303 24.9198 83.8375 24.9221C83.8466 24.9251 83.8561 24.9274 83.8651 24.9305L83.8643 24.9316C84.5485 25.1527 85.3025 25.6682 85.5014 26.6573L85.5307 26.8028L85.5317 26.9511C85.532 27.2554 85.456 27.5256 85.4019 27.6924C85.3398 27.8836 85.2575 28.0822 85.1679 28.2774L85.1532 28.3082L85.1375 28.3393C84.9535 28.6959 84.738 29.038 84.4969 29.3686C84.3347 29.6125 84.0586 29.9896 83.6466 30.2569C83.5825 30.3127 83.5104 30.3705 83.4378 30.4274C83.1935 30.8305 82.8058 31.2768 82.2018 31.4829C82.1564 31.5294 82.1154 31.5721 82.0774 31.6075C81.8454 31.8237 81.5642 32.0313 81.2653 32.2301L81.2408 32.247L81.2159 32.2619C80.5506 32.6674 79.8462 32.9559 79.1073 33.1045C77.5336 33.4209 76.0558 33.0784 74.7981 32.0847L74.7899 32.0784L74.7814 32.0711C73.5553 31.0727 72.8221 29.7072 72.5308 28.0931L72.5256 28.0672L72.5224 28.041C72.3663 26.9573 72.3481 25.797 72.4543 24.5682L72.4549 24.5562L72.4566 24.5449C72.5858 23.2779 72.8398 22.0418 73.2202 20.8391C73.5902 19.627 74.0512 18.5197 74.6108 17.5261C75.1772 16.5204 75.8688 15.6753 76.7121 15.0624L76.7119 15.0614C76.7218 15.0537 76.7324 15.047 76.7423 15.0394C76.7505 15.0335 76.7582 15.0264 76.7664 15.0206L76.7666 15.0215C77.0658 14.7937 77.3842 14.5933 77.7222 14.4239L77.7358 14.4171L77.7504 14.4102C78.1557 14.2177 78.5784 14.0753 79.016 13.9873ZM77.5356 26.2027C77.5288 26.7358 77.5688 27.1796 77.6421 27.544C77.6839 27.752 77.7398 27.9409 77.8044 28.113C77.8078 28.1195 77.8117 28.1256 77.8151 28.1318C77.881 28.123 77.9499 28.1146 78.02 28.1005L78.4479 28.0144C78.497 27.994 78.5371 27.9735 78.5697 27.9511L78.6108 27.9229L78.6526 27.8976C78.9982 27.6914 79.1935 27.5309 79.2913 27.4284L79.3143 27.4039L79.3386 27.3811C79.5659 27.1627 79.7922 26.9307 80.0175 26.6857L80.1019 26.595L80.2 26.5184L80.3083 26.4329L80.301 26.4164C80.5452 26.2261 80.7393 26.0546 80.8901 25.9035L80.916 25.8783L80.942 25.8542C81.0222 25.7811 81.0884 25.7204 81.1406 25.6728C81.1086 25.6897 81.0778 25.7086 81.0455 25.7248L80.9993 25.748L80.9515 25.7676C80.6026 25.9134 80.2375 26.0228 79.8606 26.0986C79.1622 26.2391 78.4558 26.2536 77.7499 26.1437L77.7014 26.1355L77.6535 26.1252C77.6164 26.1169 77.58 26.1058 77.5432 26.0966C77.5408 26.1323 77.5377 26.1676 77.5356 26.2027ZM79.6147 19.6175C79.4036 19.8914 79.1928 20.1834 78.9844 20.4954C78.933 20.5785 78.8857 20.6587 78.8403 20.7345L78.9598 20.8878C79.1302 20.6697 79.2681 20.4535 79.3758 20.2373C79.4821 20.0098 79.5593 19.8036 79.6147 19.6175Z" fill="white" stroke="#030535" stroke-width="3"/>
<path d="M89.4091 1.61713C90.079 1.43537 90.7517 1.48039 91.3875 1.66241C92.9456 1.86304 94.3227 2.34261 95.4119 3.19773L95.4129 3.19754C96.4986 4.00503 97.3275 5.07089 97.91 6.351C98.4391 7.51385 98.8785 8.85095 99.2392 10.349C99.3843 10.7934 99.4903 11.2327 99.5463 11.6629C99.6212 12.0609 99.6929 12.6477 99.7628 13.3775L99.8031 13.8007L99.616 14.183C99.6066 14.2022 99.606 14.2098 99.6057 14.216C99.6052 14.2255 99.6043 14.2647 99.6292 14.3427C99.8414 14.9259 99.9076 15.5345 99.8109 16.147C99.8568 16.6913 99.8094 17.2511 99.6028 17.7867C99.5859 17.8305 99.5791 17.8608 99.5753 17.8779L99.6173 18.0866L99.5787 18.3454C99.3542 19.8611 98.9411 21.3739 98.3489 22.8831L98.35 22.8838C97.7726 24.4175 97.0234 25.8101 96.0974 27.0515C95.1292 28.3495 93.9493 29.3444 92.5545 29.9896L92.5532 29.9878C92.1702 30.167 91.8018 30.1591 91.7078 30.1579C91.5142 30.1555 91.3127 30.1324 91.1272 30.1043L91.0698 30.096L91.0133 30.0825C90.6604 30.0005 90.2817 29.8979 89.8797 29.7756L89.8117 29.7544L89.7465 29.7276C89.3369 29.5595 88.9524 29.3703 88.6224 29.1509L88.5534 29.105L88.4898 29.0511C88.2047 28.8121 87.9314 28.5689 87.6716 28.3211L87.6112 28.2636L87.5575 28.1997C87.2391 27.82 87.022 27.3885 86.8877 26.9299C86.6098 26.4996 86.3998 26.0351 86.2669 25.5376L86.2548 25.4923L86.2456 25.4463C86.1619 25.0306 86.0691 24.6323 85.9673 24.2511L85.9588 24.219C85.7391 23.3152 85.763 22.3834 85.9825 21.45C86.1423 20.7348 86.286 20.1547 86.4104 19.7292C86.5062 19.1762 86.7192 18.5552 86.9938 17.9055L86.9992 17.8925C87.3412 17.1039 87.7845 16.3261 88.3198 15.5589C88.8124 14.8528 89.3676 14.2356 89.9903 13.7217L90.261 13.5078C90.5815 13.2591 90.9104 13.0321 91.2479 12.8282L91.5951 12.6278C92.298 12.2242 93.0766 12.1238 93.8393 12.2013C93.8214 11.845 93.782 11.4582 93.7123 11.0405L93.7087 11.0173L93.7052 10.9951C93.6091 10.2829 93.443 9.63756 93.2131 9.05399L93.192 8.99848C92.9904 8.42043 92.7666 8.11663 92.5912 7.96283L92.5768 7.95078L92.5643 7.93835C91.916 7.34217 91.3817 7.10888 90.9617 7.05245C90.6262 7.00746 90.1502 7.08657 89.4758 7.55455L88.9532 7.91768L88.3285 7.79332C87.6389 7.65619 87.0579 7.29065 86.5831 6.84648L86.557 6.82084L86.5308 6.79425C85.9695 6.21511 85.6259 5.45304 85.6963 4.57241L85.7311 4.13111L86.0001 3.78013C86.245 3.46032 86.5409 3.15567 86.8688 2.86427C87.2455 2.52948 87.6683 2.25637 88.1381 2.06805L88.1379 2.06709C88.5509 1.88778 88.9722 1.73839 89.4016 1.61963L89.4091 1.61713ZM94.1413 17.3075C93.8182 17.51 93.5067 17.7682 93.2081 18.0909C92.9912 18.3346 92.7827 18.6699 92.6015 19.1263C92.4267 19.5827 92.236 20.0201 92.0319 20.4393C92.0164 20.7492 91.9309 21.0518 91.7742 21.3318L91.6046 21.6379C91.5908 21.6612 91.5748 21.6833 91.5607 21.7065C91.4209 22.2388 91.3641 22.6852 91.371 23.0565L91.3716 23.0694L89.8715 23.0843L91.3707 23.0696C91.3735 23.346 91.3792 23.5561 91.3861 23.706C91.3896 23.781 91.3934 23.8331 91.3962 23.8653L91.4386 24.0411C91.4563 24.104 91.4769 24.1679 91.5001 24.2329C91.7806 23.9244 92.0706 23.5517 92.3674 23.1071C92.7662 22.4752 93.0733 21.9059 93.2962 21.3962L93.2999 21.3895L93.3025 21.383C93.3457 21.2867 93.43 21.0468 93.5514 20.5998L93.5611 20.5639L93.572 20.5289C93.7127 20.0955 93.8305 19.6848 93.9248 19.2964L93.9339 19.2577L93.9452 19.2196C94.0071 19.0133 94.0488 18.8616 94.0745 18.7583C94.0821 18.7278 94.087 18.7051 94.0905 18.6893L94.1013 18.6144C94.176 18.11 94.1808 17.6775 94.1413 17.3075Z" fill="white" stroke="#030535" stroke-width="3"/>
<path d="M105.986 9.74503C106.41 9.45295 106.912 9.30303 107.448 9.3345L107.448 9.3324C107.46 9.33295 107.472 9.33453 107.484 9.33523C107.488 9.33557 107.493 9.33504 107.498 9.33541L107.497 9.33656C107.854 9.35944 108.254 9.4522 108.646 9.56471C109.054 9.60721 109.483 9.68745 109.867 9.85982C110.2 10.009 110.529 10.2472 110.834 10.5032L111.128 10.7628L111.207 10.8345L111.275 10.9174C111.63 11.3477 111.93 11.8045 112.169 12.2876C112.367 12.6881 112.555 13.1317 112.736 13.6129C112.897 13.9073 113.038 14.1874 113.141 14.4469C113.152 14.4754 113.162 14.5069 113.175 14.5397L113.224 14.5297L113.217 14.6577C113.298 14.8966 113.377 15.2113 113.361 15.5471L113.36 15.5722L113.358 15.5965C113.336 15.8769 113.272 16.1833 113.133 16.4826C113.133 16.4851 113.133 16.4878 113.133 16.4906C113.132 16.5052 113.131 16.5236 113.13 16.546C113.135 16.7356 113.112 16.8916 113.096 16.9811C113.079 17.0754 113.054 17.1674 113.03 17.2555C112.981 17.745 112.964 18.2521 112.98 18.7775C113.011 19.2032 113.081 19.4646 113.14 19.612C113.141 19.6137 113.142 19.6158 113.143 19.6173C113.198 19.5783 113.31 19.4794 113.459 19.256L113.524 19.1582L113.604 19.0714C113.869 18.7831 114.133 18.5184 114.395 18.2788C114.482 18.1921 114.589 18.0934 114.716 18.0049C114.854 17.9095 115.142 17.7322 115.541 17.6926C115.915 17.6555 116.29 17.7505 116.601 17.9635C116.724 17.9827 116.854 18.0156 116.987 18.0702C117.34 18.2151 117.595 18.4574 117.764 18.7207C118.09 19.1901 118.123 19.7014 118.105 20.0347C118.102 20.4363 118 20.8095 117.885 21.1149L117.825 21.2755L117.73 21.4181C117.681 21.4917 117.64 21.557 117.606 21.6134L117.644 21.8029L117.3 22.3204L117.299 22.3206C117.299 22.3211 117.298 22.3219 117.297 22.3229C117.296 22.3248 117.295 22.3281 117.292 22.3319L117.174 22.509C117.081 22.6496 116.935 22.845 116.764 23.0687L116.686 23.1701L116.592 23.2577C115.921 23.8792 115.068 24.2377 114.152 24.422C113.269 24.5996 112.335 24.6031 111.491 24.212C110.856 23.9174 110.274 23.49 109.741 22.9704L109.722 22.9504L109.702 22.9305C109.634 22.8594 109.57 22.786 109.505 22.7141C109.349 22.92 109.186 23.1231 109.014 23.3217C108.804 23.5841 108.681 23.7454 108.623 23.8268C108.531 23.9936 108.424 24.1499 108.302 24.2958C108.088 24.578 107.797 24.8013 107.446 24.9292C107.355 25.031 107.263 25.1216 107.179 25.198L107.178 25.1963C106.869 25.4952 106.513 25.7457 106.13 25.9559C106.127 25.9581 106.123 25.9609 106.119 25.9632C106.113 25.9665 106.107 25.9704 106.101 25.9737L106.1 25.973C105.742 26.1752 105.358 26.3377 104.953 26.4318C104.364 26.6244 103.761 26.6196 103.196 26.5013C102.608 26.3782 102.059 26.1458 101.558 25.8127L101.529 25.7938L101.499 25.7728C101.021 25.4205 100.61 24.9713 100.343 24.4087L100.325 24.3695L100.309 24.3308C99.9708 23.5005 99.9058 22.5438 99.9887 21.5603L99.9896 21.5451L99.9915 21.5298C100.095 20.5418 100.304 19.5067 100.61 18.428L100.615 18.4131C100.939 17.3138 101.327 16.243 101.78 15.2023L101.786 15.1891L101.792 15.1749C102.277 14.1193 102.81 13.1661 103.396 12.3231C103.968 11.499 104.594 10.7986 105.288 10.3058C105.503 10.1042 105.742 9.90281 105.987 9.74695L105.986 9.74503ZM107.702 15.2939C107.381 15.8405 107.034 16.4924 106.66 17.2528C106.469 17.6469 106.288 18.0475 106.115 18.4543C106.181 18.3626 106.223 18.3009 106.244 18.2639L106.271 18.2135L106.304 18.1662C106.386 18.0424 106.518 17.8414 106.702 17.5651C106.865 17.29 107.019 17.0417 107.163 16.8229C107.467 16.296 107.65 15.7742 107.729 15.2506C107.721 15.2651 107.711 15.2791 107.702 15.2939Z" fill="white" stroke="#030535" stroke-width="3"/>
<path d="M188.664 35.8707C188.345 35.6691 188.006 35.3764 187.646 34.9927C187.28 34.5829 186.952 34.0964 186.662 33.5331C186.563 33.3367 186.472 33.0564 186.39 32.6922C186.334 32.3221 186.276 32.0619 186.215 31.9117C186.178 32.1114 186.091 32.3358 185.956 32.5849C185.841 32.8021 185.72 32.9933 185.593 33.1585C185.513 33.286 185.325 33.5468 185.031 33.941C184.731 34.3091 184.42 34.6252 184.097 34.8893C183.361 35.6288 182.713 36.0889 182.152 36.2698C181.618 36.4447 181.033 36.2756 180.398 35.7624C179.906 35.5179 179.522 35.208 179.246 34.8327C178.996 34.4516 178.867 33.8792 178.86 33.1156C178.707 32.1933 178.638 31.2795 178.653 30.3742C178.662 29.4428 178.828 28.1755 179.15 26.5722C179.457 25.3826 179.697 24.5085 179.872 23.9498C180.041 23.365 180.153 23.0119 180.208 22.8902C180.569 22.6724 180.897 22.6122 181.192 22.7098C181.482 22.7813 181.693 22.9933 181.827 23.3459C182.042 23.5709 182.115 24.019 182.048 24.6902C182.006 25.3556 181.854 26.1963 181.59 27.2122C181.425 28.1787 181.286 29.1393 181.173 30.0941C181.086 31.0431 181.086 31.8356 181.175 32.4717C181.263 33.1078 181.504 33.4499 181.898 33.498C182.161 33.5754 182.556 33.4457 183.081 33.1088C183.633 32.766 184.179 32.0964 184.72 31.1C185.287 30.0977 185.732 28.672 186.054 26.8229C186.145 26.2558 186.198 25.7653 186.215 25.3517C186.225 24.912 186.188 24.4421 186.102 23.9419C185.98 23.6414 185.932 23.3653 185.957 23.1136C186.003 22.8301 186.161 22.5621 186.432 22.3097C186.507 22.1562 186.624 22.007 186.782 21.8619C186.935 21.6909 187.052 21.6645 187.134 21.7829L187.749 21.6034C187.848 21.554 187.927 21.6044 187.988 21.7546C188.07 21.873 188.187 21.9696 188.341 22.0444C188.679 22.2141 188.872 22.7039 188.917 23.5136C188.963 24.3234 188.844 25.498 188.562 27.0375C188.308 28.2154 188.151 29.098 188.092 29.6853C188.059 30.2668 188.088 30.8206 188.179 31.3468C188.284 31.8151 188.475 32.2369 188.75 32.6122C189.026 32.9874 189.397 33.3003 189.864 33.5507C190.191 33.6684 190.394 33.8414 190.472 34.0697C190.577 34.2922 190.651 34.5624 190.696 34.8805C190.696 35.1263 190.584 35.3565 190.359 35.5712C190.154 35.7539 189.896 35.8805 189.584 35.9507C189.271 36.0209 188.965 35.9943 188.664 35.8707Z" fill="white"/>
<path d="M175.014 39.0645C174.783 39.2532 174.466 39.2424 174.064 39.0323C173.661 38.8223 173.374 38.6408 173.203 38.488C172.899 38.2285 172.633 37.8372 172.406 37.3143C172.179 36.7914 172.025 36.3478 171.943 35.9836C171.791 35.3072 171.651 34.9286 171.523 34.848C171.422 34.7615 171.273 34.8906 171.077 35.2353C170.902 35.5481 170.633 35.9914 170.27 36.565C170.108 36.82 169.832 37.1693 169.439 37.6129C169.047 38.0564 168.63 38.4509 168.189 38.7963C167.747 39.1416 167.357 39.3524 167.019 39.4285C166.779 39.4551 166.515 39.3777 166.229 39.1963C165.942 39.0148 165.675 38.8015 165.429 38.5563C165.202 38.2792 165.027 38.0454 164.902 37.8548C164.684 37.4939 164.527 36.8594 164.433 35.9514C164.358 35.0116 164.34 33.9631 164.381 32.8061C164.441 31.6171 164.552 30.4714 164.714 29.369C164.897 28.2347 165.123 27.2955 165.392 26.5514C165.683 25.7755 166.036 25.3407 166.452 25.247C166.738 25.1826 166.997 25.302 167.23 25.6051C167.482 25.8763 167.684 26.1042 167.834 26.289C168.023 26.5199 168.1 26.6802 168.066 26.7699C168.057 26.8538 167.985 27.0203 167.85 27.2694C167.7 27.5764 167.553 28.0743 167.407 28.7631C167.256 29.4259 167.106 30.1566 166.957 30.9553C166.829 31.7221 166.721 32.4571 166.633 33.1602C166.546 33.8633 166.488 34.3956 166.46 34.7573C166.455 34.9771 166.441 35.2808 166.419 35.6685C166.423 36.0503 166.461 36.3423 166.534 36.5446C166.54 36.5706 166.567 36.6327 166.617 36.7309C166.66 36.8031 166.773 36.8187 166.955 36.7777C167.528 36.649 168.047 36.286 168.514 35.689C169.002 35.06 169.444 34.2909 169.84 33.3816C170.263 32.4665 170.638 31.5211 170.965 30.5455C171.292 29.5699 171.589 28.6421 171.856 27.7621C172.149 26.8763 172.408 26.1481 172.635 25.5777C172.857 24.9813 173.068 24.6467 173.271 24.5738C173.447 24.5068 173.661 24.486 173.912 24.5114C174.184 24.5049 174.426 24.5462 174.637 24.6353C174.849 24.7244 174.968 24.8889 174.994 25.1289C174.899 26.1618 174.738 27.2093 174.512 28.2714C174.281 29.3075 174.078 30.3507 173.905 31.4011C173.757 32.4457 173.719 33.4928 173.792 34.5426C173.828 35.1904 174.005 35.793 174.321 36.3504C174.664 36.9019 175.109 37.3621 175.657 37.7309C175.976 37.9325 176.005 38.1855 175.746 38.4899C175.486 38.7943 175.242 38.9858 175.014 39.0645Z" fill="white"/>
<path d="M155.366 42.9939C154.641 43.2937 153.943 43.4098 153.272 43.3422C152.595 43.2485 152.003 42.9854 151.495 42.5529C151.008 42.0885 150.671 41.4401 150.483 40.6076C150.23 39.8446 150.119 38.9266 150.151 37.8534C150.177 36.7542 150.32 35.6287 150.58 34.4768C150.866 33.3191 151.224 32.2957 151.652 31.4066C152.032 30.6651 152.424 29.9757 152.827 29.3383C153.23 28.7009 153.619 28.2443 153.995 27.9685C154.324 27.7305 154.641 27.5633 154.948 27.467C155.274 27.3389 155.542 27.2514 155.75 27.2046C156.189 27.215 156.676 27.3106 157.208 27.4914C157.761 27.6404 158.073 27.8709 158.143 28.1831C158.143 28.1831 158.178 28.2163 158.247 28.2826C158.337 28.3171 158.382 28.3343 158.382 28.3343C158.538 28.2992 158.706 28.4391 158.886 28.7539C159.093 29.0628 159.258 29.4355 159.384 29.8719C159.504 30.2823 159.518 30.6482 159.426 30.9695C159.433 31.4872 159.348 31.9574 159.169 32.3802C158.991 32.803 158.798 33.0378 158.59 33.0846C158.486 33.108 158.385 33.1444 158.286 33.1939C158.208 33.2114 158.184 33.2852 158.213 33.4153C158.242 33.5454 158.176 33.615 158.014 33.6241C157.878 33.6274 157.718 33.5815 157.532 33.4865C157.341 33.3656 157.183 33.2098 157.058 33.0192C157.029 32.8892 157.031 32.6563 157.065 32.3207C157.099 31.9851 157.112 31.5584 157.105 31.0407C157.097 30.2771 156.979 29.8118 156.75 29.6446C156.515 29.4514 156.161 29.5174 155.687 29.8427C155.119 30.3532 154.609 31.001 154.157 31.7861C153.731 32.5653 153.388 33.5308 153.127 34.6827C152.861 35.8085 152.706 37.1828 152.661 38.8056C152.64 39.4391 152.692 39.974 152.817 40.4105C152.969 40.841 153.086 41.0606 153.17 41.069C153.558 41.0911 154.058 41.0059 154.671 40.8134C155.278 40.5949 155.707 40.3753 155.958 40.1548C156.327 39.8531 156.734 39.4745 157.178 39.0192C157.616 38.5379 157.999 38.1103 158.324 37.7363C158.437 37.629 158.564 37.4638 158.705 37.2407C158.846 37.0176 159.009 36.8306 159.194 36.6797C159.332 36.3207 159.473 36.0976 159.617 36.0104C159.762 35.9233 159.99 35.8446 160.302 35.7743C160.522 35.7795 160.735 35.8137 160.94 35.8768C161.146 35.9399 161.286 36.0176 161.362 36.1099C161.463 36.1965 161.444 36.2963 161.306 36.4095C161.202 36.4329 161.146 36.4865 161.137 36.5704C161.149 36.6225 161.155 36.6485 161.155 36.6485C161.23 36.7408 161.163 36.9883 160.953 37.3909C160.763 37.7617 160.504 38.189 160.175 38.6729C159.847 39.1568 159.52 39.5857 159.194 39.9597C158.888 40.3018 158.657 40.4904 158.501 40.5256C158.241 40.5841 158.128 40.6914 158.163 40.8475C158.175 40.8996 158.009 41.0735 157.666 41.3695C157.349 41.6596 156.966 41.9643 156.519 42.2836C156.097 42.5971 155.713 42.8339 155.366 42.9939Z" fill="white"/>
<path d="M138.218 46.1148C138.022 46.2137 137.754 46.3012 137.416 46.3773C137.072 46.4273 136.764 46.4556 136.492 46.4621C136.241 46.4368 136.106 46.3851 136.088 46.307C136.059 46.1769 135.98 46.1265 135.849 46.1558C135.849 46.1558 135.773 46.1184 135.619 46.0436C135.492 45.963 135.299 45.8969 135.042 45.8456C134.726 45.534 134.521 45.1701 134.427 44.7539C134.327 44.3116 134.289 43.5958 134.313 42.6065C134.245 41.9386 134.322 41.1285 134.545 40.1763C134.788 39.1922 135.12 38.1747 135.539 37.1236C135.959 36.0726 136.425 35.1067 136.937 34.226C137.476 33.3395 137.993 32.6628 138.489 32.1958C138.772 31.7496 139.17 31.455 139.685 31.3119C140.199 31.1688 140.72 31.1746 141.246 31.3294C141.536 31.401 141.843 31.5506 142.167 31.7782C142.492 32.0059 142.809 32.2624 143.12 32.548C143.43 32.8335 143.701 33.1278 143.933 33.4309C144.076 33.6995 144.173 33.9509 144.226 34.185C144.299 34.3873 144.357 34.6475 144.402 34.9655C144.472 35.2777 144.538 35.7548 144.601 36.3967C144.576 36.8943 144.588 37.493 144.636 38.1928C144.71 38.8868 144.803 39.481 144.914 39.9753C144.973 40.4813 145.104 40.8208 145.307 40.9938C145.536 41.161 145.799 41.1154 146.096 40.8572C146.373 40.6309 146.658 40.4985 146.95 40.4601C147.236 40.3958 147.475 40.424 147.666 40.545C147.883 40.6601 148.027 40.8738 148.097 41.186C148.167 41.4982 148.085 41.8585 147.848 42.267C147.633 42.6436 147.33 42.9987 146.94 43.3323C146.571 43.6341 146.191 43.8289 145.801 43.9167C145.514 43.9811 145.203 43.8735 144.867 43.5938C144.525 43.2881 144.194 42.9115 143.875 42.4641C143.576 41.9847 143.295 41.5285 143.034 41.0953L142.598 40.2504L141.28 42.228C141.023 42.6683 140.761 43.0826 140.493 43.4709C140.246 43.8273 140.097 44.0794 140.048 44.227C139.971 44.4904 139.777 44.7802 139.465 45.0963C139.18 45.4065 138.764 45.746 138.218 46.1148ZM137.817 43.786C138.201 43.4264 138.623 42.935 139.085 42.3119C139.54 41.6628 139.973 40.9776 140.385 40.2563C140.791 39.509 141.117 38.8342 141.365 38.2319C141.672 37.534 141.885 36.8985 142.002 36.3255C142.119 35.7525 142.177 35.2202 142.175 34.7285C142.007 34.4657 141.77 34.2046 141.466 33.9451C141.156 33.6595 140.907 33.5242 140.719 33.5392C140.146 33.668 139.617 34.1698 139.13 35.0446C138.664 35.8875 138.225 36.7925 137.814 37.7597C137.739 37.9132 137.643 38.1535 137.526 38.4807C137.408 38.8078 137.287 39.122 137.164 39.4231C137.06 39.6924 136.991 39.8719 136.957 39.9617C136.902 40.0833 136.813 40.4176 136.69 40.9646C136.588 41.4797 136.488 42.0078 136.391 42.549C136.288 43.0641 136.254 43.3997 136.289 43.5558C136.325 43.7119 136.376 43.8781 136.443 44.0543C136.536 44.2247 136.692 44.3126 136.912 44.3178C137.132 44.323 137.433 44.1457 137.817 43.786Z" fill="white"/>
<path d="M114.334 50.669C114.007 50.5513 113.694 50.3757 113.395 50.1422C113.091 49.8827 112.886 49.5188 112.781 49.0505C112.722 48.7903 112.675 48.3363 112.638 47.6885C112.602 47.0407 112.587 46.3061 112.594 45.4846C112.6 44.6632 112.618 43.8937 112.648 43.1763C112.803 42.6495 112.919 42.1315 112.995 41.6222C113.072 41.1129 113.099 40.8063 113.075 40.7022C113.057 40.3783 113.04 39.9994 113.025 39.5656C113.035 39.1259 113.054 38.7253 113.082 38.3637C113.11 38.002 113.144 37.7894 113.185 37.7256C113.286 37.5663 113.424 37.4531 113.6 37.3861C113.771 37.2931 113.959 37.2781 114.164 37.3412C114.39 37.3724 114.584 37.5064 114.747 37.7432C115.103 37.991 115.331 38.336 115.431 38.7783C115.524 39.1945 115.522 39.8511 115.423 40.748C115.306 41.321 115.209 41.9851 115.133 42.7402C115.057 43.4954 114.995 44.1926 114.948 44.8319C114.92 45.4394 114.917 45.8502 114.938 46.0641L114.21 46.4739C114.559 45.9581 114.878 45.4352 115.169 44.9051C115.454 44.349 115.658 43.9204 115.782 43.6193C116.089 42.9214 116.355 42.3422 116.58 41.8817C116.824 41.3893 117.142 40.7984 117.534 40.109C117.92 39.3936 118.345 38.9152 118.81 38.6739C119.295 38.4007 119.681 38.2319 119.967 38.1675C120.563 38.1428 121.086 38.3396 121.535 38.7578C122.005 39.1441 122.397 39.7939 122.712 40.707C122.793 41.0713 122.851 41.5093 122.884 42.0212C122.943 42.5272 122.973 42.7802 122.973 42.7802C122.973 42.7802 123.12 42.4602 123.413 41.8202C123.732 41.1743 124.183 40.4443 124.765 39.63C125.178 39.1545 125.612 38.8381 126.069 38.6807C126.519 38.4973 126.971 38.5597 127.423 38.868C128.181 39.08 128.749 39.5399 129.127 40.2475C129.499 40.9291 129.762 41.854 129.915 43.0221C129.99 43.7161 130.091 44.2264 130.219 44.5529C130.341 44.8533 130.489 45.148 130.664 45.4368C130.895 45.494 130.984 45.7064 130.93 46.0738C130.87 46.4153 130.749 46.6065 130.567 46.6475C130.307 46.706 129.996 46.7213 129.634 46.6933C129.299 46.6595 128.975 46.5548 128.662 46.3792C128.369 46.1717 128.173 45.8468 128.074 45.4046L127.529 42.9851C127.4 42.4127 127.269 41.9503 127.135 41.5977C127.027 41.2394 126.912 41.0329 126.791 40.9782C126.469 40.8865 126.091 41.1493 125.656 41.7665C125.221 42.3838 124.785 43.1789 124.348 44.1519C123.911 45.1249 123.518 46.1152 123.171 47.1226C122.858 48.0404 122.651 48.5789 122.551 48.7383C122.47 48.8657 122.266 48.8706 121.939 48.7529C121.326 48.6996 120.906 48.5344 120.679 48.2573C120.473 47.9483 120.375 47.574 120.386 47.1344C120.416 46.6628 120.438 46.0293 120.45 45.2339C120.488 44.4326 120.52 43.6602 120.544 42.9168C120.562 42.1474 120.562 41.6007 120.544 41.2768C120.393 41.0921 120.196 41.068 119.953 41.2046C119.731 41.3093 119.51 41.482 119.291 41.7227C119.026 42.001 118.736 42.4762 118.423 43.148C118.109 43.8199 117.803 44.5858 117.505 45.4456C117.304 46.0101 117.09 46.5776 116.863 47.148C116.63 47.6924 116.411 48.1789 116.207 48.6075C116.003 49.0362 115.817 49.365 115.65 49.5939C115.415 50.2482 115.238 50.616 115.119 50.6973C115.001 50.7786 114.739 50.7692 114.334 50.669Z" fill="white"/>
<path d="M102.753 54.339C102.181 54.4677 101.746 54.5383 101.448 54.5507C101.15 54.563 100.912 54.5347 100.732 54.4658C100.552 54.3968 100.338 54.2947 100.089 54.1595C99.9382 53.9747 99.7583 53.7829 99.5496 53.5838C99.3408 53.3848 99.1726 53.245 99.0452 53.1643C98.8533 52.7975 98.6871 52.3019 98.5466 51.6775C98.4322 51.0473 98.358 50.3533 98.3242 49.5956C98.3164 48.832 98.3723 48.1087 98.492 47.4258C98.5492 47.1943 98.5934 46.9656 98.6247 46.7399C98.6559 46.5143 98.6715 46.4014 98.6715 46.4014C98.6422 46.2713 98.7281 45.924 98.929 45.3595C99.156 44.789 99.4032 44.1868 99.6705 43.5526C99.9638 42.9126 100.214 42.4463 100.422 42.1536C100.557 41.9045 100.78 41.6219 101.092 41.3058C101.43 40.9838 101.73 40.7386 101.992 40.5702C102.255 40.4017 102.521 40.2463 102.789 40.1038C103.084 39.9555 103.427 39.8375 103.817 39.7497C104.181 39.6677 104.537 39.6697 104.884 39.7555C105.231 39.8414 105.592 40.0472 105.966 40.3731C106.54 40.736 106.905 41.1458 107.063 41.6024C107.24 42.0271 107.33 42.4853 107.331 42.977C107.318 43.5266 107.24 43.9679 107.096 44.3009C106.946 44.6079 106.738 44.7776 106.472 44.8102C106.206 44.8427 105.863 44.7149 105.443 44.4267C105.292 44.242 105.202 44.0846 105.173 43.9546C105.138 43.7985 105.14 43.5656 105.18 43.256C105.202 42.8684 105.117 42.4911 104.925 42.1243C104.733 41.7575 104.52 41.6004 104.286 41.6531C103.948 41.7292 103.606 41.9702 103.26 42.376C102.934 42.75 102.613 43.205 102.296 43.7409C102.161 43.99 101.974 44.3738 101.735 44.8921C101.516 45.3786 101.31 45.9172 101.114 46.5077C100.913 47.0723 100.762 47.6121 100.659 48.1273C100.566 49.0502 100.487 49.7923 100.422 50.3536C100.383 50.909 100.363 51.1868 100.363 51.1868C100.387 51.2908 100.436 51.389 100.512 51.4814C100.607 51.5419 100.667 51.6242 100.69 51.7282C100.76 52.0404 100.998 52.2466 101.403 52.3468C101.73 52.4645 102.092 52.4925 102.488 52.4307C102.878 52.3429 103.33 52.1045 103.844 51.7155C104.214 51.4137 104.542 51.0528 104.831 50.6326C105.145 50.2066 105.481 49.8167 105.838 49.4628C106.084 49.2163 106.27 49.0105 106.396 48.8453C106.549 48.6742 106.637 48.6407 106.661 48.7448C106.684 48.8489 106.735 48.8921 106.813 48.8745C106.891 48.857 106.97 48.7845 107.051 48.657C107.16 48.4137 107.3 48.2456 107.471 48.1526C107.635 48.0336 107.785 47.9724 107.921 47.9692C108.077 47.9341 108.164 47.9555 108.182 48.0336C108.182 48.2794 108.278 48.4628 108.47 48.5838C108.493 48.6879 108.486 48.8397 108.449 49.0394C108.432 49.2072 108.383 49.3549 108.303 49.4823C108.214 49.6937 108.065 49.9458 107.858 50.2384C107.676 50.5253 107.502 50.7832 107.335 51.0121C107.162 51.215 107.075 51.3165 107.075 51.3165C106.965 51.3139 106.867 51.3633 106.781 51.4648C106.72 51.5604 106.65 51.6719 106.569 51.7994C106.402 52.0284 106.239 52.2154 106.08 52.3604C105.916 52.4794 105.781 52.5506 105.677 52.5741C105.519 52.7191 105.39 52.8163 105.292 52.8658C105.22 52.9093 105.195 52.9832 105.219 53.0872C105.017 53.4059 104.733 53.6612 104.366 53.8531C104.019 54.0131 103.482 54.175 102.753 54.339Z" fill="white"/>
<path d="M81.3907 58.6129C81.2398 58.4282 81.0746 58.3014 80.8951 58.2324C80.7097 58.1375 80.6053 58.038 80.5819 57.9339C80.5585 57.8298 80.5221 57.7287 80.4726 57.6305C80.4434 57.5004 80.365 57.395 80.2375 57.3144C80.0723 57.1876 80.0063 56.8334 80.0395 56.2519C80.0668 55.6445 80.1718 54.8965 80.3546 54.008C80.5315 53.0936 80.7646 52.1254 81.0541 51.1037C81.2154 50.8487 81.362 50.5287 81.4941 50.1437C81.6261 49.7586 81.7324 49.5023 81.8131 49.3749C81.7897 49.2708 81.8082 49.171 81.8687 49.0754C81.9233 48.9537 82.0027 48.8812 82.1067 48.8578L82.0541 48.6236C82.0248 48.4936 82.0921 48.2461 82.256 47.8812C82.4459 47.5105 82.682 47.102 82.9643 46.6558C83.2407 46.1836 83.536 45.7345 83.8501 45.3085C84.1584 44.8565 84.4251 44.5232 84.6501 44.3085C85.1145 43.8214 85.6241 43.4744 86.1789 43.2675C86.7597 43.0548 87.2963 43.0708 87.7887 43.3153C87.8843 43.3758 88.0436 43.4766 88.2667 43.6178C88.4898 43.7589 88.7448 43.9202 89.0316 44.1017C89.3386 44.2513 89.6485 44.4139 89.9614 44.5895L91.695 45.5524L91.4316 47.6617C91.3276 48.7784 91.4414 49.7095 91.7731 50.4548C92.1308 51.1943 92.5432 51.8122 93.0102 52.3085C93.2046 52.5654 93.5263 52.78 93.9751 52.9524C94.4498 53.1189 94.8752 53.1872 95.2512 53.1573C95.4651 53.1364 95.6778 53.1706 95.8892 53.2597C96.1006 53.3488 96.2385 53.5364 96.3029 53.8226C96.3614 54.0828 96.3562 54.3026 96.2873 54.4821C96.2183 54.6616 96.0596 54.8067 95.8112 54.9173C94.976 55.2145 94.1227 55.1878 93.2512 54.8373C92.4056 54.4808 91.536 53.7745 90.6424 52.7182C90.5032 52.5856 90.2957 52.3316 90.0199 51.9563C89.7643 51.5491 89.6089 51.2835 89.5536 51.1592C89.4788 51.3127 89.3393 51.6038 89.1351 52.0324C88.925 52.435 88.7594 52.7319 88.6385 52.9231C87.2128 55.2119 85.8967 56.8337 84.6902 57.7885C83.5039 58.7114 82.404 58.9862 81.3907 58.6129ZM82.3038 56.1115C82.3448 56.2936 82.618 56.2321 83.1234 55.9271C83.6489 55.5901 84.1783 55.0884 84.7116 54.4217C85.4264 53.4682 86.1237 52.4366 86.8033 51.327C87.509 50.2116 88.0472 49.2022 88.418 48.2987L88.9604 46.7007C88.5656 46.1609 88.1887 45.822 87.8297 45.6841C87.4908 45.5144 87.2173 45.4529 87.0092 45.4997C86.671 45.5758 86.2339 46.0022 85.698 46.7788C85.188 47.5495 84.6729 48.5401 84.1526 49.7505C83.6323 50.9609 83.1744 52.2666 82.779 53.6675C82.6359 54.2464 82.5159 54.8064 82.419 55.3476C82.3422 55.8568 82.3038 56.1115 82.3038 56.1115Z" fill="white"/>
<path d="M73.4724 47.3137C73.7898 47.0236 74.1524 46.8737 74.5602 46.864C74.9621 46.8282 75.2994 46.93 75.5719 47.1693C75.8646 47.3768 75.9797 47.7062 75.9173 48.1576C75.9342 47.9898 75.8926 48.1085 75.7924 48.5137C75.7124 48.887 75.6038 49.3761 75.4665 49.981C75.3553 50.5801 75.2513 51.1501 75.1544 51.6913C75.0776 52.2005 75.022 52.5001 74.9875 52.5898L75.0139 52.7069C75.4301 52.6132 75.7066 52.6877 75.8431 52.9303C75.9999 53.141 76.1004 53.4054 76.1446 53.7235C75.8441 53.8457 75.6435 53.9866 75.5427 54.1459C75.436 54.2792 75.2815 54.3823 75.0792 54.4552C75.0012 54.4727 74.9189 54.5322 74.8324 54.6337C74.7459 54.7352 74.7014 54.8409 74.6988 54.9508C74.6903 55.0347 74.6825 55.3644 74.6754 55.9401C74.6884 56.4838 74.6871 57.0854 74.6715 57.7449C74.676 58.3726 74.6614 58.8542 74.6276 59.1898C74.6224 59.4096 74.5563 59.6022 74.4295 59.7674C74.2968 59.9066 74.2074 59.995 74.1612 60.0327C73.5941 59.9417 73.2136 59.8906 73.0198 59.8796C72.8461 59.8366 72.6666 59.7677 72.4812 59.6727C72.4201 59.5225 72.3791 59.3404 72.3583 59.1264C72.3316 58.8864 72.3352 58.5986 72.369 58.263C72.4113 57.8435 72.4334 57.4558 72.4354 57.1001C72.4575 56.7124 72.4474 56.1817 72.4051 55.5079C72.2893 55.4793 72.0682 55.529 71.7417 55.6571C71.4353 55.7534 71.1059 55.8685 70.7534 56.0025C70.4009 56.1365 70.1004 56.2588 69.8519 56.3693C69.6295 56.4741 69.5284 56.5105 69.5485 56.4786C69.4301 56.5599 69.1918 56.6545 68.8334 56.7625C68.4952 56.8386 68.141 56.9046 67.771 56.9606C67.421 56.9846 67.1622 56.9882 66.9944 56.9713L66.7866 57.1411C66.8191 57.4071 66.7898 57.8237 66.6988 58.3908C66.6019 58.932 66.6032 59.4237 66.7027 59.8659C66.7528 60.21 66.7768 60.5599 66.7749 60.9157C66.7729 61.2715 66.7999 61.6344 66.8559 62.0045C66.9586 62.5827 66.8816 62.969 66.6246 63.1635C66.3938 63.3521 65.97 63.3518 65.3534 63.1625C65.2058 63.1138 65.0552 63.052 64.9017 62.9772C64.7742 62.8965 64.6308 62.8058 64.4715 62.705L64.4198 59.5596C64.4419 59.172 64.4568 58.8133 64.4646 58.4835C64.4666 58.1277 64.4845 57.782 64.5183 57.4464C64.5976 56.8273 64.661 56.198 64.7085 55.5586C64.782 54.9134 64.8903 54.3014 65.0334 53.7225C65.0334 53.7225 65.0431 53.5837 65.0627 53.3059C65.1023 52.9964 65.1492 52.6578 65.2031 52.2903C65.2513 51.8968 65.2909 51.5872 65.3222 51.3616C65.3534 51.1359 65.3576 51.0939 65.3348 51.2357C65.3778 51.062 65.4275 50.7365 65.4841 50.2591C65.5348 49.7557 65.5784 49.2812 65.6148 48.8357C65.6714 48.3583 65.6968 48.1066 65.6909 48.0806C65.7078 47.9128 65.7625 47.7911 65.8548 47.7157C65.9413 47.6142 66.0626 47.5459 66.2187 47.5108C66.6552 47.3853 67.0428 47.4074 67.3817 47.5772C67.7147 47.7209 67.9293 47.9459 68.0256 48.2523C68.0347 48.4142 68.0539 48.5602 68.0831 48.6903C68.1124 48.8204 68.1098 48.9303 68.0753 49.0201L67.1612 54.4328L67.2314 54.745C67.5267 54.8425 67.9098 54.7837 68.3807 54.5684C68.8718 54.3212 69.2474 54.1684 69.5075 54.1098C69.6318 54.0545 69.9251 53.9612 70.3875 53.8298C70.876 53.6926 71.3414 53.5742 71.7836 53.4747C72.2519 53.3693 72.502 53.3267 72.5339 53.3469C72.6444 52.502 72.7407 51.715 72.8226 50.9859C72.8987 50.2308 73.063 49.4422 73.3153 48.6201C73.3296 48.5622 73.3436 48.3814 73.3573 48.0776C73.3969 47.768 73.4353 47.5134 73.4724 47.3137Z" fill="white"/>
<path d="M44.062 69.8397C43.5352 69.6849 43.2106 69.4572 43.0883 69.1568C42.9921 68.8504 43.0513 68.2631 43.2659 67.3948C43.4805 66.5265 43.8197 65.1792 44.2834 63.3529C44.6444 62.0416 44.9078 61.0257 45.0737 60.305C45.2597 59.5525 45.3725 59.0215 45.4122 58.7119C45.4779 58.3964 45.502 58.1997 45.4844 58.1216C45.3797 57.8992 45.3647 57.7112 45.4395 57.5577C45.5085 57.3782 45.6483 57.2101 45.859 57.0533C45.9598 56.894 46.1153 56.613 46.3254 56.2104C46.5615 55.8019 46.7569 55.3343 46.9117 54.8075C47.0229 54.2084 47.1702 53.5876 47.3536 52.945C47.5371 52.3024 47.7923 51.4933 48.1195 50.5177C48.4408 49.5161 48.8596 48.2192 49.3761 46.627C49.6915 45.5993 50.056 44.547 50.4697 43.4699C50.8775 42.3668 51.3273 41.2679 51.819 40.1733C52.0232 39.7447 52.2189 39.4 52.4063 39.1392C52.5877 38.8523 52.7985 38.6956 53.0385 38.6689C53.3507 38.5987 53.7253 38.6237 54.1624 38.744C54.6255 38.8585 55.0642 39.0468 55.4785 39.3089C55.8928 39.571 56.2219 39.8796 56.4658 40.2347C56.6427 40.4136 56.7942 40.8442 56.9204 41.5265C57.0466 42.2087 57.179 43.04 57.3175 44.0201C57.456 45.0003 57.5962 46.0484 57.738 47.1645C57.9 48.2487 58.0668 49.5369 58.2385 51.0289C58.4102 52.5209 58.5966 54.078 58.7976 55.7001C59.0246 57.3164 59.2659 58.8747 59.5215 60.3752C59.7712 61.8497 60.0581 63.1245 60.382 64.1996C60.4607 64.4279 60.5104 64.649 60.5313 64.863C60.5521 65.077 60.5771 65.249 60.6064 65.3791C60.4854 65.5703 60.2399 65.6939 59.8698 65.7499C59.5316 65.826 59.1758 65.824 58.8025 65.744C58.4552 65.6582 58.2291 65.504 58.1244 65.2816C58.0288 65.2211 57.9534 65.1287 57.8981 65.0045C57.863 64.8484 57.8057 64.5333 57.7264 64.0591C57.647 63.585 57.5062 62.8377 57.3039 61.8172L56.0766 55.4513L55.578 55.6045C55.3439 55.6572 54.9075 55.7827 54.2688 55.9811C53.6301 56.1795 52.9452 56.4156 52.2141 56.6894C51.4772 56.9372 50.7953 57.1863 50.1683 57.4367C49.5615 57.6553 49.1498 57.8299 48.9332 57.9606C48.699 58.0133 48.448 58.2338 48.18 58.6221C47.9381 59.0045 47.7296 59.4751 47.5546 60.0338C47.5325 60.4215 47.4252 60.8556 47.2327 61.3363C47.0603 61.785 46.9888 62.0745 47.0181 62.2045C46.8652 62.3756 46.7443 62.5668 46.6551 62.7782C46.5921 62.9837 46.5605 63.0865 46.5605 63.0865C46.5956 63.2426 46.5534 63.6621 46.4337 64.345C46.3342 64.9961 46.1872 65.7398 45.9927 66.5763C45.7924 67.3867 45.5716 68.106 45.3303 68.7343L44.7918 70.1675L44.062 69.8397ZM49.3127 55.4562C49.3127 55.4562 49.4369 55.401 49.6854 55.2904C49.9598 55.174 50.2733 55.0488 50.6258 54.9148C50.9985 54.7489 51.341 54.6309 51.6532 54.5606C52.6873 54.0546 53.4427 53.707 53.9195 53.5177C54.3904 53.3024 54.7169 53.1743 54.899 53.1333C55.1071 53.0865 55.298 53.0845 55.4717 53.1274C55.605 53.2341 55.7136 53.2917 55.7975 53.3001C55.9075 53.3027 55.9624 53.304 55.9624 53.304C55.9767 53.2461 55.9484 52.9382 55.8775 52.3801C55.8066 51.8221 55.7195 51.131 55.6161 50.3069C55.5387 49.477 55.4424 48.624 55.3273 47.7479C55.2323 46.84 55.1289 46.0159 55.017 45.2757C54.8993 44.5096 54.8095 43.9284 54.7477 43.5323C54.6625 43.0322 54.589 42.584 54.5273 42.1879C54.4596 41.7658 54.4258 41.5548 54.4258 41.5548C54.2697 41.5899 53.9959 41.9522 53.6043 42.6416C53.2388 43.3252 52.8492 44.2055 52.4356 45.2826C52.0219 46.3596 51.6619 47.493 51.3556 48.6826C51.2066 49.2354 51.059 49.7333 50.9127 50.1762C50.7663 50.6192 50.6281 50.8553 50.498 50.8845C50.4577 50.9483 50.3543 51.2175 50.1878 51.6923C50.0414 52.1353 49.8837 52.6491 49.7146 53.2338C49.5397 53.7925 49.408 54.3005 49.3195 54.7577C49.2252 55.1889 49.2229 55.4218 49.3127 55.4562Z" fill="white"/>
</svg>
