<svg width="437" height="75" viewBox="0 0 437 75" fill="none" xmlns="http://www.w3.org/2000/svg">
<path d="M47.8516 0V58.2031H35.6641V10H12.1875V58.2031H0V0H47.8516Z" fill="#8187F8"/>
<path d="M77.2453 59.0625C72.8443 59.0625 69.0292 58.125 65.8 56.25C62.5969 54.349 60.1229 51.7188 58.3781 48.3594C56.6594 44.974 55.8 41.0417 55.8 36.5625C55.8 32.0312 56.6594 28.0859 58.3781 24.7266C60.1229 21.3411 62.5969 18.7109 65.8 16.8359C69.0292 14.9349 72.8443 13.9844 77.2453 13.9844C81.6724 13.9844 85.4875 14.9349 88.6906 16.8359C91.9198 18.7109 94.3938 21.3411 96.1125 24.7266C97.8573 28.0859 98.7297 32.0312 98.7297 36.5625C98.7297 41.0417 97.8573 44.974 96.1125 48.3594C94.3938 51.7188 91.9198 54.349 88.6906 56.25C85.4875 58.125 81.6724 59.0625 77.2453 59.0625ZM77.3234 49.6094C79.3286 49.6094 81.0083 49.0495 82.3625 47.9297C83.7167 46.7839 84.7323 45.2214 85.4094 43.2422C86.1125 41.263 86.4641 39.0104 86.4641 36.4844C86.4641 33.9323 86.1125 31.6797 85.4094 29.7266C84.7323 27.7734 83.7167 26.237 82.3625 25.1172C81.0083 23.9974 79.3286 23.4375 77.3234 23.4375C75.2922 23.4375 73.5865 23.9974 72.2063 25.1172C70.8521 26.237 69.8234 27.7734 69.1203 29.7266C68.4432 31.6797 68.1047 33.9323 68.1047 36.4844C68.1047 39.0104 68.4432 41.263 69.1203 43.2422C69.8234 45.2214 70.8521 46.7839 72.2063 47.9297C73.5865 49.0495 75.2922 49.6094 77.3234 49.6094Z" fill="#8187F8"/>
<path d="M104.881 74.5312V14.5312H116.756V21.9141H117.303C117.85 20.7161 118.631 19.5052 119.647 18.2812C120.662 17.0573 121.991 16.0417 123.631 15.2344C125.272 14.401 127.303 13.9844 129.725 13.9844C132.928 13.9844 135.858 14.8177 138.514 16.4844C141.196 18.125 143.345 20.612 144.959 23.9453C146.574 27.2786 147.381 31.4453 147.381 36.4453C147.381 41.2891 146.6 45.3906 145.038 48.75C143.475 52.0833 141.353 54.6094 138.67 56.3281C136.014 58.0469 133.019 58.9062 129.686 58.9062C127.342 58.9062 125.35 58.5156 123.709 57.7344C122.069 56.9531 120.728 55.9766 119.686 54.8047C118.67 53.6068 117.876 52.4089 117.303 51.2109H116.952V74.5312H104.881ZM125.858 49.2969C127.837 49.2969 129.504 48.75 130.858 47.6562C132.212 46.5625 133.241 45.0521 133.944 43.125C134.647 41.1719 134.998 38.9323 134.998 36.4062C134.998 33.8802 134.647 31.6667 133.944 29.7656C133.267 27.8385 132.251 26.3281 130.897 25.2344C129.543 24.1406 127.863 23.5938 125.858 23.5938C123.905 23.5938 122.238 24.1276 120.858 25.1953C119.504 26.237 118.462 27.7214 117.733 29.6484C117.03 31.5495 116.678 33.8021 116.678 36.4062C116.678 38.9844 117.043 41.237 117.772 43.1641C118.501 45.0911 119.543 46.6016 120.897 47.6953C122.277 48.763 123.931 49.2969 125.858 49.2969Z" fill="#8187F8"/>
<path d="M149.236 24.0625V14.5312H188.728V24.0625H174.705V58.2031H163.181V24.0625H149.236Z" fill="#8187F8"/>
<path d="M213.63 73.0469V0H225.7V73.0469H213.63ZM213.63 59.0625C210.296 59.0625 207.236 58.5156 204.45 57.4219C201.69 56.3281 199.307 54.7917 197.302 52.8125C195.296 50.8073 193.747 48.4245 192.653 45.6641C191.559 42.9036 191.012 39.8698 191.012 36.5625C191.012 33.2292 191.559 30.1823 192.653 27.4219C193.747 24.6354 195.296 22.2396 197.302 20.2344C199.307 18.2292 201.69 16.6927 204.45 15.625C207.236 14.5312 210.296 13.9844 213.63 13.9844H215.895V59.0625H213.63ZM213.63 49.6094H214.997V23.4375H213.63C211.494 23.4375 209.658 24.0234 208.122 25.1953C206.611 26.3672 205.453 27.9427 204.645 29.9219C203.864 31.901 203.473 34.1146 203.473 36.5625C203.473 38.3854 203.695 40.0911 204.137 41.6797C204.58 43.2422 205.244 44.6224 206.13 45.8203C207.015 46.9922 208.083 47.9167 209.333 48.5938C210.583 49.2708 212.015 49.6094 213.63 49.6094ZM225.7 59.0625H223.473V13.9844H225.7C229.059 13.9844 232.119 14.5312 234.88 15.625C237.666 16.6927 240.062 18.2292 242.067 20.2344C244.072 22.2396 245.622 24.6354 246.716 27.4219C247.835 30.1823 248.395 33.2292 248.395 36.5625C248.395 39.8698 247.835 42.9036 246.716 45.6641C245.622 48.4245 244.072 50.8073 242.067 52.8125C240.062 54.7917 237.666 56.3281 234.88 57.4219C232.119 58.5156 229.059 59.0625 225.7 59.0625ZM225.7 49.6094C227.341 49.6094 228.786 49.2708 230.036 48.5938C231.312 47.9167 232.38 46.9922 233.239 45.8203C234.124 44.6224 234.802 43.2422 235.27 41.6797C235.739 40.0911 235.973 38.3854 235.973 36.5625C235.973 34.1146 235.57 31.901 234.762 29.9219C233.955 27.9427 232.783 26.3672 231.247 25.1953C229.736 24.0234 227.887 23.4375 225.7 23.4375H224.411V49.6094H225.7Z" fill="#8187F8"/>
<path d="M274.195 59.0625C269.794 59.0625 265.979 58.125 262.75 56.25C259.547 54.349 257.073 51.7188 255.328 48.3594C253.609 44.974 252.75 41.0417 252.75 36.5625C252.75 32.0312 253.609 28.0859 255.328 24.7266C257.073 21.3411 259.547 18.7109 262.75 16.8359C265.979 14.9349 269.794 13.9844 274.195 13.9844C278.622 13.9844 282.438 14.9349 285.641 16.8359C288.87 18.7109 291.344 21.3411 293.062 24.7266C294.807 28.0859 295.68 32.0312 295.68 36.5625C295.68 41.0417 294.807 44.974 293.062 48.3594C291.344 51.7188 288.87 54.349 285.641 56.25C282.438 58.125 278.622 59.0625 274.195 59.0625ZM274.273 49.6094C276.279 49.6094 277.958 49.0495 279.312 47.9297C280.667 46.7839 281.682 45.2214 282.359 43.2422C283.062 41.263 283.414 39.0104 283.414 36.4844C283.414 33.9323 283.062 31.6797 282.359 29.7266C281.682 27.7734 280.667 26.237 279.312 25.1172C277.958 23.9974 276.279 23.4375 274.273 23.4375C272.242 23.4375 270.536 23.9974 269.156 25.1172C267.802 26.237 266.773 27.7734 266.07 29.7266C265.393 31.6797 265.055 33.9323 265.055 36.4844C265.055 39.0104 265.393 41.263 266.07 43.2422C266.773 45.2214 267.802 46.7839 269.156 47.9297C270.536 49.0495 272.242 49.6094 274.273 49.6094Z" fill="#8187F8"/>
<path d="M299.214 58.2031L299.175 48.6328H300.62C302.001 48.6068 303.12 48.138 303.98 47.2266C304.865 46.3151 305.529 44.7917 305.972 42.6562C306.441 40.4948 306.74 37.5781 306.87 33.9062L307.612 14.5312H340.777V58.2031H329.253V24.0625H318.472L317.769 37.4219C317.586 41.0677 317.144 44.2057 316.441 46.8359C315.737 49.4661 314.761 51.6276 313.511 53.3203C312.287 54.987 310.777 56.224 308.98 57.0312C307.209 57.8125 305.165 58.2031 302.847 58.2031H299.214Z" fill="#8187F8"/>
<path d="M360.248 42.2266L375.952 14.5312H387.905V58.2031H376.381V30.4688L360.717 58.2031H348.725V14.5312H360.248V42.2266Z" fill="#8187F8"/>
<path d="M415.502 59.0625C411.101 59.0625 407.285 58.125 404.056 56.25C400.853 54.349 398.379 51.7188 396.634 48.3594C394.916 44.974 394.056 41.0417 394.056 36.5625C394.056 32.0312 394.916 28.0859 396.634 24.7266C398.379 21.3411 400.853 18.7109 404.056 16.8359C407.285 14.9349 411.101 13.9844 415.502 13.9844C419.929 13.9844 423.744 14.9349 426.947 16.8359C430.176 18.7109 432.65 21.3411 434.369 24.7266C436.114 28.0859 436.986 32.0312 436.986 36.5625C436.986 41.0417 436.114 44.974 434.369 48.3594C432.65 51.7188 430.176 54.349 426.947 56.25C423.744 58.125 419.929 59.0625 415.502 59.0625ZM415.58 49.6094C417.585 49.6094 419.265 49.0495 420.619 47.9297C421.973 46.7839 422.989 45.2214 423.666 43.2422C424.369 41.263 424.72 39.0104 424.72 36.4844C424.72 33.9323 424.369 31.6797 423.666 29.7266C422.989 27.7734 421.973 26.237 420.619 25.1172C419.265 23.9974 417.585 23.4375 415.58 23.4375C413.548 23.4375 411.843 23.9974 410.462 25.1172C409.108 26.237 408.08 27.7734 407.377 29.7266C406.699 31.6797 406.361 33.9323 406.361 36.4844C406.361 39.0104 406.699 41.263 407.377 43.2422C408.08 45.2214 409.108 46.7839 410.462 47.9297C411.843 49.0495 413.548 49.6094 415.58 49.6094Z" fill="#8187F8"/>
</svg>
